G04 Layer_Color=16711935*
%FSLAX43Y43*%
%MOMM*%
G71*
G01*
G75*
%ADD58R,1.603X1.053*%
%ADD59R,1.053X1.603*%
%ADD74C,1.727*%
%ADD75C,4.013*%
%ADD76C,2.108*%
%ADD77R,2.108X2.108*%
%ADD78R,1.453X1.453*%
%ADD79R,1.703X1.703*%
%ADD80C,1.103*%
%ADD81C,0.965*%
G04:AMPARAMS|DCode=82|XSize=0.453mm|YSize=0.753mm|CornerRadius=0.164mm|HoleSize=0mm|Usage=FLASHONLY|Rotation=270.000|XOffset=0mm|YOffset=0mm|HoleType=Round|Shape=RoundedRectangle|*
%AMROUNDEDRECTD82*
21,1,0.453,0.425,0,0,270.0*
21,1,0.125,0.753,0,0,270.0*
1,1,0.328,-0.212,-0.063*
1,1,0.328,-0.212,0.063*
1,1,0.328,0.212,0.063*
1,1,0.328,0.212,-0.063*
%
%ADD82ROUNDEDRECTD82*%
%ADD83R,0.753X0.453*%
%ADD84R,0.453X0.753*%
G04:AMPARAMS|DCode=85|XSize=3.203mm|YSize=1.053mm|CornerRadius=0.314mm|HoleSize=0mm|Usage=FLASHONLY|Rotation=270.000|XOffset=0mm|YOffset=0mm|HoleType=Round|Shape=RoundedRectangle|*
%AMROUNDEDRECTD85*
21,1,3.203,0.425,0,0,270.0*
21,1,2.575,1.053,0,0,270.0*
1,1,0.628,-0.212,-1.288*
1,1,0.628,-0.212,1.288*
1,1,0.628,0.212,1.288*
1,1,0.628,0.212,-1.288*
%
%ADD85ROUNDEDRECTD85*%
G04:AMPARAMS|DCode=86|XSize=1.053mm|YSize=3.203mm|CornerRadius=0.314mm|HoleSize=0mm|Usage=FLASHONLY|Rotation=270.000|XOffset=0mm|YOffset=0mm|HoleType=Round|Shape=RoundedRectangle|*
%AMROUNDEDRECTD86*
21,1,1.053,2.575,0,0,270.0*
21,1,0.425,3.203,0,0,270.0*
1,1,0.628,-1.288,-0.212*
1,1,0.628,-1.288,0.212*
1,1,0.628,1.288,0.212*
1,1,0.628,1.288,-0.212*
%
%ADD86ROUNDEDRECTD86*%
%ADD87O,1.103X0.453*%
%ADD88O,0.453X1.103*%
%ADD89R,2.803X2.803*%
%ADD90R,4.383X4.383*%
%ADD91O,0.503X0.903*%
%ADD92O,0.903X0.503*%
%ADD93R,1.603X2.003*%
D58*
X24003Y34022D02*
D03*
Y32272D02*
D03*
X26416Y33260D02*
D03*
Y31510D02*
D03*
D59*
X10069Y38854D02*
D03*
X11819D02*
D03*
X15212Y38862D02*
D03*
X13462D02*
D03*
X27051Y17018D02*
D03*
X25301D02*
D03*
X32272Y14986D02*
D03*
X34022D02*
D03*
X22493Y19939D02*
D03*
X24243D02*
D03*
Y29083D02*
D03*
X22493D02*
D03*
X39102Y21209D02*
D03*
X37352D02*
D03*
Y28194D02*
D03*
X39102D02*
D03*
D74*
X41275Y1270D02*
D03*
X41402Y48260D02*
D03*
D75*
X38227Y24765D02*
D03*
X38100Y31750D02*
D03*
Y36195D02*
D03*
Y40640D02*
D03*
X38227Y45085D02*
D03*
X33782D02*
D03*
X29337D02*
D03*
X24892D02*
D03*
X20447D02*
D03*
X16002D02*
D03*
X11557D02*
D03*
X7112D02*
D03*
X2667D02*
D03*
X38227Y17780D02*
D03*
Y13335D02*
D03*
Y8890D02*
D03*
Y4445D02*
D03*
X29337D02*
D03*
X24892D02*
D03*
X20447D02*
D03*
X33782D02*
D03*
X16002D02*
D03*
X11557D02*
D03*
X7112D02*
D03*
X2667Y4435D02*
D03*
D76*
X19558Y12192D02*
D03*
X17018D02*
D03*
X11938D02*
D03*
X14478D02*
D03*
X22098D02*
D03*
D77*
X9398D02*
D03*
D78*
X4826Y34838D02*
D03*
Y39838D02*
D03*
D79*
X2126Y40838D02*
D03*
Y33838D02*
D03*
D80*
X1651Y12192D02*
D03*
X5461D02*
D03*
D81*
X35179Y20701D02*
D03*
X35941Y21336D02*
D03*
X17780Y32512D02*
D03*
X16891Y35179D02*
D03*
Y36576D02*
D03*
X19685Y17145D02*
D03*
X18415D02*
D03*
X17145Y17780D02*
D03*
X1905Y38481D02*
D03*
Y36322D02*
D03*
X4826Y15494D02*
D03*
Y8255D02*
D03*
X2286Y16383D02*
D03*
X7366D02*
D03*
X40894Y21209D02*
D03*
X30734Y17145D02*
D03*
X33274Y10668D02*
D03*
X32385D02*
D03*
Y13335D02*
D03*
X33274D02*
D03*
X31496Y10668D02*
D03*
X27305Y29845D02*
D03*
X30861Y14986D02*
D03*
X35941Y28194D02*
D03*
X26035Y20828D02*
D03*
X2413Y25273D02*
D03*
X16764Y39497D02*
D03*
X1143Y25019D02*
D03*
X21971Y17526D02*
D03*
X25400Y24003D02*
D03*
X1143Y37465D02*
D03*
X4191Y41148D02*
D03*
X9906Y36322D02*
D03*
X27813Y31623D02*
D03*
X22225Y30719D02*
D03*
X12827Y37592D02*
D03*
X18669Y38354D02*
D03*
X23241Y37719D02*
D03*
X33401Y19939D02*
D03*
X34417Y19558D02*
D03*
X31496Y17780D02*
D03*
X29972D02*
D03*
X31496Y13843D02*
D03*
X21463Y19939D02*
D03*
X20066Y19685D02*
D03*
X21723Y39197D02*
D03*
X22860Y39751D02*
D03*
X22365Y38367D02*
D03*
X24701Y35687D02*
D03*
X24003Y36703D02*
D03*
X30480Y32385D02*
D03*
X35052Y29718D02*
D03*
X31242Y34290D02*
D03*
Y33147D02*
D03*
X32436Y34493D02*
D03*
X33147Y32258D02*
D03*
X33909Y31115D02*
D03*
X35718Y33817D02*
D03*
D82*
X11144Y35572D02*
D03*
D83*
Y36072D02*
D03*
Y36572D02*
D03*
Y37072D02*
D03*
X13494D02*
D03*
Y36572D02*
D03*
Y36072D02*
D03*
Y35572D02*
D03*
D84*
X11819Y37247D02*
D03*
X12319D02*
D03*
X12819D02*
D03*
Y35397D02*
D03*
X12319D02*
D03*
X11819D02*
D03*
D85*
X16088Y30365D02*
D03*
X14838D02*
D03*
X13588D02*
D03*
X12338D02*
D03*
X11088D02*
D03*
X9838D02*
D03*
X8588D02*
D03*
X7338D02*
D03*
X6088D02*
D03*
X4838D02*
D03*
X3588D02*
D03*
X2338D02*
D03*
X1088D02*
D03*
X16088Y18315D02*
D03*
X14838D02*
D03*
X13588D02*
D03*
X12338D02*
D03*
X11088D02*
D03*
X9838D02*
D03*
X8588D02*
D03*
X7338D02*
D03*
X6088D02*
D03*
D86*
X18288Y28515D02*
D03*
Y27265D02*
D03*
Y26015D02*
D03*
Y24765D02*
D03*
Y23515D02*
D03*
Y22265D02*
D03*
Y21015D02*
D03*
Y19765D02*
D03*
D87*
X26625Y10815D02*
D03*
Y11315D02*
D03*
Y11815D02*
D03*
Y12315D02*
D03*
Y12815D02*
D03*
Y13315D02*
D03*
X30525D02*
D03*
Y12815D02*
D03*
Y12315D02*
D03*
Y11815D02*
D03*
Y11315D02*
D03*
Y10815D02*
D03*
X30525Y38715D02*
D03*
Y38215D02*
D03*
Y37715D02*
D03*
Y37215D02*
D03*
Y36715D02*
D03*
Y36215D02*
D03*
X26625D02*
D03*
Y36715D02*
D03*
Y37215D02*
D03*
Y37715D02*
D03*
Y38215D02*
D03*
Y38715D02*
D03*
D88*
X27325Y14015D02*
D03*
X27825D02*
D03*
X28325D02*
D03*
X28825D02*
D03*
X29325D02*
D03*
X29825D02*
D03*
Y10115D02*
D03*
X29325D02*
D03*
X28825D02*
D03*
X28325D02*
D03*
X27825D02*
D03*
X27325D02*
D03*
X29825Y35515D02*
D03*
X29325D02*
D03*
X28825D02*
D03*
X28325D02*
D03*
X27825D02*
D03*
X27325D02*
D03*
Y39415D02*
D03*
X27825D02*
D03*
X28325D02*
D03*
X28825D02*
D03*
X29325D02*
D03*
X29825D02*
D03*
D89*
X28575Y12065D02*
D03*
X28575Y37465D02*
D03*
D90*
X30734Y24765D02*
D03*
D91*
X28784Y21765D02*
D03*
X29434D02*
D03*
X30084D02*
D03*
X30734D02*
D03*
X31384D02*
D03*
X32034D02*
D03*
X32684D02*
D03*
Y27765D02*
D03*
X32034D02*
D03*
X31384D02*
D03*
X30734D02*
D03*
X30084D02*
D03*
X29434D02*
D03*
X28784D02*
D03*
D92*
X33734Y22815D02*
D03*
Y23465D02*
D03*
Y24115D02*
D03*
Y24765D02*
D03*
Y25415D02*
D03*
Y26065D02*
D03*
Y26715D02*
D03*
X27734D02*
D03*
Y26065D02*
D03*
Y25415D02*
D03*
Y24765D02*
D03*
Y24115D02*
D03*
Y23465D02*
D03*
Y22815D02*
D03*
D93*
X24568Y26711D02*
D03*
X22168Y22311D02*
D03*
Y26711D02*
D03*
X24568Y22311D02*
D03*
M02*
