G04 Layer_Color=128*
%FSLAX43Y43*%
%MOMM*%
G71*
G01*
G75*
%ADD13R,1.400X0.850*%
%ADD14R,0.850X1.400*%
G04:AMPARAMS|DCode=38|XSize=0.25mm|YSize=0.55mm|CornerRadius=0.063mm|HoleSize=0mm|Usage=FLASHONLY|Rotation=270.000|XOffset=0mm|YOffset=0mm|HoleType=Round|Shape=RoundedRectangle|*
%AMROUNDEDRECTD38*
21,1,0.250,0.425,0,0,270.0*
21,1,0.125,0.550,0,0,270.0*
1,1,0.125,-0.212,-0.063*
1,1,0.125,-0.212,0.063*
1,1,0.125,0.212,0.063*
1,1,0.125,0.212,-0.063*
%
%ADD38ROUNDEDRECTD38*%
%ADD39R,0.550X0.250*%
%ADD40R,0.250X0.550*%
G04:AMPARAMS|DCode=41|XSize=3mm|YSize=0.85mm|CornerRadius=0.212mm|HoleSize=0mm|Usage=FLASHONLY|Rotation=270.000|XOffset=0mm|YOffset=0mm|HoleType=Round|Shape=RoundedRectangle|*
%AMROUNDEDRECTD41*
21,1,3.000,0.425,0,0,270.0*
21,1,2.575,0.850,0,0,270.0*
1,1,0.425,-0.212,-1.288*
1,1,0.425,-0.212,1.288*
1,1,0.425,0.212,1.288*
1,1,0.425,0.212,-1.288*
%
%ADD41ROUNDEDRECTD41*%
G04:AMPARAMS|DCode=42|XSize=0.85mm|YSize=3mm|CornerRadius=0.212mm|HoleSize=0mm|Usage=FLASHONLY|Rotation=270.000|XOffset=0mm|YOffset=0mm|HoleType=Round|Shape=RoundedRectangle|*
%AMROUNDEDRECTD42*
21,1,0.850,2.575,0,0,270.0*
21,1,0.425,3.000,0,0,270.0*
1,1,0.425,-1.288,-0.212*
1,1,0.425,-1.288,0.212*
1,1,0.425,1.288,0.212*
1,1,0.425,1.288,-0.212*
%
%ADD42ROUNDEDRECTD42*%
%ADD43O,0.900X0.250*%
%ADD44O,0.250X0.900*%
%ADD45R,2.600X2.600*%
%ADD46R,4.180X4.180*%
%ADD47O,0.300X0.700*%
%ADD48O,0.700X0.300*%
%ADD49R,1.400X1.800*%
D13*
X24003Y34022D02*
D03*
Y32272D02*
D03*
X26416Y33260D02*
D03*
Y31510D02*
D03*
D14*
X10069Y38854D02*
D03*
X11819D02*
D03*
X15212Y38862D02*
D03*
X13462D02*
D03*
X27051Y17018D02*
D03*
X25301D02*
D03*
X32272Y14986D02*
D03*
X34022D02*
D03*
X22493Y19939D02*
D03*
X24243D02*
D03*
Y29083D02*
D03*
X22493D02*
D03*
X39102Y21209D02*
D03*
X37352D02*
D03*
Y28194D02*
D03*
X39102D02*
D03*
D38*
X11144Y35572D02*
D03*
D39*
Y36072D02*
D03*
Y36572D02*
D03*
Y37072D02*
D03*
X13494D02*
D03*
Y36572D02*
D03*
Y36072D02*
D03*
Y35572D02*
D03*
D40*
X11819Y37247D02*
D03*
X12319D02*
D03*
X12819D02*
D03*
Y35397D02*
D03*
X12319D02*
D03*
X11819D02*
D03*
D41*
X16088Y30365D02*
D03*
X14838D02*
D03*
X13588D02*
D03*
X12338D02*
D03*
X11088D02*
D03*
X9838D02*
D03*
X8588D02*
D03*
X7338D02*
D03*
X6088D02*
D03*
X4838D02*
D03*
X3588D02*
D03*
X2338D02*
D03*
X1088D02*
D03*
X16088Y18315D02*
D03*
X14838D02*
D03*
X13588D02*
D03*
X12338D02*
D03*
X11088D02*
D03*
X9838D02*
D03*
X8588D02*
D03*
X7338D02*
D03*
X6088D02*
D03*
D42*
X18288Y28515D02*
D03*
Y27265D02*
D03*
Y26015D02*
D03*
Y24765D02*
D03*
Y23515D02*
D03*
Y22265D02*
D03*
Y21015D02*
D03*
Y19765D02*
D03*
D43*
X26625Y10815D02*
D03*
Y11315D02*
D03*
Y11815D02*
D03*
Y12315D02*
D03*
Y12815D02*
D03*
Y13315D02*
D03*
X30525D02*
D03*
Y12815D02*
D03*
Y12315D02*
D03*
Y11815D02*
D03*
Y11315D02*
D03*
Y10815D02*
D03*
X30525Y38715D02*
D03*
Y38215D02*
D03*
Y37715D02*
D03*
Y37215D02*
D03*
Y36715D02*
D03*
Y36215D02*
D03*
X26625D02*
D03*
Y36715D02*
D03*
Y37215D02*
D03*
Y37715D02*
D03*
Y38215D02*
D03*
Y38715D02*
D03*
D44*
X27325Y14015D02*
D03*
X27825D02*
D03*
X28325D02*
D03*
X28825D02*
D03*
X29325D02*
D03*
X29825D02*
D03*
Y10115D02*
D03*
X29325D02*
D03*
X28825D02*
D03*
X28325D02*
D03*
X27825D02*
D03*
X27325D02*
D03*
X29825Y35515D02*
D03*
X29325D02*
D03*
X28825D02*
D03*
X28325D02*
D03*
X27825D02*
D03*
X27325D02*
D03*
Y39415D02*
D03*
X27825D02*
D03*
X28325D02*
D03*
X28825D02*
D03*
X29325D02*
D03*
X29825D02*
D03*
D45*
X28575Y12065D02*
D03*
X28575Y37465D02*
D03*
D46*
X30734Y24765D02*
D03*
D47*
X28784Y21765D02*
D03*
X29434D02*
D03*
X30084D02*
D03*
X30734D02*
D03*
X31384D02*
D03*
X32034D02*
D03*
X32684D02*
D03*
Y27765D02*
D03*
X32034D02*
D03*
X31384D02*
D03*
X30734D02*
D03*
X30084D02*
D03*
X29434D02*
D03*
X28784D02*
D03*
D48*
X33734Y22815D02*
D03*
Y23465D02*
D03*
Y24115D02*
D03*
Y24765D02*
D03*
Y25415D02*
D03*
Y26065D02*
D03*
Y26715D02*
D03*
X27734D02*
D03*
Y26065D02*
D03*
Y25415D02*
D03*
Y24765D02*
D03*
Y24115D02*
D03*
Y23465D02*
D03*
Y22815D02*
D03*
D49*
X24568Y26711D02*
D03*
X22168Y22311D02*
D03*
Y26711D02*
D03*
X24568Y22311D02*
D03*
M02*
