G04 Layer_Physical_Order=2*
G04 Layer_Color=36540*
%FSLAX43Y43*%
%MOMM*%
G71*
G01*
G75*
%ADD29C,0.254*%
%ADD31C,3.810*%
%ADD32C,1.905*%
%ADD33R,1.905X1.905*%
%ADD37C,0.762*%
G36*
X40853Y48991D02*
X40750Y48912D01*
X40603Y48721D01*
X40511Y48499D01*
X40480Y48260D01*
X40511Y48021D01*
X40603Y47799D01*
X40750Y47608D01*
X40941Y47461D01*
X41163Y47369D01*
X41402Y47338D01*
X41641Y47369D01*
X41863Y47461D01*
X42006Y47571D01*
X42175Y47521D01*
X42260Y47459D01*
Y1905D01*
X42006Y1819D01*
X41927Y1922D01*
X41736Y2069D01*
X41514Y2161D01*
X41275Y2192D01*
X41036Y2161D01*
X40814Y2069D01*
X40623Y1922D01*
X40476Y1731D01*
X40384Y1509D01*
X40353Y1270D01*
X40384Y1031D01*
X40476Y809D01*
X40623Y618D01*
X40726Y539D01*
X40640Y285D01*
X285D01*
Y16744D01*
X523Y16880D01*
X539Y16879D01*
X635Y16860D01*
X1658D01*
X1794Y16606D01*
X1784Y16591D01*
X1742Y16383D01*
X1784Y16175D01*
X1901Y15998D01*
X2078Y15881D01*
X2286Y15839D01*
X2494Y15881D01*
X2671Y15998D01*
X2788Y16175D01*
X2830Y16383D01*
X2788Y16591D01*
X2778Y16606D01*
X2914Y16860D01*
X4541D01*
X4646Y16606D01*
X4625Y16584D01*
X4563Y16492D01*
X4541Y16383D01*
X4541Y16383D01*
Y15945D01*
X4441Y15879D01*
X4324Y15702D01*
X4282Y15494D01*
X4324Y15286D01*
X4441Y15109D01*
X4618Y14992D01*
X4690Y14977D01*
X4774Y14702D01*
X4530Y14458D01*
X4468Y14366D01*
X4447Y14257D01*
X4447Y14257D01*
Y8643D01*
X4441Y8640D01*
X4324Y8463D01*
X4282Y8255D01*
X4324Y8047D01*
X4441Y7870D01*
X4618Y7753D01*
X4826Y7711D01*
X5034Y7753D01*
X5211Y7870D01*
X5328Y8047D01*
X5370Y8255D01*
X5328Y8463D01*
X5211Y8640D01*
X5034Y8757D01*
X5016Y8761D01*
Y11459D01*
X5104Y11528D01*
X5270Y11616D01*
X5461Y11578D01*
X5696Y11625D01*
X5895Y11758D01*
X6028Y11957D01*
X6075Y12192D01*
X6028Y12427D01*
X5895Y12626D01*
X5696Y12759D01*
X5461Y12806D01*
X5270Y12768D01*
X5104Y12856D01*
X5016Y12925D01*
Y14139D01*
X6551Y15674D01*
X6551Y15674D01*
X6613Y15766D01*
X6635Y15875D01*
X6635Y15875D01*
Y16095D01*
X6728Y16127D01*
X6889Y16137D01*
X6981Y15998D01*
X7158Y15881D01*
X7366Y15839D01*
X7574Y15881D01*
X7751Y15998D01*
X7868Y16175D01*
X7910Y16383D01*
X7868Y16591D01*
X7751Y16768D01*
X7574Y16885D01*
X7366Y16927D01*
X7158Y16885D01*
X6981Y16768D01*
X6915Y16668D01*
X6664Y16700D01*
X6642Y16907D01*
X7313Y17579D01*
X7375Y17671D01*
X7397Y17780D01*
X7397Y17780D01*
Y36830D01*
X7397Y36830D01*
X7375Y36939D01*
X7313Y37031D01*
X7313Y37031D01*
X5662Y38682D01*
X5570Y38744D01*
X5461Y38766D01*
X5461Y38766D01*
X2356D01*
X2290Y38866D01*
X2113Y38983D01*
X1905Y39025D01*
X1697Y38983D01*
X1520Y38866D01*
X1403Y38689D01*
X1361Y38481D01*
X1393Y38322D01*
X1293Y38171D01*
X1270Y38150D01*
Y37592D01*
X1765D01*
X1741Y37713D01*
X1895Y37939D01*
X1905Y37937D01*
X2113Y37979D01*
X2290Y38096D01*
X2356Y38196D01*
X5343D01*
X6827Y36712D01*
Y18045D01*
X6736Y17980D01*
X6482Y18110D01*
Y35585D01*
X6482Y35585D01*
X6461Y35694D01*
X6399Y35787D01*
X5662Y36523D01*
X5570Y36585D01*
X5461Y36607D01*
X5461Y36607D01*
X2356D01*
X2290Y36707D01*
X2113Y36824D01*
X1905Y36866D01*
X1772Y36839D01*
X1643Y37071D01*
X1741Y37217D01*
X1765Y37338D01*
X1270D01*
Y36843D01*
X1316Y36852D01*
X1478Y36643D01*
X1403Y36530D01*
X1361Y36322D01*
X1403Y36114D01*
X1520Y35937D01*
X1697Y35820D01*
X1905Y35778D01*
X2113Y35820D01*
X2290Y35937D01*
X2356Y36037D01*
X5343D01*
X5511Y35869D01*
X5406Y35615D01*
X4049D01*
Y34061D01*
X5603D01*
Y35172D01*
X5857Y35308D01*
X5913Y35271D01*
Y24235D01*
X5715Y24034D01*
X635D01*
X539Y24015D01*
X523Y24014D01*
X285Y24150D01*
Y24776D01*
X539Y24801D01*
X545Y24771D01*
X685Y24561D01*
X895Y24421D01*
X1016Y24397D01*
Y25019D01*
Y25641D01*
X895Y25617D01*
X685Y25477D01*
X545Y25267D01*
X539Y25237D01*
X285Y25262D01*
Y37222D01*
X539Y37247D01*
X545Y37217D01*
X685Y37007D01*
X895Y36867D01*
X1016Y36843D01*
Y37465D01*
Y38087D01*
X895Y38063D01*
X685Y37923D01*
X545Y37713D01*
X539Y37683D01*
X285Y37708D01*
Y49245D01*
X40767D01*
X40853Y48991D01*
D02*
G37*
%LPC*%
G36*
X20447Y6512D02*
X20044Y6473D01*
X19656Y6355D01*
X19298Y6164D01*
X18985Y5907D01*
X18728Y5594D01*
X18537Y5236D01*
X18419Y4848D01*
X18380Y4445D01*
X18419Y4042D01*
X18537Y3654D01*
X18728Y3296D01*
X18985Y2983D01*
X19298Y2726D01*
X19656Y2535D01*
X20044Y2417D01*
X20447Y2378D01*
X20850Y2417D01*
X21238Y2535D01*
X21596Y2726D01*
X21909Y2983D01*
X22166Y3296D01*
X22357Y3654D01*
X22475Y4042D01*
X22514Y4445D01*
X22475Y4848D01*
X22357Y5236D01*
X22166Y5594D01*
X21909Y5907D01*
X21596Y6164D01*
X21238Y6355D01*
X20850Y6473D01*
X20447Y6512D01*
D02*
G37*
G36*
X38100Y33817D02*
X37697Y33778D01*
X37309Y33660D01*
X36951Y33469D01*
X36638Y33212D01*
X36381Y32899D01*
X36190Y32541D01*
X36072Y32153D01*
X36033Y31750D01*
X36072Y31347D01*
X36190Y30959D01*
X36381Y30601D01*
X36638Y30288D01*
X36951Y30031D01*
X37309Y29840D01*
X37697Y29722D01*
X38100Y29683D01*
X38503Y29722D01*
X38891Y29840D01*
X39249Y30031D01*
X39562Y30288D01*
X39819Y30601D01*
X40010Y30959D01*
X40128Y31347D01*
X40167Y31750D01*
X40128Y32153D01*
X40010Y32541D01*
X39819Y32899D01*
X39562Y33212D01*
X39249Y33469D01*
X38891Y33660D01*
X38503Y33778D01*
X38100Y33817D01*
D02*
G37*
G36*
X35052Y30262D02*
X34844Y30220D01*
X34667Y30103D01*
X34550Y29926D01*
X34508Y29718D01*
X34550Y29510D01*
X34667Y29333D01*
X34844Y29216D01*
X35052Y29174D01*
X35260Y29216D01*
X35437Y29333D01*
X35554Y29510D01*
X35596Y29718D01*
X35554Y29926D01*
X35437Y30103D01*
X35260Y30220D01*
X35052Y30262D01*
D02*
G37*
G36*
X38354Y26922D02*
Y24892D01*
X40384D01*
X40355Y25188D01*
X40231Y25595D01*
X40031Y25970D01*
X39761Y26299D01*
X39432Y26569D01*
X39057Y26769D01*
X38650Y26893D01*
X38354Y26922D01*
D02*
G37*
G36*
X2413Y25817D02*
X2205Y25775D01*
X2028Y25658D01*
X1911Y25481D01*
X1909Y25473D01*
X1639Y25419D01*
X1601Y25477D01*
X1391Y25617D01*
X1270Y25641D01*
Y25019D01*
Y24397D01*
X1391Y24421D01*
X1601Y24561D01*
X1741Y24771D01*
X1755Y24841D01*
X2025Y24894D01*
X2028Y24888D01*
X2205Y24771D01*
X2413Y24729D01*
X2621Y24771D01*
X2798Y24888D01*
X2915Y25065D01*
X2957Y25273D01*
X2915Y25481D01*
X2798Y25658D01*
X2621Y25775D01*
X2413Y25817D01*
D02*
G37*
G36*
X35941Y28738D02*
X35733Y28696D01*
X35556Y28579D01*
X35439Y28402D01*
X35397Y28194D01*
X35439Y27986D01*
X35556Y27809D01*
X35733Y27692D01*
X35941Y27650D01*
X36149Y27692D01*
X36326Y27809D01*
X36443Y27986D01*
X36485Y28194D01*
X36443Y28402D01*
X36326Y28579D01*
X36149Y28696D01*
X35941Y28738D01*
D02*
G37*
G36*
X33147Y32802D02*
X32939Y32760D01*
X32762Y32643D01*
X32645Y32466D01*
X32603Y32258D01*
X32645Y32050D01*
X32762Y31873D01*
X32939Y31756D01*
X33147Y31714D01*
X33355Y31756D01*
X33532Y31873D01*
X33649Y32050D01*
X33691Y32258D01*
X33649Y32466D01*
X33532Y32643D01*
X33355Y32760D01*
X33147Y32802D01*
D02*
G37*
G36*
X7112Y6512D02*
X6709Y6473D01*
X6321Y6355D01*
X5963Y6164D01*
X5650Y5907D01*
X5393Y5594D01*
X5202Y5236D01*
X5084Y4848D01*
X5045Y4445D01*
X5084Y4042D01*
X5202Y3654D01*
X5393Y3296D01*
X5650Y2983D01*
X5963Y2726D01*
X6321Y2535D01*
X6709Y2417D01*
X7112Y2378D01*
X7515Y2417D01*
X7903Y2535D01*
X8261Y2726D01*
X8574Y2983D01*
X8831Y3296D01*
X9022Y3654D01*
X9140Y4042D01*
X9179Y4445D01*
X9140Y4848D01*
X9022Y5236D01*
X8831Y5594D01*
X8574Y5907D01*
X8261Y6164D01*
X7903Y6355D01*
X7515Y6473D01*
X7112Y6512D01*
D02*
G37*
G36*
X2667Y6502D02*
X2264Y6463D01*
X1876Y6345D01*
X1518Y6154D01*
X1205Y5897D01*
X948Y5584D01*
X757Y5226D01*
X639Y4838D01*
X600Y4435D01*
X639Y4032D01*
X757Y3644D01*
X948Y3286D01*
X1205Y2973D01*
X1518Y2716D01*
X1876Y2525D01*
X2264Y2407D01*
X2667Y2368D01*
X3070Y2407D01*
X3458Y2525D01*
X3816Y2716D01*
X4129Y2973D01*
X4386Y3286D01*
X4577Y3644D01*
X4695Y4032D01*
X4734Y4435D01*
X4695Y4838D01*
X4577Y5226D01*
X4386Y5584D01*
X4129Y5897D01*
X3816Y6154D01*
X3458Y6345D01*
X3070Y6463D01*
X2667Y6502D01*
D02*
G37*
G36*
X33909Y31659D02*
X33701Y31617D01*
X33524Y31500D01*
X33407Y31323D01*
X33365Y31115D01*
X33407Y30907D01*
X33524Y30730D01*
X33701Y30613D01*
X33909Y30571D01*
X34117Y30613D01*
X34294Y30730D01*
X34411Y30907D01*
X34453Y31115D01*
X34411Y31323D01*
X34294Y31500D01*
X34117Y31617D01*
X33909Y31659D01*
D02*
G37*
G36*
X16002Y6512D02*
X15599Y6473D01*
X15211Y6355D01*
X14853Y6164D01*
X14540Y5907D01*
X14283Y5594D01*
X14092Y5236D01*
X13974Y4848D01*
X13935Y4445D01*
X13974Y4042D01*
X14092Y3654D01*
X14283Y3296D01*
X14540Y2983D01*
X14853Y2726D01*
X15211Y2535D01*
X15599Y2417D01*
X16002Y2378D01*
X16405Y2417D01*
X16793Y2535D01*
X17151Y2726D01*
X17464Y2983D01*
X17721Y3296D01*
X17912Y3654D01*
X18030Y4042D01*
X18069Y4445D01*
X18030Y4848D01*
X17912Y5236D01*
X17721Y5594D01*
X17464Y5907D01*
X17151Y6164D01*
X16793Y6355D01*
X16405Y6473D01*
X16002Y6512D01*
D02*
G37*
G36*
X11557D02*
X11154Y6473D01*
X10766Y6355D01*
X10408Y6164D01*
X10095Y5907D01*
X9838Y5594D01*
X9647Y5236D01*
X9529Y4848D01*
X9490Y4445D01*
X9529Y4042D01*
X9647Y3654D01*
X9838Y3296D01*
X10095Y2983D01*
X10408Y2726D01*
X10766Y2535D01*
X11154Y2417D01*
X11557Y2378D01*
X11960Y2417D01*
X12348Y2535D01*
X12706Y2726D01*
X13019Y2983D01*
X13276Y3296D01*
X13467Y3654D01*
X13585Y4042D01*
X13624Y4445D01*
X13585Y4848D01*
X13467Y5236D01*
X13276Y5594D01*
X13019Y5907D01*
X12706Y6164D01*
X12348Y6355D01*
X11960Y6473D01*
X11557Y6512D01*
D02*
G37*
G36*
X14351Y13392D02*
X14163Y13367D01*
X13870Y13246D01*
X13618Y13052D01*
X13424Y12800D01*
X13303Y12507D01*
X13285Y12373D01*
X13029D01*
X13014Y12480D01*
X12903Y12749D01*
X12726Y12980D01*
X12495Y13157D01*
X12226Y13268D01*
X11938Y13306D01*
X11650Y13268D01*
X11381Y13157D01*
X11150Y12980D01*
X10973Y12749D01*
X10862Y12480D01*
X10824Y12192D01*
X10862Y11904D01*
X10973Y11635D01*
X11150Y11404D01*
X11381Y11227D01*
X11650Y11116D01*
X11938Y11078D01*
X12226Y11116D01*
X12495Y11227D01*
X12726Y11404D01*
X12903Y11635D01*
X13014Y11904D01*
X13029Y12011D01*
X13285D01*
X13303Y11877D01*
X13424Y11584D01*
X13618Y11332D01*
X13870Y11138D01*
X14163Y11017D01*
X14351Y10992D01*
Y12192D01*
Y13392D01*
D02*
G37*
G36*
X38227Y19847D02*
X37824Y19808D01*
X37436Y19690D01*
X37078Y19499D01*
X36765Y19242D01*
X36508Y18929D01*
X36317Y18571D01*
X36199Y18183D01*
X36160Y17780D01*
X36199Y17377D01*
X36317Y16989D01*
X36508Y16631D01*
X36765Y16318D01*
X37078Y16061D01*
X37436Y15870D01*
X37824Y15752D01*
X38227Y15713D01*
X38630Y15752D01*
X39018Y15870D01*
X39376Y16061D01*
X39689Y16318D01*
X39946Y16631D01*
X40137Y16989D01*
X40255Y17377D01*
X40294Y17780D01*
X40255Y18183D01*
X40137Y18571D01*
X39946Y18929D01*
X39689Y19242D01*
X39376Y19499D01*
X39018Y19690D01*
X38630Y19808D01*
X38227Y19847D01*
D02*
G37*
G36*
X40894Y21753D02*
X40686Y21711D01*
X40509Y21594D01*
X40392Y21417D01*
X40350Y21209D01*
X40392Y21001D01*
X40509Y20824D01*
X40686Y20707D01*
X40894Y20665D01*
X41102Y20707D01*
X41279Y20824D01*
X41396Y21001D01*
X41438Y21209D01*
X41396Y21417D01*
X41279Y21594D01*
X41102Y21711D01*
X40894Y21753D01*
D02*
G37*
G36*
X38227Y10957D02*
X37824Y10918D01*
X37436Y10800D01*
X37078Y10609D01*
X36765Y10352D01*
X36508Y10039D01*
X36317Y9681D01*
X36199Y9293D01*
X36160Y8890D01*
X36199Y8487D01*
X36317Y8099D01*
X36508Y7741D01*
X36765Y7428D01*
X37078Y7171D01*
X37436Y6980D01*
X37824Y6862D01*
X38227Y6823D01*
X38630Y6862D01*
X39018Y6980D01*
X39376Y7171D01*
X39689Y7428D01*
X39946Y7741D01*
X40137Y8099D01*
X40255Y8487D01*
X40294Y8890D01*
X40255Y9293D01*
X40137Y9681D01*
X39946Y10039D01*
X39689Y10352D01*
X39376Y10609D01*
X39018Y10800D01*
X38630Y10918D01*
X38227Y10957D01*
D02*
G37*
G36*
Y15402D02*
X37824Y15363D01*
X37436Y15245D01*
X37078Y15054D01*
X36765Y14797D01*
X36508Y14484D01*
X36317Y14126D01*
X36199Y13738D01*
X36160Y13335D01*
X36199Y12932D01*
X36317Y12544D01*
X36508Y12186D01*
X36765Y11873D01*
X37078Y11616D01*
X37436Y11425D01*
X37824Y11307D01*
X38227Y11268D01*
X38630Y11307D01*
X39018Y11425D01*
X39376Y11616D01*
X39689Y11873D01*
X39946Y12186D01*
X40137Y12544D01*
X40255Y12932D01*
X40294Y13335D01*
X40255Y13738D01*
X40137Y14126D01*
X39946Y14484D01*
X39689Y14797D01*
X39376Y15054D01*
X39018Y15245D01*
X38630Y15363D01*
X38227Y15402D01*
D02*
G37*
G36*
X1651Y12806D02*
X1416Y12759D01*
X1217Y12626D01*
X1084Y12427D01*
X1037Y12192D01*
X1084Y11957D01*
X1217Y11758D01*
X1416Y11625D01*
X1651Y11578D01*
X1886Y11625D01*
X2085Y11758D01*
X2218Y11957D01*
X2265Y12192D01*
X2218Y12427D01*
X2085Y12626D01*
X1886Y12759D01*
X1651Y12806D01*
D02*
G37*
G36*
X29337Y6512D02*
X28934Y6473D01*
X28546Y6355D01*
X28188Y6164D01*
X27875Y5907D01*
X27618Y5594D01*
X27427Y5236D01*
X27309Y4848D01*
X27270Y4445D01*
X27309Y4042D01*
X27427Y3654D01*
X27618Y3296D01*
X27875Y2983D01*
X28188Y2726D01*
X28546Y2535D01*
X28934Y2417D01*
X29337Y2378D01*
X29740Y2417D01*
X30128Y2535D01*
X30486Y2726D01*
X30799Y2983D01*
X31056Y3296D01*
X31247Y3654D01*
X31365Y4042D01*
X31404Y4445D01*
X31365Y4848D01*
X31247Y5236D01*
X31056Y5594D01*
X30799Y5907D01*
X30486Y6164D01*
X30128Y6355D01*
X29740Y6473D01*
X29337Y6512D01*
D02*
G37*
G36*
X24892D02*
X24489Y6473D01*
X24101Y6355D01*
X23743Y6164D01*
X23430Y5907D01*
X23173Y5594D01*
X22982Y5236D01*
X22864Y4848D01*
X22825Y4445D01*
X22864Y4042D01*
X22982Y3654D01*
X23173Y3296D01*
X23430Y2983D01*
X23743Y2726D01*
X24101Y2535D01*
X24489Y2417D01*
X24892Y2378D01*
X25295Y2417D01*
X25683Y2535D01*
X26041Y2726D01*
X26354Y2983D01*
X26611Y3296D01*
X26802Y3654D01*
X26920Y4042D01*
X26959Y4445D01*
X26920Y4848D01*
X26802Y5236D01*
X26611Y5594D01*
X26354Y5907D01*
X26041Y6164D01*
X25683Y6355D01*
X25295Y6473D01*
X24892Y6512D01*
D02*
G37*
G36*
X38100Y26922D02*
X37804Y26893D01*
X37397Y26769D01*
X37022Y26569D01*
X36693Y26299D01*
X36423Y25970D01*
X36223Y25595D01*
X36099Y25188D01*
X36070Y24892D01*
X38100D01*
Y26922D01*
D02*
G37*
G36*
X40384Y24638D02*
X38354D01*
Y22608D01*
X38650Y22637D01*
X39057Y22761D01*
X39432Y22961D01*
X39761Y23231D01*
X40031Y23560D01*
X40231Y23935D01*
X40355Y24342D01*
X40384Y24638D01*
D02*
G37*
G36*
X38227Y6512D02*
X37824Y6473D01*
X37436Y6355D01*
X37078Y6164D01*
X36765Y5907D01*
X36508Y5594D01*
X36317Y5236D01*
X36199Y4848D01*
X36160Y4445D01*
X36199Y4042D01*
X36317Y3654D01*
X36508Y3296D01*
X36765Y2983D01*
X37078Y2726D01*
X37436Y2535D01*
X37824Y2417D01*
X38227Y2378D01*
X38630Y2417D01*
X39018Y2535D01*
X39376Y2726D01*
X39689Y2983D01*
X39946Y3296D01*
X40137Y3654D01*
X40255Y4042D01*
X40294Y4445D01*
X40255Y4848D01*
X40137Y5236D01*
X39946Y5594D01*
X39689Y5907D01*
X39376Y6164D01*
X39018Y6355D01*
X38630Y6473D01*
X38227Y6512D01*
D02*
G37*
G36*
X33782D02*
X33379Y6473D01*
X32991Y6355D01*
X32633Y6164D01*
X32320Y5907D01*
X32063Y5594D01*
X31872Y5236D01*
X31754Y4848D01*
X31715Y4445D01*
X31754Y4042D01*
X31872Y3654D01*
X32063Y3296D01*
X32320Y2983D01*
X32633Y2726D01*
X32991Y2535D01*
X33379Y2417D01*
X33782Y2378D01*
X34185Y2417D01*
X34573Y2535D01*
X34931Y2726D01*
X35244Y2983D01*
X35501Y3296D01*
X35692Y3654D01*
X35810Y4042D01*
X35849Y4445D01*
X35810Y4848D01*
X35692Y5236D01*
X35501Y5594D01*
X35244Y5907D01*
X34931Y6164D01*
X34573Y6355D01*
X34185Y6473D01*
X33782Y6512D01*
D02*
G37*
G36*
X3028Y34740D02*
X1224D01*
Y32936D01*
X3028D01*
Y34740D01*
D02*
G37*
G36*
X4318Y41770D02*
Y41275D01*
X4813D01*
X4789Y41396D01*
X4649Y41606D01*
X4439Y41746D01*
X4318Y41770D01*
D02*
G37*
G36*
X2667Y47152D02*
X2264Y47113D01*
X1876Y46995D01*
X1518Y46804D01*
X1205Y46547D01*
X948Y46234D01*
X757Y45876D01*
X639Y45488D01*
X600Y45085D01*
X639Y44682D01*
X757Y44294D01*
X948Y43936D01*
X1205Y43623D01*
X1518Y43366D01*
X1876Y43175D01*
X2264Y43057D01*
X2667Y43018D01*
X3070Y43057D01*
X3458Y43175D01*
X3816Y43366D01*
X4129Y43623D01*
X4386Y43936D01*
X4577Y44294D01*
X4695Y44682D01*
X4734Y45085D01*
X4695Y45488D01*
X4577Y45876D01*
X4386Y46234D01*
X4129Y46547D01*
X3816Y46804D01*
X3458Y46995D01*
X3070Y47113D01*
X2667Y47152D01*
D02*
G37*
G36*
X7112D02*
X6709Y47113D01*
X6321Y46995D01*
X5963Y46804D01*
X5650Y46547D01*
X5393Y46234D01*
X5202Y45876D01*
X5084Y45488D01*
X5045Y45085D01*
X5084Y44682D01*
X5202Y44294D01*
X5393Y43936D01*
X5650Y43623D01*
X5963Y43366D01*
X6321Y43175D01*
X6709Y43057D01*
X7112Y43018D01*
X7515Y43057D01*
X7903Y43175D01*
X8261Y43366D01*
X8574Y43623D01*
X8831Y43936D01*
X9022Y44294D01*
X9140Y44682D01*
X9179Y45085D01*
X9140Y45488D01*
X9022Y45876D01*
X8831Y46234D01*
X8574Y46547D01*
X8261Y46804D01*
X7903Y46995D01*
X7515Y47113D01*
X7112Y47152D01*
D02*
G37*
G36*
X22860Y40295D02*
X22652Y40253D01*
X22475Y40136D01*
X22358Y39959D01*
X22316Y39751D01*
X22323Y39715D01*
X22162Y39616D01*
X22088Y39594D01*
X21931Y39700D01*
X21723Y39741D01*
X21514Y39700D01*
X21338Y39582D01*
X21220Y39405D01*
X21179Y39197D01*
X21220Y38989D01*
X21338Y38813D01*
X21514Y38695D01*
X21642Y38669D01*
X21733Y38630D01*
X21831Y38416D01*
X21821Y38367D01*
X21862Y38159D01*
X21980Y37982D01*
X22157Y37864D01*
X22365Y37823D01*
X22463Y37842D01*
X22562Y37790D01*
X22629Y37509D01*
X22361Y37242D01*
X19174D01*
X18903Y37514D01*
X18978Y37797D01*
X19127Y37896D01*
X19267Y38106D01*
X19291Y38227D01*
X18669D01*
Y38354D01*
X18542D01*
Y38976D01*
X18421Y38952D01*
X18211Y38812D01*
X18071Y38602D01*
X17913Y38385D01*
X17913Y38385D01*
X15234D01*
X15234Y38385D01*
X15125Y38363D01*
X15032Y38301D01*
X15032Y38301D01*
X13718Y36987D01*
X13656Y36895D01*
X13634Y36786D01*
X13634Y36786D01*
Y33826D01*
X13634Y33826D01*
X13656Y33717D01*
X13718Y33625D01*
X15666Y31676D01*
Y20304D01*
X15666Y20304D01*
X15688Y20195D01*
X15750Y20103D01*
X16860Y18992D01*
Y18231D01*
X16760Y18165D01*
X16643Y17988D01*
X16601Y17780D01*
X16643Y17572D01*
X16721Y17454D01*
X16563Y17252D01*
X9722D01*
X9722Y17252D01*
X9613Y17230D01*
X9520Y17169D01*
X9520Y17169D01*
X6733Y14381D01*
X6671Y14289D01*
X6649Y14180D01*
X6649Y14180D01*
Y10585D01*
X6649Y10585D01*
X6671Y10476D01*
X6733Y10384D01*
X8072Y9044D01*
X8072Y9044D01*
X8165Y8982D01*
X8274Y8961D01*
X8274Y8961D01*
X22774D01*
X22774Y8961D01*
X22883Y8982D01*
X22976Y9044D01*
X25458Y11526D01*
X32258D01*
X32258Y11526D01*
X32367Y11548D01*
X32459Y11610D01*
X33475Y12626D01*
X33475Y12626D01*
X33537Y12718D01*
X33559Y12827D01*
Y12884D01*
X33659Y12950D01*
X33776Y13127D01*
X33818Y13335D01*
X33776Y13543D01*
X33659Y13720D01*
X33482Y13837D01*
X33274Y13879D01*
X33066Y13837D01*
X33018Y13805D01*
X32829Y13740D01*
X32641Y13805D01*
X32593Y13837D01*
X32385Y13879D01*
X32276Y13857D01*
X32165Y13851D01*
X32003Y14027D01*
X31998Y14051D01*
X31881Y14228D01*
X31704Y14345D01*
X31496Y14387D01*
X31363Y14360D01*
X31361Y14360D01*
X31242Y14595D01*
X31246Y14601D01*
X31261Y14625D01*
X31363Y14778D01*
X31405Y14986D01*
X31363Y15194D01*
X31246Y15371D01*
X31069Y15488D01*
X30861Y15530D01*
X30653Y15488D01*
X30476Y15371D01*
X30359Y15194D01*
X30317Y14986D01*
X30359Y14778D01*
X30476Y14601D01*
X30653Y14484D01*
X30861Y14442D01*
X30887Y14447D01*
X31033Y14217D01*
X30967Y14128D01*
X25908D01*
X25908Y14128D01*
X25799Y14106D01*
X25707Y14044D01*
X23367Y11705D01*
X23152Y11849D01*
X23174Y11904D01*
X23212Y12192D01*
X23174Y12480D01*
X23063Y12749D01*
X22886Y12980D01*
X22655Y13157D01*
X22386Y13268D01*
X22098Y13306D01*
X21810Y13268D01*
X21541Y13157D01*
X21310Y12980D01*
X21133Y12749D01*
X21022Y12480D01*
X20984Y12192D01*
X21022Y11904D01*
X21133Y11635D01*
X21310Y11404D01*
X21541Y11227D01*
X21810Y11116D01*
X22098Y11078D01*
X22386Y11116D01*
X22441Y11138D01*
X22585Y10923D01*
X22234Y10572D01*
X8500D01*
X8261Y10811D01*
X8258Y10869D01*
X8449Y11087D01*
X8526Y11087D01*
X10503D01*
Y13297D01*
X9683D01*
Y14360D01*
X10786Y15463D01*
X17114D01*
X17219Y15209D01*
X16817Y14806D01*
X16755Y14714D01*
X16733Y14605D01*
X16733Y14605D01*
Y13269D01*
X16730Y13268D01*
X16461Y13157D01*
X16230Y12980D01*
X16053Y12749D01*
X15942Y12480D01*
X15927Y12373D01*
X15671D01*
X15653Y12507D01*
X15532Y12800D01*
X15338Y13052D01*
X15086Y13246D01*
X14793Y13367D01*
X14605Y13392D01*
Y12192D01*
Y10992D01*
X14793Y11017D01*
X15086Y11138D01*
X15338Y11332D01*
X15532Y11584D01*
X15653Y11877D01*
X15671Y12011D01*
X15927D01*
X15942Y11904D01*
X16053Y11635D01*
X16230Y11404D01*
X16461Y11227D01*
X16730Y11116D01*
X17018Y11078D01*
X17306Y11116D01*
X17575Y11227D01*
X17806Y11404D01*
X17983Y11635D01*
X18094Y11904D01*
X18132Y12192D01*
X18094Y12480D01*
X17983Y12749D01*
X17806Y12980D01*
X17575Y13157D01*
X17306Y13268D01*
X17303Y13269D01*
Y14487D01*
X17771Y14955D01*
X19300D01*
X19398Y14720D01*
X19357Y14679D01*
X19295Y14587D01*
X19273Y14478D01*
X19273Y14478D01*
Y13269D01*
X19270Y13268D01*
X19001Y13157D01*
X18770Y12980D01*
X18593Y12749D01*
X18482Y12480D01*
X18444Y12192D01*
X18482Y11904D01*
X18593Y11635D01*
X18770Y11404D01*
X19001Y11227D01*
X19270Y11116D01*
X19558Y11078D01*
X19846Y11116D01*
X20115Y11227D01*
X20346Y11404D01*
X20523Y11635D01*
X20634Y11904D01*
X20672Y12192D01*
X20634Y12480D01*
X20523Y12749D01*
X20346Y12980D01*
X20115Y13157D01*
X19846Y13268D01*
X19843Y13269D01*
Y14360D01*
X21264Y15781D01*
X31051D01*
X31052Y15781D01*
X31161Y15802D01*
X31253Y15864D01*
X31697Y16309D01*
X31697Y16309D01*
X31759Y16401D01*
X31781Y16510D01*
Y17329D01*
X31881Y17395D01*
X31998Y17572D01*
X32040Y17780D01*
X31998Y17988D01*
X31988Y18003D01*
X32124Y18257D01*
X34036D01*
X34036Y18257D01*
X34145Y18279D01*
X34237Y18341D01*
X34467Y18570D01*
X34664Y18408D01*
X34662Y18405D01*
X34640Y18296D01*
X34640Y18296D01*
Y11421D01*
X34172Y10953D01*
X33725D01*
X33659Y11053D01*
X33482Y11170D01*
X33274Y11212D01*
X33066Y11170D01*
X33018Y11138D01*
X32829Y11073D01*
X32641Y11138D01*
X32593Y11170D01*
X32385Y11212D01*
X32177Y11170D01*
X32129Y11138D01*
X31941Y11073D01*
X31752Y11138D01*
X31704Y11170D01*
X31496Y11212D01*
X31288Y11170D01*
X31111Y11053D01*
X30994Y10876D01*
X30952Y10668D01*
X30994Y10460D01*
X31111Y10283D01*
X31288Y10166D01*
X31496Y10124D01*
X31704Y10166D01*
X31752Y10198D01*
X31941Y10263D01*
X32129Y10198D01*
X32177Y10166D01*
X32385Y10124D01*
X32593Y10166D01*
X32641Y10198D01*
X32829Y10263D01*
X33018Y10198D01*
X33066Y10166D01*
X33274Y10124D01*
X33482Y10166D01*
X33659Y10283D01*
X33725Y10383D01*
X34290D01*
X34290Y10383D01*
X34399Y10405D01*
X34491Y10467D01*
X35126Y11102D01*
X35126Y11102D01*
X35188Y11194D01*
X35210Y11303D01*
Y18178D01*
X37158Y20126D01*
X37158Y20126D01*
X37220Y20219D01*
X37242Y20328D01*
X37242Y20328D01*
Y22225D01*
X37242Y22225D01*
X37220Y22334D01*
X37158Y22426D01*
X37158Y22426D01*
X36635Y22950D01*
X36805Y23139D01*
X37022Y22961D01*
X37397Y22761D01*
X37804Y22637D01*
X38100Y22608D01*
Y24638D01*
X36070D01*
X36099Y24342D01*
X36223Y23935D01*
X36423Y23560D01*
X36601Y23343D01*
X36412Y23173D01*
X31527Y28058D01*
Y32696D01*
X31627Y32762D01*
X31744Y32939D01*
X31786Y33147D01*
X31744Y33355D01*
X31627Y33532D01*
X31567Y33571D01*
Y33866D01*
X31627Y33905D01*
X31744Y34082D01*
X31749Y34104D01*
X32019Y34158D01*
X32051Y34109D01*
X32228Y33991D01*
X32436Y33949D01*
X32644Y33991D01*
X32820Y34109D01*
X32938Y34285D01*
X32980Y34493D01*
X32938Y34701D01*
X32820Y34878D01*
X32644Y34996D01*
X32436Y35037D01*
X32228Y34996D01*
X32051Y34878D01*
X31933Y34701D01*
X31929Y34679D01*
X31659Y34626D01*
X31627Y34675D01*
X31450Y34792D01*
X31242Y34834D01*
X31034Y34792D01*
X30857Y34675D01*
X30791Y34575D01*
X23867D01*
X23294Y35148D01*
X23399Y35402D01*
X24250D01*
X24317Y35302D01*
X24493Y35185D01*
X24701Y35143D01*
X24910Y35185D01*
X25086Y35302D01*
X25204Y35479D01*
X25245Y35687D01*
X25204Y35895D01*
X25086Y36072D01*
X24910Y36189D01*
X24701Y36231D01*
X24624Y36215D01*
X24472Y36444D01*
X24505Y36495D01*
X24547Y36703D01*
X24505Y36911D01*
X24388Y37088D01*
X24211Y37205D01*
X24003Y37247D01*
X23853Y37217D01*
X23715Y37364D01*
X23685Y37423D01*
X23743Y37511D01*
X23785Y37719D01*
X23743Y37927D01*
X23626Y38104D01*
X23449Y38221D01*
X23241Y38263D01*
X23143Y38243D01*
X22954Y38343D01*
X22895Y38433D01*
X22867Y38575D01*
X22749Y38751D01*
X22573Y38869D01*
X22445Y38894D01*
X22354Y38934D01*
X22257Y39148D01*
X22266Y39197D01*
X22259Y39233D01*
X22420Y39332D01*
X22494Y39354D01*
X22652Y39249D01*
X22860Y39207D01*
X23068Y39249D01*
X23245Y39366D01*
X23362Y39543D01*
X23404Y39751D01*
X23362Y39959D01*
X23245Y40136D01*
X23068Y40253D01*
X22860Y40295D01*
D02*
G37*
G36*
X3028Y41740D02*
X1224D01*
Y39936D01*
X3028D01*
Y41740D01*
D02*
G37*
G36*
X4064Y41770D02*
X3943Y41746D01*
X3733Y41606D01*
X3593Y41396D01*
X3569Y41275D01*
X4064D01*
Y41770D01*
D02*
G37*
G36*
X11557Y47152D02*
X11154Y47113D01*
X10766Y46995D01*
X10408Y46804D01*
X10095Y46547D01*
X9838Y46234D01*
X9647Y45876D01*
X9529Y45488D01*
X9490Y45085D01*
X9529Y44682D01*
X9647Y44294D01*
X9838Y43936D01*
X10095Y43623D01*
X10408Y43366D01*
X10766Y43175D01*
X11154Y43057D01*
X11557Y43018D01*
X11960Y43057D01*
X12348Y43175D01*
X12706Y43366D01*
X13019Y43623D01*
X13276Y43936D01*
X13467Y44294D01*
X13585Y44682D01*
X13624Y45085D01*
X13585Y45488D01*
X13467Y45876D01*
X13276Y46234D01*
X13019Y46547D01*
X12706Y46804D01*
X12348Y46995D01*
X11960Y47113D01*
X11557Y47152D01*
D02*
G37*
G36*
X29337D02*
X28934Y47113D01*
X28546Y46995D01*
X28188Y46804D01*
X27875Y46547D01*
X27618Y46234D01*
X27427Y45876D01*
X27309Y45488D01*
X27270Y45085D01*
X27309Y44682D01*
X27427Y44294D01*
X27618Y43936D01*
X27875Y43623D01*
X28188Y43366D01*
X28546Y43175D01*
X28934Y43057D01*
X29337Y43018D01*
X29740Y43057D01*
X30128Y43175D01*
X30486Y43366D01*
X30799Y43623D01*
X31056Y43936D01*
X31247Y44294D01*
X31365Y44682D01*
X31404Y45085D01*
X31365Y45488D01*
X31247Y45876D01*
X31056Y46234D01*
X30799Y46547D01*
X30486Y46804D01*
X30128Y46995D01*
X29740Y47113D01*
X29337Y47152D01*
D02*
G37*
G36*
X33782D02*
X33379Y47113D01*
X32991Y46995D01*
X32633Y46804D01*
X32320Y46547D01*
X32063Y46234D01*
X31872Y45876D01*
X31754Y45488D01*
X31715Y45085D01*
X31754Y44682D01*
X31872Y44294D01*
X32063Y43936D01*
X32320Y43623D01*
X32633Y43366D01*
X32991Y43175D01*
X33379Y43057D01*
X33782Y43018D01*
X34185Y43057D01*
X34573Y43175D01*
X34931Y43366D01*
X35244Y43623D01*
X35501Y43936D01*
X35692Y44294D01*
X35810Y44682D01*
X35849Y45085D01*
X35810Y45488D01*
X35692Y45876D01*
X35501Y46234D01*
X35244Y46547D01*
X34931Y46804D01*
X34573Y46995D01*
X34185Y47113D01*
X33782Y47152D01*
D02*
G37*
G36*
X38227D02*
X37824Y47113D01*
X37436Y46995D01*
X37078Y46804D01*
X36765Y46547D01*
X36508Y46234D01*
X36317Y45876D01*
X36199Y45488D01*
X36160Y45085D01*
X36199Y44682D01*
X36317Y44294D01*
X36508Y43936D01*
X36765Y43623D01*
X37078Y43366D01*
X37436Y43175D01*
X37824Y43057D01*
X38227Y43018D01*
X38630Y43057D01*
X39018Y43175D01*
X39376Y43366D01*
X39689Y43623D01*
X39946Y43936D01*
X40137Y44294D01*
X40255Y44682D01*
X40294Y45085D01*
X40255Y45488D01*
X40137Y45876D01*
X39946Y46234D01*
X39689Y46547D01*
X39376Y46804D01*
X39018Y46995D01*
X38630Y47113D01*
X38227Y47152D01*
D02*
G37*
G36*
X16002D02*
X15599Y47113D01*
X15211Y46995D01*
X14853Y46804D01*
X14540Y46547D01*
X14283Y46234D01*
X14092Y45876D01*
X13974Y45488D01*
X13935Y45085D01*
X13974Y44682D01*
X14092Y44294D01*
X14283Y43936D01*
X14540Y43623D01*
X14853Y43366D01*
X15211Y43175D01*
X15599Y43057D01*
X16002Y43018D01*
X16405Y43057D01*
X16793Y43175D01*
X17151Y43366D01*
X17464Y43623D01*
X17721Y43936D01*
X17912Y44294D01*
X18030Y44682D01*
X18069Y45085D01*
X18030Y45488D01*
X17912Y45876D01*
X17721Y46234D01*
X17464Y46547D01*
X17151Y46804D01*
X16793Y46995D01*
X16405Y47113D01*
X16002Y47152D01*
D02*
G37*
G36*
X20447D02*
X20044Y47113D01*
X19656Y46995D01*
X19298Y46804D01*
X18985Y46547D01*
X18728Y46234D01*
X18537Y45876D01*
X18419Y45488D01*
X18380Y45085D01*
X18419Y44682D01*
X18537Y44294D01*
X18728Y43936D01*
X18985Y43623D01*
X19298Y43366D01*
X19656Y43175D01*
X20044Y43057D01*
X20447Y43018D01*
X20850Y43057D01*
X21238Y43175D01*
X21596Y43366D01*
X21909Y43623D01*
X22166Y43936D01*
X22357Y44294D01*
X22475Y44682D01*
X22514Y45085D01*
X22475Y45488D01*
X22357Y45876D01*
X22166Y46234D01*
X21909Y46547D01*
X21596Y46804D01*
X21238Y46995D01*
X20850Y47113D01*
X20447Y47152D01*
D02*
G37*
G36*
X24892D02*
X24489Y47113D01*
X24101Y46995D01*
X23743Y46804D01*
X23430Y46547D01*
X23173Y46234D01*
X22982Y45876D01*
X22864Y45488D01*
X22825Y45085D01*
X22864Y44682D01*
X22982Y44294D01*
X23173Y43936D01*
X23430Y43623D01*
X23743Y43366D01*
X24101Y43175D01*
X24489Y43057D01*
X24892Y43018D01*
X25295Y43057D01*
X25683Y43175D01*
X26041Y43366D01*
X26354Y43623D01*
X26611Y43936D01*
X26802Y44294D01*
X26920Y44682D01*
X26959Y45085D01*
X26920Y45488D01*
X26802Y45876D01*
X26611Y46234D01*
X26354Y46547D01*
X26041Y46804D01*
X25683Y46995D01*
X25295Y47113D01*
X24892Y47152D01*
D02*
G37*
G36*
X12700Y37465D02*
X12205D01*
X12229Y37344D01*
X12369Y37134D01*
X12579Y36994D01*
X12700Y36970D01*
Y37465D01*
D02*
G37*
G36*
X13449D02*
X12954D01*
Y36970D01*
X13075Y36994D01*
X13285Y37134D01*
X13425Y37344D01*
X13449Y37465D01*
D02*
G37*
G36*
X9906Y36866D02*
X9698Y36824D01*
X9521Y36707D01*
X9404Y36530D01*
X9362Y36322D01*
X9404Y36114D01*
X9521Y35937D01*
X9698Y35820D01*
X9906Y35778D01*
X10114Y35820D01*
X10291Y35937D01*
X10408Y36114D01*
X10450Y36322D01*
X10408Y36530D01*
X10291Y36707D01*
X10114Y36824D01*
X9906Y36866D01*
D02*
G37*
G36*
X35718Y34361D02*
X35510Y34320D01*
X35333Y34202D01*
X35215Y34025D01*
X35174Y33817D01*
X35215Y33609D01*
X35333Y33433D01*
X35510Y33315D01*
X35718Y33273D01*
X35926Y33315D01*
X36102Y33433D01*
X36220Y33609D01*
X36262Y33817D01*
X36220Y34025D01*
X36102Y34202D01*
X35926Y34320D01*
X35718Y34361D01*
D02*
G37*
G36*
X38100Y38262D02*
X37697Y38223D01*
X37309Y38105D01*
X36951Y37914D01*
X36638Y37657D01*
X36381Y37344D01*
X36190Y36986D01*
X36072Y36598D01*
X36033Y36195D01*
X36072Y35792D01*
X36190Y35404D01*
X36381Y35046D01*
X36638Y34733D01*
X36951Y34476D01*
X37309Y34285D01*
X37697Y34167D01*
X38100Y34128D01*
X38503Y34167D01*
X38891Y34285D01*
X39249Y34476D01*
X39562Y34733D01*
X39819Y35046D01*
X40010Y35404D01*
X40128Y35792D01*
X40167Y36195D01*
X40128Y36598D01*
X40010Y36986D01*
X39819Y37344D01*
X39562Y37657D01*
X39249Y37914D01*
X38891Y38105D01*
X38503Y38223D01*
X38100Y38262D01*
D02*
G37*
G36*
X12700Y38214D02*
X12579Y38190D01*
X12369Y38050D01*
X12229Y37840D01*
X12205Y37719D01*
X12700D01*
Y38214D01*
D02*
G37*
G36*
X16764Y40041D02*
X16556Y39999D01*
X16379Y39882D01*
X16262Y39705D01*
X16220Y39497D01*
X16262Y39289D01*
X16379Y39112D01*
X16556Y38995D01*
X16764Y38953D01*
X16972Y38995D01*
X17149Y39112D01*
X17266Y39289D01*
X17308Y39497D01*
X17266Y39705D01*
X17149Y39882D01*
X16972Y39999D01*
X16764Y40041D01*
D02*
G37*
G36*
X38100Y42707D02*
X37697Y42668D01*
X37309Y42550D01*
X36951Y42359D01*
X36638Y42102D01*
X36381Y41789D01*
X36190Y41431D01*
X36072Y41043D01*
X36033Y40640D01*
X36072Y40237D01*
X36190Y39849D01*
X36381Y39491D01*
X36638Y39178D01*
X36951Y38921D01*
X37309Y38730D01*
X37697Y38612D01*
X38100Y38573D01*
X38503Y38612D01*
X38891Y38730D01*
X39249Y38921D01*
X39562Y39178D01*
X39819Y39491D01*
X40010Y39849D01*
X40128Y40237D01*
X40167Y40640D01*
X40128Y41043D01*
X40010Y41431D01*
X39819Y41789D01*
X39562Y42102D01*
X39249Y42359D01*
X38891Y42550D01*
X38503Y42668D01*
X38100Y42707D01*
D02*
G37*
G36*
X18796Y38976D02*
Y38481D01*
X19291D01*
X19267Y38602D01*
X19127Y38812D01*
X18917Y38952D01*
X18796Y38976D01*
D02*
G37*
G36*
X12954Y38214D02*
Y37719D01*
X13449D01*
X13425Y37840D01*
X13285Y38050D01*
X13075Y38190D01*
X12954Y38214D01*
D02*
G37*
G36*
X4813Y41021D02*
X3569D01*
X3593Y40900D01*
X3733Y40690D01*
X3943Y40550D01*
X4049Y40529D01*
Y39061D01*
X5603D01*
Y40615D01*
X4904D01*
X4769Y40869D01*
X4789Y40900D01*
X4813Y41021D01*
D02*
G37*
%LPD*%
G36*
X29480Y18003D02*
X29470Y17988D01*
X29428Y17780D01*
X29470Y17572D01*
X29528Y17485D01*
X29206Y17163D01*
X22775D01*
X22610Y17399D01*
X21971D01*
Y17653D01*
X22593D01*
X22569Y17774D01*
X22429Y17984D01*
X22400Y18003D01*
X22477Y18257D01*
X29344D01*
X29480Y18003D01*
D02*
G37*
G36*
X18743Y35718D02*
X18638Y35464D01*
X17342D01*
X17276Y35564D01*
X17099Y35681D01*
X16891Y35723D01*
X16683Y35681D01*
X16506Y35564D01*
X16389Y35387D01*
X16347Y35179D01*
X16389Y34971D01*
X16506Y34794D01*
X16683Y34677D01*
X16891Y34635D01*
X17099Y34677D01*
X17276Y34794D01*
X17342Y34894D01*
X22742D01*
X23548Y34089D01*
X23548Y34089D01*
X23640Y34027D01*
X23749Y34005D01*
X23749Y34005D01*
X30791D01*
X30857Y33905D01*
X30917Y33866D01*
Y33571D01*
X30857Y33532D01*
X30740Y33355D01*
X30698Y33147D01*
X30699Y33144D01*
X30483Y32928D01*
X30480Y32929D01*
X30272Y32887D01*
X30095Y32770D01*
X29978Y32593D01*
X29936Y32385D01*
X29978Y32177D01*
X30095Y32000D01*
X30272Y31883D01*
X30480Y31841D01*
X30688Y31883D01*
X30703Y31893D01*
X30957Y31757D01*
Y27940D01*
X30957Y27940D01*
X30979Y27831D01*
X31041Y27739D01*
X36672Y22107D01*
Y21624D01*
X36579Y21592D01*
X36418Y21582D01*
X36326Y21721D01*
X36149Y21838D01*
X35941Y21880D01*
X35733Y21838D01*
X35556Y21721D01*
X35439Y21544D01*
X35397Y21336D01*
X35157Y21241D01*
X34971Y21203D01*
X34794Y21086D01*
X34677Y20909D01*
X34635Y20701D01*
X34677Y20493D01*
X34794Y20316D01*
X34971Y20199D01*
X35179Y20157D01*
X35387Y20199D01*
X35564Y20316D01*
X35681Y20493D01*
X35723Y20701D01*
X35963Y20796D01*
X36149Y20834D01*
X36326Y20951D01*
X36418Y21090D01*
X36579Y21080D01*
X36672Y21048D01*
Y20446D01*
X34875Y18649D01*
X34678Y18811D01*
X34680Y18814D01*
X34702Y18923D01*
X34702Y18923D01*
Y19107D01*
X34802Y19173D01*
X34919Y19350D01*
X34961Y19558D01*
X34919Y19766D01*
X34802Y19943D01*
X34625Y20060D01*
X34417Y20102D01*
X34209Y20060D01*
X34183Y20043D01*
X33903Y20147D01*
X33786Y20324D01*
X33609Y20441D01*
X33401Y20483D01*
X33193Y20441D01*
X33016Y20324D01*
X32950Y20224D01*
X26548D01*
X26482Y20337D01*
X26443Y20478D01*
X26537Y20620D01*
X26579Y20828D01*
X26537Y21036D01*
X26420Y21213D01*
X26243Y21330D01*
X26035Y21372D01*
X25827Y21330D01*
X25650Y21213D01*
X25533Y21036D01*
X25491Y20828D01*
X25514Y20714D01*
X25280Y20589D01*
X23399Y22470D01*
Y31877D01*
X23399Y31877D01*
X23377Y31986D01*
X23315Y32078D01*
X23315Y32078D01*
X21664Y33729D01*
X21572Y33791D01*
X21463Y33813D01*
X21463Y33813D01*
X16501D01*
X15652Y34662D01*
Y35950D01*
X15993Y36291D01*
X16440D01*
X16506Y36191D01*
X16683Y36074D01*
X16891Y36032D01*
X17099Y36074D01*
X17276Y36191D01*
X17393Y36368D01*
X17435Y36576D01*
X17412Y36690D01*
X17646Y36815D01*
X18743Y35718D01*
D02*
G37*
G36*
X22829Y31759D02*
Y31232D01*
X22716Y31166D01*
X22575Y31127D01*
X22433Y31221D01*
X22225Y31263D01*
X22017Y31221D01*
X21840Y31104D01*
X21723Y30927D01*
X21681Y30719D01*
X21723Y30511D01*
X21840Y30334D01*
X21940Y30268D01*
Y28312D01*
X21262Y27633D01*
X21200Y27541D01*
X21178Y27432D01*
X21178Y27432D01*
Y20390D01*
X21078Y20324D01*
X20961Y20147D01*
X20919Y19939D01*
X20671Y19896D01*
X20664Y19933D01*
X20524Y20143D01*
X20314Y20283D01*
X20193Y20307D01*
Y19685D01*
X19939D01*
Y20307D01*
X19818Y20283D01*
X19608Y20143D01*
X19468Y19933D01*
X19463Y19907D01*
X19187Y19824D01*
X18065Y20946D01*
Y32061D01*
X18165Y32127D01*
X18282Y32304D01*
X18324Y32512D01*
X18282Y32720D01*
X18165Y32897D01*
X18026Y32989D01*
X18036Y33150D01*
X18068Y33243D01*
X21345D01*
X22829Y31759D01*
D02*
G37*
%LPC*%
G36*
X28435Y31496D02*
X27940D01*
Y31001D01*
X28061Y31025D01*
X28271Y31165D01*
X28411Y31375D01*
X28435Y31496D01*
D02*
G37*
G36*
X27686D02*
X27191D01*
X27215Y31375D01*
X27355Y31165D01*
X27565Y31025D01*
X27686Y31001D01*
Y31496D01*
D02*
G37*
G36*
X27940Y32245D02*
Y31750D01*
X28435D01*
X28411Y31871D01*
X28271Y32081D01*
X28061Y32221D01*
X27940Y32245D01*
D02*
G37*
G36*
X27686D02*
X27565Y32221D01*
X27355Y32081D01*
X27215Y31871D01*
X27191Y31750D01*
X27686D01*
Y32245D01*
D02*
G37*
G36*
X27305Y30389D02*
X27097Y30347D01*
X26920Y30230D01*
X26803Y30053D01*
X26761Y29845D01*
X26803Y29637D01*
X26920Y29460D01*
X27097Y29343D01*
X27305Y29301D01*
X27513Y29343D01*
X27690Y29460D01*
X27807Y29637D01*
X27849Y29845D01*
X27807Y30053D01*
X27690Y30230D01*
X27513Y30347D01*
X27305Y30389D01*
D02*
G37*
G36*
X26022Y23876D02*
X25527D01*
Y23381D01*
X25648Y23405D01*
X25858Y23545D01*
X25998Y23755D01*
X26022Y23876D01*
D02*
G37*
G36*
X25273D02*
X24778D01*
X24802Y23755D01*
X24942Y23545D01*
X25152Y23405D01*
X25273Y23381D01*
Y23876D01*
D02*
G37*
G36*
X25527Y24625D02*
Y24130D01*
X26022D01*
X25998Y24251D01*
X25858Y24461D01*
X25648Y24601D01*
X25527Y24625D01*
D02*
G37*
G36*
X25273D02*
X25152Y24601D01*
X24942Y24461D01*
X24802Y24251D01*
X24778Y24130D01*
X25273D01*
Y24625D01*
D02*
G37*
%LPD*%
D29*
X15570Y37287D02*
X17577D01*
X14732Y36449D02*
X15570Y37287D01*
X15402Y37694D02*
X17745D01*
X14326Y36617D02*
X15402Y37694D01*
X15234Y38100D02*
X17913D01*
X13919Y36786D02*
X15234Y38100D01*
X13919Y33826D02*
Y36786D01*
Y33826D02*
X15951Y31794D01*
Y20304D02*
Y31794D01*
Y20304D02*
X17145Y19110D01*
Y17780D02*
Y19110D01*
X14326Y33995D02*
Y36617D01*
Y33995D02*
X16358Y31963D01*
Y20472D02*
Y31963D01*
Y20472D02*
X18415Y18415D01*
Y17145D02*
Y18415D01*
X14732Y34163D02*
Y36449D01*
Y34163D02*
X16764Y32131D01*
Y20828D02*
Y32131D01*
Y20828D02*
X19685Y17907D01*
X34925Y11303D02*
Y18296D01*
X36957Y20328D01*
X34290Y10668D02*
X34925Y11303D01*
X33274Y10668D02*
X34290D01*
X15367Y34544D02*
Y36068D01*
X15875Y36576D01*
X16891D01*
X17780Y20828D02*
X20066Y18542D01*
X17780Y20828D02*
Y32512D01*
X6934Y14180D02*
X9722Y16967D01*
X6934Y10585D02*
Y14180D01*
X7341Y10754D02*
X8442Y9652D01*
X7747Y13843D02*
X10058Y16154D01*
X7747Y10922D02*
Y13843D01*
Y10922D02*
X8382Y10287D01*
X22352D01*
X25340Y11811D02*
X32258D01*
X33274Y12827D01*
Y13335D01*
X25400Y12446D02*
X32004D01*
X22606Y9652D02*
X25400Y12446D01*
X8442Y9652D02*
X22606D01*
X7341Y14011D02*
X9890Y16561D01*
X7341Y10754D02*
Y14011D01*
X10058Y16154D02*
X19075D01*
X19685Y16764D01*
X4732Y8349D02*
Y14257D01*
Y8349D02*
X4826Y8255D01*
X32004Y12446D02*
X32385Y12827D01*
Y13335D01*
X19685Y16764D02*
Y17145D01*
X19679Y15748D02*
X20809Y16878D01*
X10668Y15748D02*
X19679D01*
X9398Y14478D02*
X10668Y15748D01*
X20809Y16878D02*
X29324D01*
X30061Y16472D02*
X30734Y17145D01*
X20977Y16472D02*
X30061D01*
X19745Y15240D02*
X20977Y16472D01*
X17653Y15240D02*
X19745D01*
X17018Y14605D02*
X17653Y15240D01*
X1905Y36322D02*
X5461D01*
X4826Y15494D02*
Y16383D01*
X1905Y38481D02*
X5461D01*
X21146Y16066D02*
X31052D01*
X9398Y12192D02*
Y14478D01*
X17018Y12192D02*
Y14605D01*
X19558Y14478D02*
X21146Y16066D01*
X19558Y12192D02*
Y14478D01*
X22774Y9246D02*
X25340Y11811D01*
X6934Y10585D02*
X8274Y9246D01*
X22774D01*
X22225Y28194D02*
Y30719D01*
X9722Y16967D02*
X16713D01*
X17145Y17399D01*
X9890Y16561D02*
X18212D01*
X18415Y16764D01*
X17145Y17399D02*
Y17780D01*
X18415Y16764D02*
Y17145D01*
X19685D02*
Y17907D01*
X4826Y16383D02*
X6198Y17755D01*
Y35585D01*
X5461Y36322D02*
X6198Y35585D01*
X5461Y38481D02*
X7112Y36830D01*
X4732Y14257D02*
X6350Y15875D01*
Y17018D01*
X7112Y17780D01*
Y36830D01*
X17577Y37287D02*
X19177Y35687D01*
X15367Y34544D02*
X16383Y33528D01*
X21463D01*
X23114Y31877D01*
Y22352D02*
Y31877D01*
X25527Y19939D02*
X33401D01*
X23114Y22352D02*
X25527Y19939D01*
X20066Y18542D02*
X34036D01*
X34417Y18923D01*
Y19558D01*
X31496Y16510D02*
Y17780D01*
X29324Y16878D02*
X29972Y17526D01*
Y17780D01*
X31052Y16066D02*
X31496Y16510D01*
X25908Y13843D02*
X31496D01*
X22352Y10287D02*
X25908Y13843D01*
X21463Y19939D02*
Y27432D01*
X22225Y28194D01*
X19177Y35687D02*
X24701D01*
X23749Y34290D02*
X31242D01*
Y27940D02*
Y33147D01*
Y27940D02*
X36957Y22225D01*
Y20328D02*
Y22225D01*
X16891Y35179D02*
X22860D01*
X23749Y34290D01*
X17745Y37694D02*
X19244Y36195D01*
X23495D01*
X24003Y36703D01*
X17913Y38100D02*
X19056Y36957D01*
X22479D01*
X23241Y37719D01*
D31*
X38227Y24765D02*
D03*
D32*
X19558Y12192D02*
D03*
X17018D02*
D03*
X14478D02*
D03*
D33*
X9398D02*
D03*
D37*
X17780Y32512D02*
D03*
X16891Y35179D02*
D03*
Y36576D02*
D03*
X19685Y17145D02*
D03*
X18415D02*
D03*
X17145Y17780D02*
D03*
X1905Y38481D02*
D03*
Y36322D02*
D03*
X4826Y15494D02*
D03*
Y8255D02*
D03*
X30734Y17145D02*
D03*
X33274Y10668D02*
D03*
X32385Y13335D02*
D03*
X33274D02*
D03*
X1143Y25019D02*
D03*
X21971Y17526D02*
D03*
X25400Y24003D02*
D03*
X1143Y37465D02*
D03*
X4191Y41148D02*
D03*
X27813Y31623D02*
D03*
X22225Y30719D02*
D03*
X12827Y37592D02*
D03*
X18669Y38354D02*
D03*
X23241Y37719D02*
D03*
X33401Y19939D02*
D03*
X34417Y19558D02*
D03*
X31496Y17780D02*
D03*
X29972D02*
D03*
X31496Y13843D02*
D03*
X21463Y19939D02*
D03*
X20066Y19685D02*
D03*
X24701Y35687D02*
D03*
X24003Y36703D02*
D03*
X31242Y34290D02*
D03*
Y33147D02*
D03*
M02*
