G04 Layer_Physical_Order=1*
G04 Layer_Color=255*
%FSLAX25Y25*%
%MOIN*%
G70*
G01*
G75*
G04:AMPARAMS|DCode=10|XSize=23.62mil|YSize=39.37mil|CornerRadius=2.95mil|HoleSize=0mil|Usage=FLASHONLY|Rotation=180.000|XOffset=0mil|YOffset=0mil|HoleType=Round|Shape=RoundedRectangle|*
%AMROUNDEDRECTD10*
21,1,0.02362,0.03347,0,0,180.0*
21,1,0.01772,0.03937,0,0,180.0*
1,1,0.00591,-0.00886,0.01673*
1,1,0.00591,0.00886,0.01673*
1,1,0.00591,0.00886,-0.01673*
1,1,0.00591,-0.00886,-0.01673*
%
%ADD10ROUNDEDRECTD10*%
%ADD11R,0.12598X0.12598*%
%ADD12R,0.12598X0.07874*%
%ADD13R,0.05512X0.03347*%
G04:AMPARAMS|DCode=14|XSize=23.62mil|YSize=39.37mil|CornerRadius=2.95mil|HoleSize=0mil|Usage=FLASHONLY|Rotation=90.000|XOffset=0mil|YOffset=0mil|HoleType=Round|Shape=RoundedRectangle|*
%AMROUNDEDRECTD14*
21,1,0.02362,0.03347,0,0,90.0*
21,1,0.01772,0.03937,0,0,90.0*
1,1,0.00591,0.01673,0.00886*
1,1,0.00591,0.01673,-0.00886*
1,1,0.00591,-0.01673,-0.00886*
1,1,0.00591,-0.01673,0.00886*
%
%ADD14ROUNDEDRECTD14*%
%ADD15R,0.02913X0.07283*%
%ADD16R,0.08465X0.08465*%
%ADD17R,0.01181X0.02953*%
%ADD18R,0.02953X0.01181*%
G04:AMPARAMS|DCode=19|XSize=11.81mil|YSize=29.53mil|CornerRadius=2.95mil|HoleSize=0mil|Usage=FLASHONLY|Rotation=90.000|XOffset=0mil|YOffset=0mil|HoleType=Round|Shape=RoundedRectangle|*
%AMROUNDEDRECTD19*
21,1,0.01181,0.02362,0,0,90.0*
21,1,0.00591,0.02953,0,0,90.0*
1,1,0.00591,0.01181,0.00295*
1,1,0.00591,0.01181,-0.00295*
1,1,0.00591,-0.01181,-0.00295*
1,1,0.00591,-0.01181,0.00295*
%
%ADD19ROUNDEDRECTD19*%
G04:AMPARAMS|DCode=20|XSize=78.74mil|YSize=35.43mil|CornerRadius=0.18mil|HoleSize=0mil|Usage=FLASHONLY|Rotation=0.000|XOffset=0mil|YOffset=0mil|HoleType=Round|Shape=RoundedRectangle|*
%AMROUNDEDRECTD20*
21,1,0.07874,0.03508,0,0,0.0*
21,1,0.07839,0.03543,0,0,0.0*
1,1,0.00035,0.03919,-0.01754*
1,1,0.00035,-0.03919,-0.01754*
1,1,0.00035,-0.03919,0.01754*
1,1,0.00035,0.03919,0.01754*
%
%ADD20ROUNDEDRECTD20*%
G04:AMPARAMS|DCode=21|XSize=82.68mil|YSize=39.37mil|CornerRadius=0.2mil|HoleSize=0mil|Usage=FLASHONLY|Rotation=0.000|XOffset=0mil|YOffset=0mil|HoleType=Round|Shape=RoundedRectangle|*
%AMROUNDEDRECTD21*
21,1,0.08268,0.03898,0,0,0.0*
21,1,0.08228,0.03937,0,0,0.0*
1,1,0.00039,0.04114,-0.01949*
1,1,0.00039,-0.04114,-0.01949*
1,1,0.00039,-0.04114,0.01949*
1,1,0.00039,0.04114,0.01949*
%
%ADD21ROUNDEDRECTD21*%
G04:AMPARAMS|DCode=22|XSize=118.11mil|YSize=88.58mil|CornerRadius=0mil|HoleSize=0mil|Usage=FLASHONLY|Rotation=0.000|XOffset=0mil|YOffset=0mil|HoleType=Round|Shape=Octagon|*
%AMOCTAGOND22*
4,1,8,0.05905,-0.02215,0.05905,0.02215,0.03691,0.04429,-0.03691,0.04429,-0.05905,0.02215,-0.05905,-0.02215,-0.03691,-0.04429,0.03691,-0.04429,0.05905,-0.02215,0.0*
%
%ADD22OCTAGOND22*%

G04:AMPARAMS|DCode=23|XSize=50mil|YSize=50mil|CornerRadius=6.25mil|HoleSize=0mil|Usage=FLASHONLY|Rotation=270.000|XOffset=0mil|YOffset=0mil|HoleType=Round|Shape=RoundedRectangle|*
%AMROUNDEDRECTD23*
21,1,0.05000,0.03750,0,0,270.0*
21,1,0.03750,0.05000,0,0,270.0*
1,1,0.01250,-0.01875,-0.01875*
1,1,0.01250,-0.01875,0.01875*
1,1,0.01250,0.01875,0.01875*
1,1,0.01250,0.01875,-0.01875*
%
%ADD23ROUNDEDRECTD23*%
%ADD24R,0.03347X0.05512*%
%ADD25R,0.05315X0.01772*%
%ADD26C,0.03543*%
%ADD27C,0.15000*%
%ADD28C,0.07500*%
%ADD29R,0.07500X0.07500*%
%ADD30R,0.05905X0.05905*%
%ADD31R,0.04921X0.04921*%
G36*
X130433Y43461D02*
Y38539D01*
X128465Y36571D01*
X119902D01*
X117244Y39228D01*
Y42772D01*
X119902Y45429D01*
X128465D01*
X130433Y43461D01*
D02*
G37*
D10*
X105740Y161028D02*
D03*
X98260D02*
D03*
X102000Y151972D02*
D03*
D11*
X72500Y98500D02*
D03*
X105500D02*
D03*
D12*
X72500Y76059D02*
D03*
Y120941D02*
D03*
X105500D02*
D03*
Y76059D02*
D03*
D13*
X135500Y137945D02*
D03*
Y131055D02*
D03*
X107500Y140390D02*
D03*
Y133500D02*
D03*
X95500Y141445D02*
D03*
Y134555D02*
D03*
X118500Y150500D02*
D03*
Y157390D02*
D03*
X88000Y154555D02*
D03*
Y161445D02*
D03*
X55000Y137945D02*
D03*
Y131055D02*
D03*
X44500Y137945D02*
D03*
Y131055D02*
D03*
X31000Y141555D02*
D03*
Y148445D02*
D03*
D14*
X125028Y132260D02*
D03*
Y139740D02*
D03*
X115972Y136000D02*
D03*
D15*
X5000Y54850D02*
D03*
X10000D02*
D03*
X15000D02*
D03*
X20000D02*
D03*
X25000D02*
D03*
X5000Y38118D02*
D03*
X10000D02*
D03*
X15000D02*
D03*
X20000D02*
D03*
X25000D02*
D03*
D16*
X50000Y154500D02*
D03*
D17*
X46161Y161685D02*
D03*
X48720D02*
D03*
X51279D02*
D03*
X53839D02*
D03*
Y147315D02*
D03*
X51279D02*
D03*
X48720D02*
D03*
X46161D02*
D03*
D18*
X57185Y158339D02*
D03*
Y155780D02*
D03*
Y153220D02*
D03*
Y150661D02*
D03*
X42815D02*
D03*
Y153220D02*
D03*
Y155780D02*
D03*
D19*
Y158339D02*
D03*
D20*
X113504Y46905D02*
D03*
Y35094D02*
D03*
D21*
X113701Y41000D02*
D03*
D22*
X124528D02*
D03*
D23*
X132000Y160250D02*
D03*
Y152750D02*
D03*
X85000Y137750D02*
D03*
Y145250D02*
D03*
D24*
X66555Y158000D02*
D03*
X73445D02*
D03*
X71945Y143000D02*
D03*
X65055D02*
D03*
X113555Y55500D02*
D03*
X120445D02*
D03*
X103945Y33000D02*
D03*
X97055D02*
D03*
D25*
X19000Y141882D02*
D03*
Y144441D02*
D03*
Y152118D02*
D03*
Y149559D02*
D03*
Y147000D02*
D03*
D26*
X22500Y46500D02*
D03*
X7500D02*
D03*
D27*
X150500Y97500D02*
D03*
X150000Y125000D02*
D03*
Y142500D02*
D03*
Y160000D02*
D03*
X150500Y177500D02*
D03*
X133000D02*
D03*
X115500D02*
D03*
X98000D02*
D03*
X80500D02*
D03*
X63000D02*
D03*
X45500D02*
D03*
X28000D02*
D03*
X10500D02*
D03*
X150500Y70000D02*
D03*
Y52500D02*
D03*
Y35000D02*
D03*
Y17500D02*
D03*
X133000D02*
D03*
X115500D02*
D03*
X98000D02*
D03*
X80500D02*
D03*
X63000D02*
D03*
X45500D02*
D03*
X28000D02*
D03*
X10500Y17461D02*
D03*
D28*
X88000Y46000D02*
D03*
X58000D02*
D03*
X48000D02*
D03*
X68000D02*
D03*
X78000D02*
D03*
D29*
X38000D02*
D03*
D30*
X8370Y133221D02*
D03*
Y160780D02*
D03*
D31*
X19000Y156843D02*
D03*
Y137157D02*
D03*
M02*
