G04 Layer_Physical_Order=1*
G04 Layer_Color=255*
%FSLAX43Y43*%
%MOMM*%
G71*
G01*
G75*
G04:AMPARAMS|DCode=10|XSize=3mm|YSize=2.25mm|CornerRadius=0mm|HoleSize=0mm|Usage=FLASHONLY|Rotation=180.000|XOffset=0mm|YOffset=0mm|HoleType=Round|Shape=Octagon|*
%AMOCTAGOND10*
4,1,8,-1.500,0.563,-1.500,-0.563,-0.938,-1.125,0.938,-1.125,1.500,-0.563,1.500,0.563,0.938,1.125,-0.938,1.125,-1.500,0.563,0.0*
%
%ADD10OCTAGOND10*%

G04:AMPARAMS|DCode=11|XSize=2mm|YSize=0.9mm|CornerRadius=0.004mm|HoleSize=0mm|Usage=FLASHONLY|Rotation=180.000|XOffset=0mm|YOffset=0mm|HoleType=Round|Shape=RoundedRectangle|*
%AMROUNDEDRECTD11*
21,1,2.000,0.891,0,0,180.0*
21,1,1.991,0.900,0,0,180.0*
1,1,0.009,-0.996,0.446*
1,1,0.009,0.996,0.446*
1,1,0.009,0.996,-0.446*
1,1,0.009,-0.996,-0.446*
%
%ADD11ROUNDEDRECTD11*%
G04:AMPARAMS|DCode=12|XSize=2.1mm|YSize=1mm|CornerRadius=0.005mm|HoleSize=0mm|Usage=FLASHONLY|Rotation=180.000|XOffset=0mm|YOffset=0mm|HoleType=Round|Shape=RoundedRectangle|*
%AMROUNDEDRECTD12*
21,1,2.100,0.990,0,0,180.0*
21,1,2.090,1.000,0,0,180.0*
1,1,0.010,-1.045,0.495*
1,1,0.010,1.045,0.495*
1,1,0.010,1.045,-0.495*
1,1,0.010,-1.045,-0.495*
%
%ADD12ROUNDEDRECTD12*%
%ADD13R,1.400X0.850*%
%ADD14R,0.850X1.400*%
G04:AMPARAMS|DCode=15|XSize=0.6mm|YSize=1mm|CornerRadius=0.075mm|HoleSize=0mm|Usage=FLASHONLY|Rotation=0.000|XOffset=0mm|YOffset=0mm|HoleType=Round|Shape=RoundedRectangle|*
%AMROUNDEDRECTD15*
21,1,0.600,0.850,0,0,0.0*
21,1,0.450,1.000,0,0,0.0*
1,1,0.150,0.225,-0.425*
1,1,0.150,-0.225,-0.425*
1,1,0.150,-0.225,0.425*
1,1,0.150,0.225,0.425*
%
%ADD15ROUNDEDRECTD15*%
G04:AMPARAMS|DCode=16|XSize=1.27mm|YSize=1.27mm|CornerRadius=0.159mm|HoleSize=0mm|Usage=FLASHONLY|Rotation=90.000|XOffset=0mm|YOffset=0mm|HoleType=Round|Shape=RoundedRectangle|*
%AMROUNDEDRECTD16*
21,1,1.270,0.953,0,0,90.0*
21,1,0.953,1.270,0,0,90.0*
1,1,0.318,0.476,0.476*
1,1,0.318,0.476,-0.476*
1,1,0.318,-0.476,-0.476*
1,1,0.318,-0.476,0.476*
%
%ADD16ROUNDEDRECTD16*%
G04:AMPARAMS|DCode=17|XSize=1.27mm|YSize=1.27mm|CornerRadius=0.159mm|HoleSize=0mm|Usage=FLASHONLY|Rotation=0.000|XOffset=0mm|YOffset=0mm|HoleType=Round|Shape=RoundedRectangle|*
%AMROUNDEDRECTD17*
21,1,1.270,0.953,0,0,0.0*
21,1,0.953,1.270,0,0,0.0*
1,1,0.318,0.476,-0.476*
1,1,0.318,-0.476,-0.476*
1,1,0.318,-0.476,0.476*
1,1,0.318,0.476,0.476*
%
%ADD17ROUNDEDRECTD17*%
G04:AMPARAMS|DCode=18|XSize=0.3mm|YSize=0.75mm|CornerRadius=0.075mm|HoleSize=0mm|Usage=FLASHONLY|Rotation=0.000|XOffset=0mm|YOffset=0mm|HoleType=Round|Shape=RoundedRectangle|*
%AMROUNDEDRECTD18*
21,1,0.300,0.600,0,0,0.0*
21,1,0.150,0.750,0,0,0.0*
1,1,0.150,0.075,-0.300*
1,1,0.150,-0.075,-0.300*
1,1,0.150,-0.075,0.300*
1,1,0.150,0.075,0.300*
%
%ADD18ROUNDEDRECTD18*%
%ADD19R,0.300X0.750*%
%ADD20R,0.750X0.300*%
%ADD21R,2.150X2.150*%
%ADD22R,1.350X0.450*%
%ADD23R,0.740X1.850*%
%ADD24R,3.200X2.000*%
%ADD25R,3.200X3.200*%
%ADD26R,0.600X0.900*%
G04:AMPARAMS|DCode=27|XSize=0.6mm|YSize=1mm|CornerRadius=0.075mm|HoleSize=0mm|Usage=FLASHONLY|Rotation=270.000|XOffset=0mm|YOffset=0mm|HoleType=Round|Shape=RoundedRectangle|*
%AMROUNDEDRECTD27*
21,1,0.600,0.850,0,0,270.0*
21,1,0.450,1.000,0,0,270.0*
1,1,0.150,-0.425,-0.225*
1,1,0.150,-0.425,0.225*
1,1,0.150,0.425,0.225*
1,1,0.150,0.425,-0.225*
%
%ADD27ROUNDEDRECTD27*%
%ADD28R,0.630X0.830*%
%ADD29C,0.254*%
%ADD30C,1.524*%
%ADD31C,3.810*%
%ADD32C,1.905*%
%ADD33R,1.905X1.905*%
%ADD34R,1.250X1.250*%
%ADD35R,1.500X1.500*%
%ADD36C,0.900*%
%ADD37C,0.762*%
G36*
X7657Y36253D02*
X9214D01*
X9404Y36114D01*
X9455Y36037D01*
X9521Y35937D01*
X9698Y35820D01*
X9906Y35778D01*
X10035Y35804D01*
X10252Y35664D01*
X10280Y35633D01*
X10285Y35582D01*
X10086Y35365D01*
X9361D01*
Y35657D01*
X7657D01*
Y34503D01*
X8224D01*
Y33999D01*
X7946D01*
Y32295D01*
X9100D01*
Y33999D01*
X8794D01*
Y34503D01*
X9361D01*
Y34795D01*
X10315D01*
X10315Y34795D01*
X10424Y34817D01*
X10516Y34879D01*
X10869Y35232D01*
X10869Y35232D01*
X10931Y35324D01*
X10953Y35433D01*
X10953Y35433D01*
Y36734D01*
X10983Y36757D01*
X11237Y36631D01*
Y36315D01*
X11479D01*
Y33575D01*
X11479Y33575D01*
X11501Y33466D01*
X11563Y33374D01*
X12118Y32819D01*
X12118Y32819D01*
X12210Y32757D01*
X12319Y32735D01*
X12979D01*
Y31688D01*
X12559D01*
Y30734D01*
X12432D01*
Y30607D01*
X11753D01*
Y29780D01*
X12281D01*
X12378Y29545D01*
X11737Y28903D01*
X11675Y28811D01*
X11653Y28702D01*
X11653Y28702D01*
Y27169D01*
X11517Y27033D01*
X11250Y26998D01*
X11175Y27048D01*
X11086Y27066D01*
X10236D01*
X10147Y27048D01*
X10072Y26998D01*
X10022Y26923D01*
X10004Y26834D01*
Y26384D01*
X10022Y26295D01*
X10072Y26220D01*
X10147Y26170D01*
X10236Y26152D01*
X10376D01*
Y25892D01*
X10001Y25517D01*
X8400D01*
Y25809D01*
X6696D01*
Y25558D01*
X6212D01*
X6167Y25616D01*
X6095Y25806D01*
X6096Y25812D01*
X6107Y25868D01*
Y26758D01*
X6095Y26820D01*
X6093Y26824D01*
X6084Y26870D01*
X6108Y27067D01*
X6122Y27123D01*
X6134Y27131D01*
X6191Y27217D01*
X6211Y27318D01*
Y27459D01*
X6594D01*
Y27109D01*
X7548D01*
X8502D01*
Y27661D01*
X7833D01*
Y27954D01*
X8502D01*
Y28506D01*
X7548D01*
X6594D01*
Y28029D01*
X6211D01*
Y28308D01*
X6191Y28409D01*
X6134Y28495D01*
X6122Y28503D01*
X6108Y28559D01*
X6084Y28756D01*
X6093Y28802D01*
X6095Y28806D01*
X6107Y28868D01*
Y29758D01*
X6095Y29820D01*
X6079Y29844D01*
X6110Y29967D01*
X6179Y30098D01*
X6696D01*
Y29806D01*
X8400D01*
Y30957D01*
X8400Y30960D01*
X8408Y31211D01*
X8899D01*
X9578Y30533D01*
X9670Y30471D01*
X9779Y30449D01*
X9779Y30449D01*
X10105D01*
Y29882D01*
X10376D01*
Y28966D01*
X10236D01*
X10147Y28948D01*
X10072Y28898D01*
X10022Y28823D01*
X10004Y28734D01*
Y28284D01*
X10022Y28195D01*
X10072Y28120D01*
X10147Y28070D01*
X10236Y28052D01*
X11086D01*
X11175Y28070D01*
X11250Y28120D01*
X11300Y28195D01*
X11318Y28284D01*
Y28734D01*
X11300Y28823D01*
X11250Y28898D01*
X11175Y28948D01*
X11086Y28966D01*
X10946D01*
Y29882D01*
X11259D01*
Y31586D01*
X10105D01*
Y31131D01*
X9851Y31065D01*
X9218Y31697D01*
X9126Y31759D01*
X9017Y31781D01*
X9017Y31781D01*
X7341D01*
Y32695D01*
X7341Y32695D01*
X7319Y32804D01*
X7257Y32896D01*
X7257Y32896D01*
X6805Y33348D01*
X6713Y33410D01*
X6604Y33432D01*
X6604Y33432D01*
X4690D01*
X4296Y33826D01*
X4393Y34061D01*
X5603D01*
Y35559D01*
X5755D01*
Y35911D01*
X4826D01*
Y36165D01*
X5755D01*
Y36517D01*
X5653D01*
Y37053D01*
X7657D01*
Y36253D01*
D02*
G37*
G36*
X40853Y48991D02*
X40750Y48912D01*
X40603Y48721D01*
X40511Y48499D01*
X40480Y48260D01*
X40511Y48021D01*
X40603Y47799D01*
X40750Y47608D01*
X40941Y47461D01*
X41117Y47388D01*
Y30471D01*
X38109Y27463D01*
X36229D01*
X36197Y27556D01*
X36187Y27717D01*
X36326Y27809D01*
X36443Y27986D01*
X36485Y28194D01*
X36443Y28402D01*
X36326Y28579D01*
X36149Y28696D01*
X35941Y28738D01*
X35733Y28696D01*
X35556Y28579D01*
X35490Y28479D01*
X35170D01*
X34752Y28897D01*
X34765Y28986D01*
X35049Y29175D01*
X35052Y29174D01*
X35260Y29216D01*
X35437Y29333D01*
X35554Y29510D01*
X35596Y29718D01*
X35554Y29926D01*
X35437Y30103D01*
X35337Y30169D01*
Y33148D01*
X35591Y33299D01*
X35718Y33273D01*
X35926Y33315D01*
X36102Y33433D01*
X36220Y33609D01*
X36262Y33817D01*
X36220Y34025D01*
X36102Y34202D01*
X36003Y34269D01*
Y35215D01*
X36257Y35279D01*
X36381Y35046D01*
X36638Y34733D01*
X36951Y34476D01*
X37309Y34285D01*
X37697Y34167D01*
X38100Y34128D01*
X38503Y34167D01*
X38891Y34285D01*
X39249Y34476D01*
X39562Y34733D01*
X39819Y35046D01*
X40010Y35404D01*
X40128Y35792D01*
X40167Y36195D01*
X40128Y36598D01*
X40010Y36986D01*
X39819Y37344D01*
X39562Y37657D01*
X39249Y37914D01*
X38891Y38105D01*
X38503Y38223D01*
X38100Y38262D01*
X37697Y38223D01*
X37309Y38105D01*
X36951Y37914D01*
X36638Y37657D01*
X36381Y37344D01*
X36257Y37111D01*
X36003Y37175D01*
Y39660D01*
X36257Y39724D01*
X36381Y39491D01*
X36638Y39178D01*
X36951Y38921D01*
X37309Y38730D01*
X37697Y38612D01*
X38100Y38573D01*
X38503Y38612D01*
X38891Y38730D01*
X39249Y38921D01*
X39562Y39178D01*
X39819Y39491D01*
X40010Y39849D01*
X40128Y40237D01*
X40167Y40640D01*
X40128Y41043D01*
X40010Y41431D01*
X39819Y41789D01*
X39562Y42102D01*
X39249Y42359D01*
X38891Y42550D01*
X38503Y42668D01*
X38100Y42707D01*
X37697Y42668D01*
X37309Y42550D01*
X36951Y42359D01*
X36638Y42102D01*
X36381Y41789D01*
X36190Y41431D01*
X36072Y41043D01*
X36059Y40903D01*
X35794Y40809D01*
X33983Y42619D01*
X33891Y42681D01*
X33782Y42703D01*
X33782Y42703D01*
X15748D01*
X15748Y42703D01*
X15639Y42681D01*
X15547Y42619D01*
X15547Y42619D01*
X13713Y40785D01*
X13651Y40693D01*
X13629Y40584D01*
X13629Y40584D01*
Y40046D01*
X13391D01*
Y39417D01*
X13137D01*
Y40076D01*
X12984Y40194D01*
X12984Y40300D01*
Y41021D01*
X12305D01*
X11626D01*
Y40194D01*
X12301D01*
X12312Y39944D01*
X12312Y39940D01*
Y38921D01*
X12260D01*
Y38869D01*
X11237D01*
Y38481D01*
X11001Y38377D01*
X10840Y38504D01*
Y40296D01*
X11132D01*
Y42000D01*
X9978D01*
Y41433D01*
X8636D01*
X8636Y41433D01*
X8527Y41411D01*
X8435Y41349D01*
X8435Y41349D01*
X8294Y41208D01*
X8232Y41116D01*
X8210Y41007D01*
X7976Y40935D01*
X7657D01*
Y39781D01*
X9361D01*
Y40863D01*
X9978D01*
Y40296D01*
X10270D01*
Y38340D01*
X10270Y38340D01*
X10292Y38231D01*
X10354Y38139D01*
X10709Y37783D01*
X10719Y37710D01*
X10698Y37544D01*
X10669Y37482D01*
X10650Y37468D01*
X10650Y37468D01*
X10467Y37285D01*
X10405Y37193D01*
X10383Y37084D01*
X10383Y37084D01*
Y36950D01*
X10129Y36814D01*
X10114Y36824D01*
X9906Y36866D01*
X9698Y36824D01*
X9615Y36769D01*
X9361Y36889D01*
Y37407D01*
X8334D01*
X8202Y37539D01*
X8190Y37548D01*
X8160Y37619D01*
X8143Y37787D01*
X8155Y37851D01*
X8334Y38031D01*
X9361D01*
Y39185D01*
X7657D01*
Y38273D01*
X5653D01*
X5653Y39015D01*
X5603Y39249D01*
Y40615D01*
X4904D01*
X4769Y40869D01*
X4789Y40900D01*
X4813Y41021D01*
X3569D01*
X3593Y40900D01*
X3733Y40690D01*
X3943Y40550D01*
X4049Y40529D01*
Y39249D01*
X4001Y39027D01*
X3852Y38923D01*
X3586D01*
X3586Y38923D01*
X3477Y38901D01*
X3385Y38839D01*
X3228Y38682D01*
X3166Y38590D01*
X3144Y38481D01*
X3144Y38481D01*
Y34946D01*
X3028Y34740D01*
X2890Y34740D01*
X1224D01*
Y32936D01*
X3028D01*
Y33939D01*
X3066Y33968D01*
X3282Y34034D01*
X4371Y32946D01*
X4371Y32946D01*
X4463Y32884D01*
X4572Y32862D01*
X4572Y32862D01*
X6486D01*
X6771Y32577D01*
Y31781D01*
X5900D01*
Y32063D01*
X4966D01*
Y30929D01*
X5900D01*
Y31211D01*
X6688D01*
X6696Y30960D01*
X6696Y30957D01*
Y30668D01*
X3893D01*
X3670Y30922D01*
X3670Y30929D01*
X3670D01*
Y32063D01*
X2736D01*
Y30929D01*
X2834D01*
X2918Y30706D01*
X2940Y30597D01*
X3002Y30505D01*
X3325Y30182D01*
X3325Y30182D01*
X3417Y30120D01*
X3526Y30098D01*
X3526Y30098D01*
X3725D01*
X3793Y29967D01*
X3825Y29844D01*
X3809Y29820D01*
X3797Y29758D01*
Y29061D01*
X3543Y28956D01*
X3444Y29055D01*
X3327Y29103D01*
X3306D01*
X3217Y29192D01*
X2279D01*
Y28938D01*
X3327D01*
X4002Y28263D01*
Y27363D01*
X3327Y26688D01*
X2279D01*
Y26434D01*
X3217D01*
X3306Y26523D01*
X3327D01*
X3444Y26571D01*
X3543Y26670D01*
X3797Y26565D01*
Y25868D01*
X3808Y25812D01*
X3809Y25806D01*
X3737Y25616D01*
X3692Y25558D01*
X2864D01*
X2798Y25658D01*
X2621Y25775D01*
X2413Y25817D01*
X2205Y25775D01*
X2028Y25658D01*
X1911Y25481D01*
X1909Y25473D01*
X1639Y25419D01*
X1601Y25477D01*
X1391Y25617D01*
X1270Y25641D01*
Y25019D01*
Y24397D01*
X1391Y24421D01*
X1601Y24561D01*
X1741Y24771D01*
X1755Y24841D01*
X2025Y24894D01*
X2028Y24888D01*
X2205Y24771D01*
X2413Y24729D01*
X2621Y24771D01*
X2798Y24888D01*
X2864Y24988D01*
X6696D01*
Y24655D01*
X8400D01*
Y24947D01*
X10119D01*
X10119Y24947D01*
X10228Y24969D01*
X10320Y25031D01*
X10862Y25573D01*
X10862Y25573D01*
X10924Y25665D01*
X10946Y25774D01*
Y26152D01*
X11086D01*
X11175Y26170D01*
X11250Y26220D01*
X11300Y26295D01*
X11496Y26324D01*
X11605Y26346D01*
X11697Y26408D01*
X12139Y26850D01*
X12139Y26850D01*
X12201Y26942D01*
X12209Y26980D01*
X12430Y27091D01*
X12669Y26964D01*
Y26063D01*
X12669Y26063D01*
X12691Y25954D01*
X12753Y25862D01*
X13040Y25575D01*
Y24548D01*
X13332D01*
Y24102D01*
X13332Y24102D01*
X13354Y23993D01*
X13416Y23901D01*
X13558Y23758D01*
Y23492D01*
X13345Y23392D01*
X13137Y23392D01*
X12441D01*
Y23075D01*
X11741D01*
X11741Y23075D01*
X11632Y23053D01*
X11540Y22991D01*
X11540Y22991D01*
X11393Y22845D01*
X11139Y22950D01*
Y23042D01*
X9435D01*
Y22750D01*
X8472D01*
Y23042D01*
X6768D01*
Y22913D01*
X6590Y22750D01*
X6481Y22728D01*
X6389Y22666D01*
X6389Y22666D01*
X6254Y22532D01*
X6000Y22637D01*
Y23749D01*
X5978Y23858D01*
X5916Y23950D01*
X5824Y24012D01*
X5715Y24034D01*
X635D01*
X539Y24015D01*
X523Y24014D01*
X285Y24150D01*
Y24776D01*
X539Y24801D01*
X545Y24771D01*
X685Y24561D01*
X895Y24421D01*
X1016Y24397D01*
Y25019D01*
Y25641D01*
X895Y25617D01*
X685Y25477D01*
X545Y25267D01*
X539Y25237D01*
X285Y25262D01*
Y26877D01*
X539Y26983D01*
X1087Y26434D01*
X2025D01*
Y26688D01*
X1152D01*
X652Y27188D01*
Y28438D01*
X1152Y28938D01*
X2025D01*
Y29192D01*
X1087D01*
X539Y28643D01*
X285Y28749D01*
Y37222D01*
X539Y37247D01*
X545Y37217D01*
X685Y37007D01*
X895Y36867D01*
X1016Y36843D01*
Y37465D01*
Y38087D01*
X895Y38063D01*
X685Y37923D01*
X545Y37713D01*
X539Y37683D01*
X285Y37708D01*
Y49245D01*
X40767D01*
X40853Y48991D01*
D02*
G37*
G36*
X42175Y47521D02*
X42260Y47459D01*
Y1905D01*
X42006Y1819D01*
X41927Y1922D01*
X41736Y2069D01*
X41514Y2161D01*
X41275Y2192D01*
X41036Y2161D01*
X40814Y2069D01*
X40623Y1922D01*
X40476Y1731D01*
X40384Y1509D01*
X40353Y1270D01*
X40384Y1031D01*
X40476Y809D01*
X40623Y618D01*
X40726Y539D01*
X40640Y285D01*
X285D01*
Y8876D01*
X494Y8986D01*
X539Y8986D01*
X1510D01*
X1538Y8986D01*
X1764D01*
X1792Y8986D01*
X2780D01*
X2808Y8986D01*
X3034D01*
X3062Y8986D01*
X4050D01*
X4078Y8986D01*
X4304D01*
X4436Y8925D01*
X4449Y8645D01*
X4441Y8640D01*
X4324Y8463D01*
X4282Y8255D01*
X4324Y8047D01*
X4441Y7870D01*
X4618Y7753D01*
X4826Y7711D01*
X5034Y7753D01*
X5211Y7870D01*
X5328Y8047D01*
X5370Y8255D01*
X5328Y8463D01*
X5211Y8640D01*
X5203Y8645D01*
X5216Y8925D01*
X5348Y8986D01*
X5574D01*
X5602Y8986D01*
X6618D01*
Y9778D01*
X11460D01*
X11460Y9778D01*
X11569Y9800D01*
X11661Y9861D01*
X12139Y10340D01*
X12139Y10340D01*
X12201Y10432D01*
X12223Y10541D01*
X12223Y10541D01*
Y11115D01*
X12226Y11116D01*
X12495Y11227D01*
X12726Y11404D01*
X12903Y11635D01*
X13014Y11904D01*
X13029Y12011D01*
X13285D01*
X13303Y11877D01*
X13424Y11584D01*
X13618Y11332D01*
X13870Y11138D01*
X14163Y11017D01*
X14351Y10992D01*
Y12192D01*
X14605D01*
Y10992D01*
X14793Y11017D01*
X15086Y11138D01*
X15338Y11332D01*
X15532Y11584D01*
X15653Y11877D01*
X15671Y12011D01*
X15927D01*
X15942Y11904D01*
X16053Y11635D01*
X16230Y11404D01*
X16461Y11227D01*
X16730Y11116D01*
X17018Y11078D01*
X17306Y11116D01*
X17575Y11227D01*
X17806Y11404D01*
X17983Y11635D01*
X18094Y11904D01*
X18132Y12192D01*
X18094Y12480D01*
X17983Y12749D01*
X17806Y12980D01*
X17575Y13157D01*
X17306Y13268D01*
X17018Y13306D01*
X16730Y13268D01*
X16461Y13157D01*
X16230Y12980D01*
X16053Y12749D01*
X15942Y12480D01*
X15927Y12373D01*
X15671D01*
X15653Y12507D01*
X15532Y12800D01*
X15403Y12968D01*
X16584Y14150D01*
X16584Y14150D01*
X16646Y14242D01*
X16668Y14351D01*
Y17152D01*
X16922Y17288D01*
X16937Y17278D01*
X17145Y17236D01*
X17353Y17278D01*
X17530Y17395D01*
X17647Y17572D01*
X17689Y17780D01*
X17647Y17988D01*
X17530Y18165D01*
X17353Y18282D01*
X17145Y18324D01*
X16937Y18282D01*
X16760Y18165D01*
X16659Y18012D01*
X16607Y17982D01*
X16374Y17938D01*
X16203Y18108D01*
X16111Y18170D01*
X16002Y18192D01*
X16002Y18192D01*
X15524D01*
Y18861D01*
X14972D01*
Y17907D01*
Y16953D01*
X15524D01*
Y17622D01*
X15884D01*
X16098Y17408D01*
Y14469D01*
X14937Y13308D01*
X14793Y13367D01*
X14631Y13389D01*
X14567Y13596D01*
X14565Y13654D01*
X15046Y14136D01*
X15046Y14136D01*
X15108Y14228D01*
X15130Y14337D01*
X15130Y14337D01*
Y14642D01*
X15422D01*
Y16346D01*
X14268D01*
Y14642D01*
X14397D01*
X14493Y14388D01*
X14233Y14128D01*
X12319D01*
X12319Y14128D01*
X12210Y14106D01*
X12118Y14044D01*
X11737Y13663D01*
X11675Y13571D01*
X11653Y13462D01*
X11650Y13268D01*
X11381Y13157D01*
X11150Y12980D01*
X10973Y12749D01*
X10862Y12480D01*
X10824Y12192D01*
X10862Y11904D01*
X10973Y11635D01*
X11150Y11404D01*
X11381Y11227D01*
X11650Y11116D01*
X11653Y11115D01*
Y10659D01*
X11342Y10348D01*
X6618D01*
Y11140D01*
X5602D01*
X5574Y11140D01*
X5348D01*
X5320Y11140D01*
X4332D01*
X4304Y11140D01*
X4078D01*
X4050Y11140D01*
X3062D01*
X3034Y11140D01*
X2808D01*
X2780Y11140D01*
X1792D01*
X1764Y11140D01*
X1538D01*
X1510Y11140D01*
X539D01*
X494Y11140D01*
X285Y11250D01*
Y13126D01*
X494Y13236D01*
X539Y13236D01*
X1510D01*
X1538Y13236D01*
X1764D01*
X1792Y13236D01*
X2780D01*
X2808Y13236D01*
X3034D01*
X3062Y13236D01*
X4050D01*
X4078Y13236D01*
X4304D01*
X4332Y13236D01*
X5260Y13236D01*
X5472Y13134D01*
X5560Y13134D01*
X5969D01*
Y14313D01*
Y15492D01*
X5610D01*
X5471Y15493D01*
X5331Y15688D01*
X5328Y15702D01*
X5211Y15879D01*
X5034Y15996D01*
X4826Y16038D01*
X4618Y15996D01*
X4441Y15879D01*
X4324Y15702D01*
X4285Y15506D01*
X4198Y15457D01*
X4044Y15390D01*
X3062D01*
X3034Y15390D01*
X2808D01*
X2571Y15500D01*
Y15932D01*
X2671Y15998D01*
X2788Y16175D01*
X2830Y16383D01*
X2788Y16591D01*
X2778Y16606D01*
X2914Y16860D01*
X4826D01*
X4826Y16860D01*
X4935Y16882D01*
X5027Y16944D01*
X5281Y17198D01*
X5281Y17198D01*
X5343Y17290D01*
X5365Y17399D01*
Y20075D01*
X5684Y20394D01*
X5938Y20289D01*
Y20066D01*
X5938Y20066D01*
X5960Y19957D01*
X6022Y19865D01*
X6530Y19357D01*
X6530Y19357D01*
X6622Y19295D01*
X6731Y19273D01*
X6731Y19273D01*
X14605D01*
X14605Y19273D01*
X14714Y19295D01*
X14806Y19357D01*
X14994Y19545D01*
X15056Y19637D01*
X15078Y19746D01*
X15245Y19788D01*
Y20105D01*
X16830D01*
X18112Y18823D01*
X18112Y18823D01*
X18204Y18761D01*
X18313Y18740D01*
X20473D01*
Y18167D01*
X21353D01*
X21374Y18143D01*
X21466Y17913D01*
X21373Y17774D01*
X21349Y17653D01*
X22593D01*
X22569Y17774D01*
X22476Y17913D01*
X22568Y18143D01*
X22589Y18167D01*
X23977D01*
Y19034D01*
X29363D01*
Y18167D01*
X29363Y18167D01*
X29455Y17913D01*
X29428Y17780D01*
X29470Y17572D01*
X29587Y17395D01*
X29764Y17278D01*
X29950Y17240D01*
X30190Y17145D01*
X30232Y16937D01*
X30326Y16795D01*
X30287Y16654D01*
X30221Y16541D01*
X26543D01*
X26434Y16519D01*
X26342Y16457D01*
X26342Y16457D01*
X25707Y15822D01*
X25645Y15730D01*
X25623Y15621D01*
X25408Y15521D01*
X25310Y15501D01*
X25207Y15433D01*
X25139Y15330D01*
X25115Y15208D01*
Y14256D01*
X25139Y14134D01*
X25207Y14031D01*
X25310Y13963D01*
X25432Y13939D01*
X26384D01*
X26506Y13963D01*
X26517Y13970D01*
X27204D01*
X27215Y13963D01*
X27337Y13939D01*
X27514D01*
Y12917D01*
X27222D01*
Y11213D01*
X28376D01*
Y12917D01*
X28084D01*
Y13939D01*
X28289D01*
X28411Y13963D01*
X28514Y14031D01*
X28582Y14134D01*
X28607Y14256D01*
Y15208D01*
X28582Y15330D01*
X28514Y15433D01*
X28411Y15501D01*
X28289Y15526D01*
X27337D01*
X27215Y15501D01*
X27204Y15494D01*
X26543D01*
X26497Y15551D01*
X26459Y15770D01*
X26661Y15971D01*
X30362D01*
X30576Y15757D01*
Y15437D01*
X30476Y15371D01*
X30359Y15194D01*
X30317Y14986D01*
X30359Y14778D01*
X30476Y14601D01*
X30653Y14484D01*
X30861Y14442D01*
X30996Y14469D01*
X31115Y14234D01*
X31111Y14228D01*
X31096Y14204D01*
X30994Y14051D01*
X30952Y13843D01*
X30994Y13635D01*
X31111Y13458D01*
X31288Y13341D01*
X31496Y13299D01*
X31605Y13321D01*
X31716Y13327D01*
X31878Y13151D01*
X31883Y13127D01*
X32000Y12950D01*
X32177Y12833D01*
X32385Y12791D01*
X32593Y12833D01*
X32641Y12865D01*
X32829Y12930D01*
X33018Y12865D01*
X33066Y12833D01*
X33274Y12791D01*
X33482Y12833D01*
X33659Y12950D01*
X33776Y13127D01*
X33818Y13335D01*
X33776Y13543D01*
X33659Y13720D01*
X33482Y13837D01*
X33274Y13879D01*
X33066Y13837D01*
X33018Y13805D01*
X32829Y13740D01*
X32641Y13805D01*
X32593Y13837D01*
X32385Y13879D01*
X32276Y13857D01*
X32165Y13851D01*
X32003Y14027D01*
X31998Y14051D01*
X31881Y14228D01*
X31704Y14345D01*
X31496Y14387D01*
X31361Y14360D01*
X31242Y14595D01*
X31246Y14601D01*
X31261Y14625D01*
X31363Y14778D01*
X31405Y14986D01*
X31363Y15194D01*
X31246Y15371D01*
X31146Y15437D01*
Y15875D01*
X31146Y15875D01*
X31124Y15984D01*
X31062Y16076D01*
X30786Y16353D01*
X30870Y16628D01*
X30942Y16643D01*
X31119Y16760D01*
X31236Y16937D01*
X31278Y17145D01*
X31518Y17240D01*
X31704Y17278D01*
X31881Y17395D01*
X31998Y17572D01*
X32040Y17780D01*
X32013Y17913D01*
X32132Y18116D01*
X32185Y18167D01*
X32867D01*
Y19355D01*
X33121Y19484D01*
X33193Y19437D01*
X33401Y19395D01*
X33609Y19437D01*
X33635Y19454D01*
X33915Y19350D01*
X33921Y19340D01*
X34032Y19173D01*
X34209Y19056D01*
X34417Y19014D01*
X34625Y19056D01*
X34802Y19173D01*
X34919Y19350D01*
X34961Y19558D01*
X34919Y19766D01*
X34802Y19943D01*
X34625Y20060D01*
X34417Y20102D01*
X34209Y20060D01*
X34183Y20043D01*
X33903Y20147D01*
X33897Y20157D01*
X33786Y20324D01*
X33609Y20441D01*
X33401Y20483D01*
X33193Y20441D01*
X33121Y20394D01*
X32867Y20471D01*
Y20471D01*
X29363D01*
Y19604D01*
X23977D01*
Y20471D01*
X21521D01*
X21463Y20483D01*
X21405Y20471D01*
X20473D01*
Y20459D01*
X20219Y20302D01*
X20193Y20307D01*
Y19685D01*
X20066D01*
Y19558D01*
X19439D01*
X19271Y19309D01*
X18431D01*
X17149Y20591D01*
X17057Y20653D01*
X16948Y20675D01*
X16948Y20675D01*
X15245D01*
Y20992D01*
X14397D01*
Y21094D01*
X13970D01*
Y20390D01*
X13716D01*
Y21094D01*
X13289D01*
Y20992D01*
X12441D01*
Y20675D01*
X12113D01*
X11871Y20916D01*
X11779Y20978D01*
X11670Y21000D01*
X11670Y21000D01*
X11139D01*
Y21292D01*
X9435D01*
Y21000D01*
X8472D01*
Y21292D01*
X6768D01*
Y20583D01*
X6514Y20447D01*
X6508Y20451D01*
Y21716D01*
X6762Y21890D01*
X6768Y21888D01*
Y21888D01*
X8472D01*
Y22180D01*
X9435D01*
Y21888D01*
X11139D01*
Y22180D01*
X11416D01*
X11416Y22180D01*
X11525Y22202D01*
X11617Y22264D01*
X11859Y22505D01*
X12441D01*
Y22188D01*
X13137D01*
X13345Y22188D01*
X13599Y22188D01*
X14295Y22188D01*
X14549Y22188D01*
X15245D01*
Y23392D01*
X15245D01*
X15274Y23634D01*
X15568Y23929D01*
X15630Y24021D01*
X15652Y24130D01*
X15652Y24130D01*
Y24548D01*
X15944D01*
Y24969D01*
X16198Y25055D01*
X16606Y24647D01*
Y24058D01*
X16039D01*
Y22904D01*
X17743D01*
Y24058D01*
X17176D01*
Y24765D01*
X17154Y24874D01*
X17092Y24966D01*
X17092Y24966D01*
X16457Y25601D01*
X16365Y25663D01*
X16256Y25685D01*
X16256Y25685D01*
X15944D01*
Y26252D01*
X14790D01*
Y24548D01*
X15082D01*
Y24248D01*
X14592Y23757D01*
X14530Y23665D01*
X14515Y23590D01*
X14289Y23453D01*
X14128Y23543D01*
Y23876D01*
X14128Y23876D01*
X14106Y23985D01*
X14044Y24077D01*
X13902Y24220D01*
Y24548D01*
X14194D01*
Y26252D01*
X13239D01*
Y27102D01*
X13386D01*
X13475Y27120D01*
X13550Y27170D01*
X13600Y27245D01*
X13606Y27274D01*
X14478D01*
X14478Y27274D01*
X14587Y27296D01*
X14679Y27358D01*
X16062Y28741D01*
X16062Y28741D01*
X16124Y28833D01*
X16146Y28942D01*
Y29882D01*
X16438D01*
Y31586D01*
X15284D01*
Y29882D01*
X15576D01*
Y29060D01*
X14360Y27844D01*
X13606D01*
X13600Y27873D01*
X13550Y27948D01*
X13475Y27998D01*
X13386Y28016D01*
X12536D01*
X12477Y28004D01*
X12412Y28022D01*
X12223Y28147D01*
Y28584D01*
X13258Y29619D01*
X13432Y29780D01*
Y29780D01*
X13432Y29780D01*
X13984D01*
Y30734D01*
Y31688D01*
X13549D01*
Y33020D01*
Y35012D01*
X13612Y35240D01*
X14216D01*
Y35240D01*
X14262D01*
Y35240D01*
X14866D01*
Y36213D01*
X15287D01*
Y36617D01*
X15414D01*
Y36744D01*
X16043D01*
Y37021D01*
X15941D01*
Y37569D01*
X16169Y37632D01*
X16835D01*
X16835Y37632D01*
X16944Y37654D01*
X17036Y37716D01*
X17784Y38463D01*
X17979Y38374D01*
X18024Y38344D01*
X18071Y38106D01*
X18211Y37896D01*
X18421Y37756D01*
X18542Y37732D01*
Y38354D01*
X18669D01*
Y38481D01*
X19291D01*
X19267Y38602D01*
X19127Y38812D01*
X18917Y38952D01*
X18679Y38999D01*
X18649Y39044D01*
X18560Y39239D01*
X20667Y41346D01*
X27352D01*
X27405Y41092D01*
X27351Y41055D01*
X27278Y40946D01*
X27253Y40818D01*
Y40520D01*
X28373D01*
Y40818D01*
X28348Y40946D01*
X28275Y41055D01*
X28221Y41092D01*
X28274Y41346D01*
X32927D01*
X33368Y40906D01*
X33242Y40671D01*
X33242Y40672D01*
X32290D01*
X32168Y40647D01*
X32065Y40579D01*
X31997Y40476D01*
X31972Y40354D01*
Y40149D01*
X31332D01*
Y40441D01*
X29628D01*
Y39287D01*
X31332D01*
Y39579D01*
X31972D01*
Y39402D01*
X31997Y39280D01*
X32004Y39269D01*
Y38582D01*
X31997Y38571D01*
X31972Y38449D01*
Y37497D01*
X31997Y37375D01*
X32065Y37272D01*
X32111Y37242D01*
X32050Y36988D01*
X24454D01*
X24388Y37088D01*
X24211Y37205D01*
X24003Y37247D01*
X23853Y37217D01*
X23715Y37364D01*
X23685Y37423D01*
X23743Y37511D01*
X23785Y37719D01*
X23743Y37927D01*
X23626Y38104D01*
X23449Y38221D01*
X23241Y38263D01*
X23143Y38243D01*
X22954Y38343D01*
X22895Y38433D01*
X22867Y38575D01*
X22749Y38751D01*
X22573Y38869D01*
X22445Y38894D01*
X22354Y38934D01*
X22257Y39148D01*
X22266Y39197D01*
X22259Y39233D01*
X22420Y39332D01*
X22494Y39354D01*
X22652Y39249D01*
X22860Y39207D01*
X23068Y39249D01*
X23245Y39366D01*
X23311Y39466D01*
X24167D01*
Y39287D01*
X25871D01*
Y40441D01*
X24167D01*
Y40036D01*
X23311D01*
X23245Y40136D01*
X23068Y40253D01*
X22860Y40295D01*
X22652Y40253D01*
X22475Y40136D01*
X22358Y39959D01*
X22316Y39751D01*
X22323Y39715D01*
X22162Y39616D01*
X22088Y39594D01*
X21931Y39700D01*
X21723Y39741D01*
X21514Y39700D01*
X21338Y39582D01*
X21271Y39482D01*
X21163D01*
X21163Y39482D01*
X21054Y39460D01*
X20962Y39399D01*
X19611Y38047D01*
X19549Y37955D01*
X19527Y37846D01*
X19527Y37846D01*
Y29337D01*
X19527Y29337D01*
X19549Y29228D01*
X19611Y29136D01*
X21516Y27231D01*
X21516Y27231D01*
X21608Y27169D01*
X21717Y27147D01*
X33918D01*
X34894Y26171D01*
Y21152D01*
X34794Y21086D01*
X34677Y20909D01*
X34635Y20701D01*
X34677Y20493D01*
X34794Y20316D01*
X34971Y20199D01*
X35179Y20157D01*
X35387Y20199D01*
X35402Y20209D01*
X35656Y20073D01*
Y19549D01*
X34749Y18642D01*
X34687Y18549D01*
X34666Y18440D01*
X34666Y18440D01*
Y10176D01*
X34299Y9810D01*
X33011D01*
X32943Y9878D01*
X32947Y10132D01*
X32992Y10173D01*
X33032Y10188D01*
X33066Y10166D01*
X33274Y10124D01*
X33482Y10166D01*
X33659Y10283D01*
X33776Y10460D01*
X33818Y10668D01*
X33776Y10876D01*
X33659Y11053D01*
X33482Y11170D01*
X33274Y11212D01*
X33066Y11170D01*
X33018Y11138D01*
X32829Y11073D01*
X32641Y11138D01*
X32593Y11170D01*
X32385Y11212D01*
X32177Y11170D01*
X32129Y11138D01*
X31941Y11073D01*
X31752Y11138D01*
X31704Y11170D01*
X31496Y11212D01*
X31288Y11170D01*
X31111Y11053D01*
X30994Y10876D01*
X30955Y10683D01*
X30937Y10655D01*
X30730Y10483D01*
X29120D01*
Y10191D01*
X28397D01*
Y10331D01*
X28379Y10420D01*
X28329Y10495D01*
X28254Y10545D01*
X28165Y10563D01*
X27715D01*
X27626Y10545D01*
X27551Y10495D01*
X27501Y10420D01*
X27483Y10331D01*
Y9481D01*
X27501Y9392D01*
X27551Y9317D01*
X27626Y9267D01*
X27715Y9249D01*
X28165D01*
X28254Y9267D01*
X28329Y9317D01*
X28379Y9392D01*
X28397Y9481D01*
Y9621D01*
X29120D01*
Y9329D01*
X30824D01*
Y10132D01*
X31078Y10242D01*
X31211Y10138D01*
Y8500D01*
X31152Y8441D01*
X30824D01*
Y8733D01*
X29120D01*
Y7579D01*
X30824D01*
Y7871D01*
X31270D01*
X31270Y7871D01*
X31379Y7893D01*
X31471Y7955D01*
X31697Y8181D01*
X31759Y8273D01*
X31781Y8382D01*
X31781Y8382D01*
Y9985D01*
X31953Y10085D01*
X32108Y9995D01*
X32122Y9924D01*
X32184Y9832D01*
X32692Y9324D01*
X32692Y9324D01*
X32784Y9262D01*
X32893Y9240D01*
X32893Y9240D01*
X34417D01*
X34417Y9240D01*
X34526Y9262D01*
X34618Y9324D01*
X35152Y9857D01*
X35152Y9857D01*
X35214Y9949D01*
X35235Y10058D01*
X35235Y10058D01*
Y18322D01*
X36142Y19230D01*
X36142Y19230D01*
X36204Y19322D01*
X36226Y19431D01*
Y20885D01*
X36326Y20951D01*
X36443Y21128D01*
X36485Y21336D01*
X36443Y21544D01*
X36326Y21721D01*
X36149Y21838D01*
X35941Y21880D01*
X35733Y21838D01*
X35718Y21828D01*
X35464Y21964D01*
Y26289D01*
X35464Y26289D01*
X35442Y26398D01*
X35380Y26490D01*
X35380Y26490D01*
X35220Y26651D01*
X35280Y26820D01*
X35337Y26893D01*
X37090D01*
X37153Y26639D01*
X37022Y26569D01*
X36693Y26299D01*
X36423Y25970D01*
X36223Y25595D01*
X36099Y25188D01*
X36070Y24892D01*
X38227D01*
X40384D01*
X40355Y25188D01*
X40231Y25595D01*
X40031Y25970D01*
X39761Y26299D01*
X39432Y26569D01*
X39057Y26769D01*
X38691Y26880D01*
X38631Y27003D01*
X38604Y27153D01*
X41603Y30152D01*
X41665Y30244D01*
X41687Y30353D01*
X41687Y30353D01*
Y47388D01*
X41863Y47461D01*
X42006Y47571D01*
X42175Y47521D01*
D02*
G37*
G36*
X21338Y38813D02*
X21514Y38695D01*
X21642Y38669D01*
X21733Y38630D01*
X21831Y38416D01*
X21821Y38367D01*
X21862Y38159D01*
X21980Y37982D01*
X22080Y37916D01*
Y35801D01*
X22080Y35801D01*
X22102Y35692D01*
X22163Y35600D01*
X24056Y33708D01*
X24056Y33708D01*
X24148Y33646D01*
X24257Y33624D01*
X24257Y33624D01*
X29727D01*
X30195Y33156D01*
Y32836D01*
X30095Y32770D01*
X29978Y32593D01*
X29936Y32385D01*
X29978Y32177D01*
X30012Y32125D01*
X29876Y31871D01*
X29363D01*
Y31004D01*
X28452D01*
X28333Y31258D01*
X28411Y31375D01*
X28435Y31496D01*
X27191D01*
X27215Y31375D01*
X27293Y31258D01*
X27174Y31004D01*
X23977D01*
Y31871D01*
X20473D01*
Y29567D01*
X23977D01*
Y30434D01*
X26775D01*
X26829Y30358D01*
X26887Y30180D01*
X26803Y30053D01*
X26761Y29845D01*
X26803Y29637D01*
X26920Y29460D01*
X27020Y29394D01*
Y29337D01*
X27020Y29337D01*
X27042Y29228D01*
X27104Y29136D01*
X28268Y27971D01*
X28163Y27717D01*
X21835D01*
X20097Y29455D01*
Y37728D01*
X21195Y38827D01*
X21338Y38813D01*
D02*
G37*
%LPC*%
G36*
X7421Y29312D02*
X6594D01*
Y28760D01*
X7421D01*
Y29312D01*
D02*
G37*
G36*
X8502Y26855D02*
X7675D01*
Y26303D01*
X8502D01*
Y26855D01*
D02*
G37*
G36*
Y29312D02*
X7675D01*
Y28760D01*
X8502D01*
Y29312D01*
D02*
G37*
G36*
X7421Y26855D02*
X6594D01*
Y26303D01*
X7421D01*
Y26855D01*
D02*
G37*
G36*
X12305Y31688D02*
X11753D01*
Y30861D01*
X12305D01*
Y31688D01*
D02*
G37*
G36*
X10146Y34101D02*
X9594D01*
Y33274D01*
X10146D01*
Y34101D01*
D02*
G37*
G36*
X10952Y33020D02*
X10400D01*
Y32193D01*
X10952D01*
Y33020D01*
D02*
G37*
G36*
Y34101D02*
X10400D01*
Y33274D01*
X10952D01*
Y34101D01*
D02*
G37*
G36*
X10146Y33020D02*
X9594D01*
Y32193D01*
X10146D01*
Y33020D01*
D02*
G37*
G36*
X3028Y41740D02*
X1224D01*
Y39936D01*
X3028D01*
Y41740D01*
D02*
G37*
G36*
X4064Y41770D02*
X3943Y41746D01*
X3733Y41606D01*
X3593Y41396D01*
X3569Y41275D01*
X4064D01*
Y41770D01*
D02*
G37*
G36*
X12178Y42102D02*
X11626D01*
Y41275D01*
X12178D01*
Y42102D01*
D02*
G37*
G36*
X1905Y39025D02*
X1697Y38983D01*
X1520Y38866D01*
X1403Y38689D01*
X1361Y38481D01*
X1393Y38322D01*
X1293Y38171D01*
X1270Y38150D01*
Y37592D01*
X1765D01*
X1741Y37713D01*
X1895Y37939D01*
X1905Y37937D01*
X2113Y37979D01*
X2290Y38096D01*
X2407Y38273D01*
X2449Y38481D01*
X2407Y38689D01*
X2290Y38866D01*
X2113Y38983D01*
X1905Y39025D01*
D02*
G37*
G36*
X4318Y41770D02*
Y41275D01*
X4813D01*
X4789Y41396D01*
X4649Y41606D01*
X4439Y41746D01*
X4318Y41770D01*
D02*
G37*
G36*
X24892Y47152D02*
X24489Y47113D01*
X24101Y46995D01*
X23743Y46804D01*
X23430Y46547D01*
X23173Y46234D01*
X22982Y45876D01*
X22864Y45488D01*
X22825Y45085D01*
X22864Y44682D01*
X22982Y44294D01*
X23173Y43936D01*
X23430Y43623D01*
X23743Y43366D01*
X24101Y43175D01*
X24489Y43057D01*
X24892Y43018D01*
X25295Y43057D01*
X25683Y43175D01*
X26041Y43366D01*
X26354Y43623D01*
X26611Y43936D01*
X26802Y44294D01*
X26920Y44682D01*
X26959Y45085D01*
X26920Y45488D01*
X26802Y45876D01*
X26611Y46234D01*
X26354Y46547D01*
X26041Y46804D01*
X25683Y46995D01*
X25295Y47113D01*
X24892Y47152D01*
D02*
G37*
G36*
X20447D02*
X20044Y47113D01*
X19656Y46995D01*
X19298Y46804D01*
X18985Y46547D01*
X18728Y46234D01*
X18537Y45876D01*
X18419Y45488D01*
X18380Y45085D01*
X18419Y44682D01*
X18537Y44294D01*
X18728Y43936D01*
X18985Y43623D01*
X19298Y43366D01*
X19656Y43175D01*
X20044Y43057D01*
X20447Y43018D01*
X20850Y43057D01*
X21238Y43175D01*
X21596Y43366D01*
X21909Y43623D01*
X22166Y43936D01*
X22357Y44294D01*
X22475Y44682D01*
X22514Y45085D01*
X22475Y45488D01*
X22357Y45876D01*
X22166Y46234D01*
X21909Y46547D01*
X21596Y46804D01*
X21238Y46995D01*
X20850Y47113D01*
X20447Y47152D01*
D02*
G37*
G36*
X29337D02*
X28934Y47113D01*
X28546Y46995D01*
X28188Y46804D01*
X27875Y46547D01*
X27618Y46234D01*
X27427Y45876D01*
X27309Y45488D01*
X27270Y45085D01*
X27309Y44682D01*
X27427Y44294D01*
X27618Y43936D01*
X27875Y43623D01*
X28188Y43366D01*
X28546Y43175D01*
X28934Y43057D01*
X29337Y43018D01*
X29740Y43057D01*
X30128Y43175D01*
X30486Y43366D01*
X30799Y43623D01*
X31056Y43936D01*
X31247Y44294D01*
X31365Y44682D01*
X31404Y45085D01*
X31365Y45488D01*
X31247Y45876D01*
X31056Y46234D01*
X30799Y46547D01*
X30486Y46804D01*
X30128Y46995D01*
X29740Y47113D01*
X29337Y47152D01*
D02*
G37*
G36*
X38227D02*
X37824Y47113D01*
X37436Y46995D01*
X37078Y46804D01*
X36765Y46547D01*
X36508Y46234D01*
X36317Y45876D01*
X36199Y45488D01*
X36160Y45085D01*
X36199Y44682D01*
X36317Y44294D01*
X36508Y43936D01*
X36765Y43623D01*
X37078Y43366D01*
X37436Y43175D01*
X37824Y43057D01*
X38227Y43018D01*
X38630Y43057D01*
X39018Y43175D01*
X39376Y43366D01*
X39689Y43623D01*
X39946Y43936D01*
X40137Y44294D01*
X40255Y44682D01*
X40294Y45085D01*
X40255Y45488D01*
X40137Y45876D01*
X39946Y46234D01*
X39689Y46547D01*
X39376Y46804D01*
X39018Y46995D01*
X38630Y47113D01*
X38227Y47152D01*
D02*
G37*
G36*
X33782D02*
X33379Y47113D01*
X32991Y46995D01*
X32633Y46804D01*
X32320Y46547D01*
X32063Y46234D01*
X31872Y45876D01*
X31754Y45488D01*
X31715Y45085D01*
X31754Y44682D01*
X31872Y44294D01*
X32063Y43936D01*
X32320Y43623D01*
X32633Y43366D01*
X32991Y43175D01*
X33379Y43057D01*
X33782Y43018D01*
X34185Y43057D01*
X34573Y43175D01*
X34931Y43366D01*
X35244Y43623D01*
X35501Y43936D01*
X35692Y44294D01*
X35810Y44682D01*
X35849Y45085D01*
X35810Y45488D01*
X35692Y45876D01*
X35501Y46234D01*
X35244Y46547D01*
X34931Y46804D01*
X34573Y46995D01*
X34185Y47113D01*
X33782Y47152D01*
D02*
G37*
G36*
X2667D02*
X2264Y47113D01*
X1876Y46995D01*
X1518Y46804D01*
X1205Y46547D01*
X948Y46234D01*
X757Y45876D01*
X639Y45488D01*
X600Y45085D01*
X639Y44682D01*
X757Y44294D01*
X948Y43936D01*
X1205Y43623D01*
X1518Y43366D01*
X1876Y43175D01*
X2264Y43057D01*
X2667Y43018D01*
X3070Y43057D01*
X3458Y43175D01*
X3816Y43366D01*
X4129Y43623D01*
X4386Y43936D01*
X4577Y44294D01*
X4695Y44682D01*
X4734Y45085D01*
X4695Y45488D01*
X4577Y45876D01*
X4386Y46234D01*
X4129Y46547D01*
X3816Y46804D01*
X3458Y46995D01*
X3070Y47113D01*
X2667Y47152D01*
D02*
G37*
G36*
X12984Y42102D02*
X12432D01*
Y41275D01*
X12984D01*
Y42102D01*
D02*
G37*
G36*
X7112Y47152D02*
X6709Y47113D01*
X6321Y46995D01*
X5963Y46804D01*
X5650Y46547D01*
X5393Y46234D01*
X5202Y45876D01*
X5084Y45488D01*
X5045Y45085D01*
X5084Y44682D01*
X5202Y44294D01*
X5393Y43936D01*
X5650Y43623D01*
X5963Y43366D01*
X6321Y43175D01*
X6709Y43057D01*
X7112Y43018D01*
X7515Y43057D01*
X7903Y43175D01*
X8261Y43366D01*
X8574Y43623D01*
X8831Y43936D01*
X9022Y44294D01*
X9140Y44682D01*
X9179Y45085D01*
X9140Y45488D01*
X9022Y45876D01*
X8831Y46234D01*
X8574Y46547D01*
X8261Y46804D01*
X7903Y46995D01*
X7515Y47113D01*
X7112Y47152D01*
D02*
G37*
G36*
X16002D02*
X15599Y47113D01*
X15211Y46995D01*
X14853Y46804D01*
X14540Y46547D01*
X14283Y46234D01*
X14092Y45876D01*
X13974Y45488D01*
X13935Y45085D01*
X13974Y44682D01*
X14092Y44294D01*
X14283Y43936D01*
X14540Y43623D01*
X14853Y43366D01*
X15211Y43175D01*
X15599Y43057D01*
X16002Y43018D01*
X16405Y43057D01*
X16793Y43175D01*
X17151Y43366D01*
X17464Y43623D01*
X17721Y43936D01*
X17912Y44294D01*
X18030Y44682D01*
X18069Y45085D01*
X18030Y45488D01*
X17912Y45876D01*
X17721Y46234D01*
X17464Y46547D01*
X17151Y46804D01*
X16793Y46995D01*
X16405Y47113D01*
X16002Y47152D01*
D02*
G37*
G36*
X11557D02*
X11154Y47113D01*
X10766Y46995D01*
X10408Y46804D01*
X10095Y46547D01*
X9838Y46234D01*
X9647Y45876D01*
X9529Y45488D01*
X9490Y45085D01*
X9529Y44682D01*
X9647Y44294D01*
X9838Y43936D01*
X10095Y43623D01*
X10408Y43366D01*
X10766Y43175D01*
X11154Y43057D01*
X11557Y43018D01*
X11960Y43057D01*
X12348Y43175D01*
X12706Y43366D01*
X13019Y43623D01*
X13276Y43936D01*
X13467Y44294D01*
X13585Y44682D01*
X13624Y45085D01*
X13585Y45488D01*
X13467Y45876D01*
X13276Y46234D01*
X13019Y46547D01*
X12706Y46804D01*
X12348Y46995D01*
X11960Y47113D01*
X11557Y47152D01*
D02*
G37*
G36*
X38100Y33817D02*
X37697Y33778D01*
X37309Y33660D01*
X36951Y33469D01*
X36638Y33212D01*
X36381Y32899D01*
X36190Y32541D01*
X36072Y32153D01*
X36033Y31750D01*
X36072Y31347D01*
X36190Y30959D01*
X36381Y30601D01*
X36638Y30288D01*
X36951Y30031D01*
X37309Y29840D01*
X37697Y29722D01*
X38100Y29683D01*
X38503Y29722D01*
X38891Y29840D01*
X39249Y30031D01*
X39562Y30288D01*
X39819Y30601D01*
X40010Y30959D01*
X40128Y31347D01*
X40167Y31750D01*
X40128Y32153D01*
X40010Y32541D01*
X39819Y32899D01*
X39562Y33212D01*
X39249Y33469D01*
X38891Y33660D01*
X38503Y33778D01*
X38100Y33817D01*
D02*
G37*
G36*
X1765Y37338D02*
X1270D01*
Y36843D01*
X1316Y36852D01*
X1478Y36643D01*
X1403Y36530D01*
X1361Y36322D01*
X1403Y36114D01*
X1520Y35937D01*
X1697Y35820D01*
X1905Y35778D01*
X2113Y35820D01*
X2290Y35937D01*
X2407Y36114D01*
X2449Y36322D01*
X2407Y36530D01*
X2290Y36707D01*
X2113Y36824D01*
X1905Y36866D01*
X1772Y36839D01*
X1643Y37071D01*
X1741Y37217D01*
X1765Y37338D01*
D02*
G37*
G36*
X14718Y18861D02*
X14166D01*
Y18034D01*
X14718D01*
Y18861D01*
D02*
G37*
G36*
X19685Y17689D02*
X19477Y17647D01*
X19300Y17530D01*
X19183Y17353D01*
X19179Y17338D01*
X18921D01*
X18917Y17353D01*
X18800Y17530D01*
X18623Y17647D01*
X18415Y17689D01*
X18207Y17647D01*
X18030Y17530D01*
X17913Y17353D01*
X17871Y17145D01*
X17913Y16937D01*
X18030Y16760D01*
X18207Y16643D01*
X18415Y16601D01*
X18623Y16643D01*
X18800Y16760D01*
X18917Y16937D01*
X18921Y16952D01*
X19179D01*
X19183Y16937D01*
X19300Y16760D01*
X19477Y16643D01*
X19685Y16601D01*
X19893Y16643D01*
X20070Y16760D01*
X20187Y16937D01*
X20229Y17145D01*
X20187Y17353D01*
X20070Y17530D01*
X19893Y17647D01*
X19685Y17689D01*
D02*
G37*
G36*
X7366Y16927D02*
X7158Y16885D01*
X6981Y16768D01*
X6864Y16591D01*
X6822Y16383D01*
X6864Y16175D01*
X6981Y15998D01*
X7158Y15881D01*
X7366Y15839D01*
X7574Y15881D01*
X7751Y15998D01*
X7868Y16175D01*
X7910Y16383D01*
X7868Y16591D01*
X7751Y16768D01*
X7574Y16885D01*
X7366Y16927D01*
D02*
G37*
G36*
X13672Y18759D02*
X12518D01*
Y17055D01*
X12810D01*
Y16346D01*
X12518D01*
Y15779D01*
X11725D01*
Y16346D01*
X10571D01*
Y14642D01*
X11725D01*
Y15209D01*
X12518D01*
Y14642D01*
X13672D01*
Y16346D01*
X13380D01*
Y17055D01*
X13672D01*
Y18759D01*
D02*
G37*
G36*
X38227Y19847D02*
X37824Y19808D01*
X37436Y19690D01*
X37078Y19499D01*
X36765Y19242D01*
X36508Y18929D01*
X36317Y18571D01*
X36199Y18183D01*
X36160Y17780D01*
X36199Y17377D01*
X36317Y16989D01*
X36508Y16631D01*
X36765Y16318D01*
X37078Y16061D01*
X37436Y15870D01*
X37824Y15752D01*
X38227Y15713D01*
X38630Y15752D01*
X39018Y15870D01*
X39376Y16061D01*
X39689Y16318D01*
X39946Y16631D01*
X40137Y16989D01*
X40255Y17377D01*
X40294Y17780D01*
X40255Y18183D01*
X40137Y18571D01*
X39946Y18929D01*
X39689Y19242D01*
X39376Y19499D01*
X39018Y19690D01*
X38630Y19808D01*
X38227Y19847D01*
D02*
G37*
G36*
X14718Y17780D02*
X14166D01*
Y16953D01*
X14718D01*
Y17780D01*
D02*
G37*
G36*
X22593Y17399D02*
X22098D01*
Y16904D01*
X22219Y16928D01*
X22429Y17068D01*
X22569Y17278D01*
X22593Y17399D01*
D02*
G37*
G36*
X21844D02*
X21349D01*
X21373Y17278D01*
X21513Y17068D01*
X21723Y16928D01*
X21844Y16904D01*
Y17399D01*
D02*
G37*
G36*
X19939Y20307D02*
X19818Y20283D01*
X19608Y20143D01*
X19468Y19933D01*
X19444Y19812D01*
X19939D01*
Y20307D01*
D02*
G37*
G36*
X40384Y24638D02*
X38354D01*
Y22608D01*
X38650Y22637D01*
X39057Y22761D01*
X39432Y22961D01*
X39761Y23231D01*
X40031Y23560D01*
X40231Y23935D01*
X40355Y24342D01*
X40384Y24638D01*
D02*
G37*
G36*
X38100D02*
X36070D01*
X36099Y24342D01*
X36223Y23935D01*
X36423Y23560D01*
X36693Y23231D01*
X37022Y22961D01*
X37397Y22761D01*
X37804Y22637D01*
X38100Y22608D01*
Y24638D01*
D02*
G37*
G36*
X22098Y24892D02*
X20371D01*
Y23165D01*
X22098D01*
Y24892D01*
D02*
G37*
G36*
X25273Y23876D02*
X24778D01*
X24802Y23755D01*
X24942Y23545D01*
X25152Y23405D01*
X25273Y23381D01*
Y23876D01*
D02*
G37*
G36*
X32969Y24892D02*
X31242D01*
Y23165D01*
X32969D01*
Y24892D01*
D02*
G37*
G36*
X17845Y22410D02*
X17018D01*
Y21858D01*
X17845D01*
Y22410D01*
D02*
G37*
G36*
X40894Y21753D02*
X40686Y21711D01*
X40509Y21594D01*
X40392Y21417D01*
X40350Y21209D01*
X40392Y21001D01*
X40509Y20824D01*
X40686Y20707D01*
X40894Y20665D01*
X41102Y20707D01*
X41279Y20824D01*
X41396Y21001D01*
X41438Y21209D01*
X41396Y21417D01*
X41279Y21594D01*
X41102Y21711D01*
X40894Y21753D01*
D02*
G37*
G36*
X26035Y21372D02*
X25827Y21330D01*
X25650Y21213D01*
X25533Y21036D01*
X25491Y20828D01*
X25533Y20620D01*
X25650Y20443D01*
X25827Y20326D01*
X26035Y20284D01*
X26243Y20326D01*
X26420Y20443D01*
X26537Y20620D01*
X26579Y20828D01*
X26537Y21036D01*
X26420Y21213D01*
X26243Y21330D01*
X26035Y21372D01*
D02*
G37*
G36*
X16764Y21604D02*
X15937D01*
Y21052D01*
X16764D01*
Y21604D01*
D02*
G37*
G36*
Y22410D02*
X15937D01*
Y21858D01*
X16764D01*
Y22410D01*
D02*
G37*
G36*
X17845Y21604D02*
X17018D01*
Y21052D01*
X17845D01*
Y21604D01*
D02*
G37*
G36*
X6720Y15492D02*
X6223D01*
Y14440D01*
X6720D01*
Y15492D01*
D02*
G37*
G36*
X33782Y6512D02*
X33379Y6473D01*
X32991Y6355D01*
X32633Y6164D01*
X32320Y5907D01*
X32063Y5594D01*
X31872Y5236D01*
X31754Y4848D01*
X31715Y4445D01*
X31754Y4042D01*
X31872Y3654D01*
X32063Y3296D01*
X32320Y2983D01*
X32633Y2726D01*
X32991Y2535D01*
X33379Y2417D01*
X33782Y2378D01*
X34185Y2417D01*
X34573Y2535D01*
X34931Y2726D01*
X35244Y2983D01*
X35501Y3296D01*
X35692Y3654D01*
X35810Y4042D01*
X35849Y4445D01*
X35810Y4848D01*
X35692Y5236D01*
X35501Y5594D01*
X35244Y5907D01*
X34931Y6164D01*
X34573Y6355D01*
X34185Y6473D01*
X33782Y6512D01*
D02*
G37*
G36*
X29337D02*
X28934Y6473D01*
X28546Y6355D01*
X28188Y6164D01*
X27875Y5907D01*
X27618Y5594D01*
X27427Y5236D01*
X27309Y4848D01*
X27270Y4445D01*
X27309Y4042D01*
X27427Y3654D01*
X27618Y3296D01*
X27875Y2983D01*
X28188Y2726D01*
X28546Y2535D01*
X28934Y2417D01*
X29337Y2378D01*
X29740Y2417D01*
X30128Y2535D01*
X30486Y2726D01*
X30799Y2983D01*
X31056Y3296D01*
X31247Y3654D01*
X31365Y4042D01*
X31404Y4445D01*
X31365Y4848D01*
X31247Y5236D01*
X31056Y5594D01*
X30799Y5907D01*
X30486Y6164D01*
X30128Y6355D01*
X29740Y6473D01*
X29337Y6512D01*
D02*
G37*
G36*
X38227D02*
X37824Y6473D01*
X37436Y6355D01*
X37078Y6164D01*
X36765Y5907D01*
X36508Y5594D01*
X36317Y5236D01*
X36199Y4848D01*
X36160Y4445D01*
X36199Y4042D01*
X36317Y3654D01*
X36508Y3296D01*
X36765Y2983D01*
X37078Y2726D01*
X37436Y2535D01*
X37824Y2417D01*
X38227Y2378D01*
X38630Y2417D01*
X39018Y2535D01*
X39376Y2726D01*
X39689Y2983D01*
X39946Y3296D01*
X40137Y3654D01*
X40255Y4042D01*
X40294Y4445D01*
X40255Y4848D01*
X40137Y5236D01*
X39946Y5594D01*
X39689Y5907D01*
X39376Y6164D01*
X39018Y6355D01*
X38630Y6473D01*
X38227Y6512D01*
D02*
G37*
G36*
X26863Y7479D02*
X26430D01*
Y7181D01*
X26455Y7053D01*
X26528Y6944D01*
X26637Y6871D01*
X26765Y6846D01*
X26863D01*
Y7479D01*
D02*
G37*
G36*
X38227Y10957D02*
X37824Y10918D01*
X37436Y10800D01*
X37078Y10609D01*
X36765Y10352D01*
X36508Y10039D01*
X36317Y9681D01*
X36199Y9293D01*
X36160Y8890D01*
X36199Y8487D01*
X36317Y8099D01*
X36508Y7741D01*
X36765Y7428D01*
X37078Y7171D01*
X37436Y6980D01*
X37824Y6862D01*
X38227Y6823D01*
X38630Y6862D01*
X39018Y6980D01*
X39376Y7171D01*
X39689Y7428D01*
X39946Y7741D01*
X40137Y8099D01*
X40255Y8487D01*
X40294Y8890D01*
X40255Y9293D01*
X40137Y9681D01*
X39946Y10039D01*
X39689Y10352D01*
X39376Y10609D01*
X39018Y10800D01*
X38630Y10918D01*
X38227Y10957D01*
D02*
G37*
G36*
X24892Y6512D02*
X24489Y6473D01*
X24101Y6355D01*
X23743Y6164D01*
X23430Y5907D01*
X23173Y5594D01*
X22982Y5236D01*
X22864Y4848D01*
X22825Y4445D01*
X22864Y4042D01*
X22982Y3654D01*
X23173Y3296D01*
X23430Y2983D01*
X23743Y2726D01*
X24101Y2535D01*
X24489Y2417D01*
X24892Y2378D01*
X25295Y2417D01*
X25683Y2535D01*
X26041Y2726D01*
X26354Y2983D01*
X26611Y3296D01*
X26802Y3654D01*
X26920Y4042D01*
X26959Y4445D01*
X26920Y4848D01*
X26802Y5236D01*
X26611Y5594D01*
X26354Y5907D01*
X26041Y6164D01*
X25683Y6355D01*
X25295Y6473D01*
X24892Y6512D01*
D02*
G37*
G36*
X7112D02*
X6709Y6473D01*
X6321Y6355D01*
X5963Y6164D01*
X5650Y5907D01*
X5393Y5594D01*
X5202Y5236D01*
X5084Y4848D01*
X5045Y4445D01*
X5084Y4042D01*
X5202Y3654D01*
X5393Y3296D01*
X5650Y2983D01*
X5963Y2726D01*
X6321Y2535D01*
X6709Y2417D01*
X7112Y2378D01*
X7515Y2417D01*
X7903Y2535D01*
X8261Y2726D01*
X8574Y2983D01*
X8831Y3296D01*
X9022Y3654D01*
X9140Y4042D01*
X9179Y4445D01*
X9140Y4848D01*
X9022Y5236D01*
X8831Y5594D01*
X8574Y5907D01*
X8261Y6164D01*
X7903Y6355D01*
X7515Y6473D01*
X7112Y6512D01*
D02*
G37*
G36*
X2667Y6502D02*
X2264Y6463D01*
X1876Y6345D01*
X1518Y6154D01*
X1205Y5897D01*
X948Y5584D01*
X757Y5226D01*
X639Y4838D01*
X600Y4435D01*
X639Y4032D01*
X757Y3644D01*
X948Y3286D01*
X1205Y2973D01*
X1518Y2716D01*
X1876Y2525D01*
X2264Y2407D01*
X2667Y2368D01*
X3070Y2407D01*
X3458Y2525D01*
X3816Y2716D01*
X4129Y2973D01*
X4386Y3286D01*
X4577Y3644D01*
X4695Y4032D01*
X4734Y4435D01*
X4695Y4838D01*
X4577Y5226D01*
X4386Y5584D01*
X4129Y5897D01*
X3816Y6154D01*
X3458Y6345D01*
X3070Y6463D01*
X2667Y6502D01*
D02*
G37*
G36*
X11557Y6512D02*
X11154Y6473D01*
X10766Y6355D01*
X10408Y6164D01*
X10095Y5907D01*
X9838Y5594D01*
X9647Y5236D01*
X9529Y4848D01*
X9490Y4445D01*
X9529Y4042D01*
X9647Y3654D01*
X9838Y3296D01*
X10095Y2983D01*
X10408Y2726D01*
X10766Y2535D01*
X11154Y2417D01*
X11557Y2378D01*
X11960Y2417D01*
X12348Y2535D01*
X12706Y2726D01*
X13019Y2983D01*
X13276Y3296D01*
X13467Y3654D01*
X13585Y4042D01*
X13624Y4445D01*
X13585Y4848D01*
X13467Y5236D01*
X13276Y5594D01*
X13019Y5907D01*
X12706Y6164D01*
X12348Y6355D01*
X11960Y6473D01*
X11557Y6512D01*
D02*
G37*
G36*
X20447D02*
X20044Y6473D01*
X19656Y6355D01*
X19298Y6164D01*
X18985Y5907D01*
X18728Y5594D01*
X18537Y5236D01*
X18419Y4848D01*
X18380Y4445D01*
X18419Y4042D01*
X18537Y3654D01*
X18728Y3296D01*
X18985Y2983D01*
X19298Y2726D01*
X19656Y2535D01*
X20044Y2417D01*
X20447Y2378D01*
X20850Y2417D01*
X21238Y2535D01*
X21596Y2726D01*
X21909Y2983D01*
X22166Y3296D01*
X22357Y3654D01*
X22475Y4042D01*
X22514Y4445D01*
X22475Y4848D01*
X22357Y5236D01*
X22166Y5594D01*
X21909Y5907D01*
X21596Y6164D01*
X21238Y6355D01*
X20850Y6473D01*
X20447Y6512D01*
D02*
G37*
G36*
X16002D02*
X15599Y6473D01*
X15211Y6355D01*
X14853Y6164D01*
X14540Y5907D01*
X14283Y5594D01*
X14092Y5236D01*
X13974Y4848D01*
X13935Y4445D01*
X13974Y4042D01*
X14092Y3654D01*
X14283Y3296D01*
X14540Y2983D01*
X14853Y2726D01*
X15211Y2535D01*
X15599Y2417D01*
X16002Y2378D01*
X16405Y2417D01*
X16793Y2535D01*
X17151Y2726D01*
X17464Y2983D01*
X17721Y3296D01*
X17912Y3654D01*
X18030Y4042D01*
X18069Y4445D01*
X18030Y4848D01*
X17912Y5236D01*
X17721Y5594D01*
X17464Y5907D01*
X17151Y6164D01*
X16793Y6355D01*
X16405Y6473D01*
X16002Y6512D01*
D02*
G37*
G36*
X38227Y15402D02*
X37824Y15363D01*
X37436Y15245D01*
X37078Y15054D01*
X36765Y14797D01*
X36508Y14484D01*
X36317Y14126D01*
X36199Y13738D01*
X36160Y13335D01*
X36199Y12932D01*
X36317Y12544D01*
X36508Y12186D01*
X36765Y11873D01*
X37078Y11616D01*
X37436Y11425D01*
X37824Y11307D01*
X38227Y11268D01*
X38630Y11307D01*
X39018Y11425D01*
X39376Y11616D01*
X39689Y11873D01*
X39946Y12186D01*
X40137Y12544D01*
X40255Y12932D01*
X40294Y13335D01*
X40255Y13738D01*
X40137Y14126D01*
X39946Y14484D01*
X39689Y14797D01*
X39376Y15054D01*
X39018Y15245D01*
X38630Y15363D01*
X38227Y15402D01*
D02*
G37*
G36*
X9975Y16346D02*
X8821D01*
Y14642D01*
X9113D01*
Y13297D01*
X8293D01*
Y11087D01*
X10503D01*
Y13297D01*
X9683D01*
Y14642D01*
X9975D01*
Y16346D01*
D02*
G37*
G36*
X1651Y12806D02*
X1416Y12759D01*
X1217Y12626D01*
X1084Y12427D01*
X1037Y12192D01*
X1084Y11957D01*
X1217Y11758D01*
X1416Y11625D01*
X1651Y11578D01*
X1886Y11625D01*
X2085Y11758D01*
X2218Y11957D01*
X2265Y12192D01*
X2218Y12427D01*
X2085Y12626D01*
X1886Y12759D01*
X1651Y12806D01*
D02*
G37*
G36*
X6720Y14186D02*
X6223D01*
Y13134D01*
X6720D01*
Y14186D01*
D02*
G37*
G36*
X5461Y12806D02*
X5226Y12759D01*
X5027Y12626D01*
X4894Y12427D01*
X4847Y12192D01*
X4894Y11957D01*
X5027Y11758D01*
X5226Y11625D01*
X5461Y11578D01*
X5696Y11625D01*
X5895Y11758D01*
X6028Y11957D01*
X6075Y12192D01*
X6028Y12427D01*
X5895Y12626D01*
X5696Y12759D01*
X5461Y12806D01*
D02*
G37*
G36*
X22098Y13306D02*
X21810Y13268D01*
X21541Y13157D01*
X21310Y12980D01*
X21133Y12749D01*
X21022Y12480D01*
X20984Y12192D01*
X21022Y11904D01*
X21133Y11635D01*
X21310Y11404D01*
X21541Y11227D01*
X21810Y11116D01*
X22098Y11078D01*
X22386Y11116D01*
X22655Y11227D01*
X22886Y11404D01*
X23063Y11635D01*
X23174Y11904D01*
X23212Y12192D01*
X23174Y12480D01*
X23063Y12749D01*
X22886Y12980D01*
X22655Y13157D01*
X22386Y13268D01*
X22098Y13306D01*
D02*
G37*
G36*
X26863Y8366D02*
X26765D01*
X26637Y8341D01*
X26528Y8268D01*
X26455Y8159D01*
X26430Y8031D01*
Y7733D01*
X26863D01*
Y8366D01*
D02*
G37*
G36*
X27550Y7479D02*
X27117D01*
Y6846D01*
X27215D01*
X27343Y6871D01*
X27452Y6944D01*
X27525Y7053D01*
X27550Y7181D01*
Y7479D01*
D02*
G37*
G36*
X27215Y8366D02*
X27117D01*
Y7733D01*
X27550D01*
Y8031D01*
X27525Y8159D01*
X27452Y8268D01*
X27343Y8341D01*
X27215Y8366D01*
D02*
G37*
G36*
X19558Y13306D02*
X19270Y13268D01*
X19001Y13157D01*
X18770Y12980D01*
X18593Y12749D01*
X18482Y12480D01*
X18444Y12192D01*
X18482Y11904D01*
X18593Y11635D01*
X18770Y11404D01*
X19001Y11227D01*
X19270Y11116D01*
X19558Y11078D01*
X19846Y11116D01*
X20115Y11227D01*
X20346Y11404D01*
X20523Y11635D01*
X20634Y11904D01*
X20672Y12192D01*
X20634Y12480D01*
X20523Y12749D01*
X20346Y12980D01*
X20115Y13157D01*
X19846Y13268D01*
X19558Y13306D01*
D02*
G37*
G36*
X26626Y12917D02*
X25472D01*
Y11213D01*
X25755D01*
Y10551D01*
X25726Y10545D01*
X25651Y10495D01*
X25601Y10420D01*
X25583Y10331D01*
Y9481D01*
X25601Y9392D01*
X25651Y9317D01*
X25726Y9267D01*
X25815Y9249D01*
X26265D01*
X26354Y9267D01*
X26429Y9317D01*
X26479Y9392D01*
X26497Y9481D01*
Y10331D01*
X26479Y10420D01*
X26429Y10495D01*
X26354Y10545D01*
X26325Y10551D01*
Y11213D01*
X26626D01*
Y12917D01*
D02*
G37*
G36*
X28373Y40266D02*
X27940D01*
Y39633D01*
X28038D01*
X28166Y39658D01*
X28275Y39731D01*
X28348Y39840D01*
X28373Y39968D01*
Y40266D01*
D02*
G37*
G36*
X27686D02*
X27253D01*
Y39968D01*
X27278Y39840D01*
X27351Y39731D01*
X27460Y39658D01*
X27588Y39633D01*
X27686D01*
Y40266D01*
D02*
G37*
G36*
X28988Y38750D02*
X28538D01*
X28449Y38732D01*
X28374Y38682D01*
X28324Y38607D01*
X28306Y38518D01*
Y37668D01*
X28324Y37579D01*
X28374Y37504D01*
X28449Y37454D01*
X28538Y37436D01*
X28988D01*
X29077Y37454D01*
X29152Y37504D01*
X29202Y37579D01*
X29220Y37668D01*
Y37829D01*
X29628D01*
Y37537D01*
X31332D01*
Y38691D01*
X29628D01*
Y38399D01*
X29220D01*
Y38518D01*
X29202Y38607D01*
X29152Y38682D01*
X29077Y38732D01*
X28988Y38750D01*
D02*
G37*
G36*
X16043Y36490D02*
X15541D01*
Y36213D01*
X16043D01*
Y36490D01*
D02*
G37*
G36*
X19291Y38227D02*
X18796D01*
Y37732D01*
X18917Y37756D01*
X19127Y37896D01*
X19267Y38106D01*
X19291Y38227D01*
D02*
G37*
G36*
X27088Y38750D02*
X26638D01*
X26549Y38732D01*
X26474Y38682D01*
X26424Y38607D01*
X26406Y38518D01*
Y38378D01*
X25871D01*
Y38691D01*
X24167D01*
Y37537D01*
X25871D01*
Y37808D01*
X26406D01*
Y37668D01*
X26424Y37579D01*
X26474Y37504D01*
X26549Y37454D01*
X26638Y37436D01*
X27088D01*
X27177Y37454D01*
X27252Y37504D01*
X27302Y37579D01*
X27320Y37668D01*
Y38518D01*
X27302Y38607D01*
X27252Y38682D01*
X27177Y38732D01*
X27088Y38750D01*
D02*
G37*
G36*
X16891Y37120D02*
X16683Y37078D01*
X16506Y36961D01*
X16389Y36784D01*
X16347Y36576D01*
X16389Y36368D01*
X16506Y36191D01*
X16683Y36074D01*
X16891Y36032D01*
X17099Y36074D01*
X17276Y36191D01*
X17393Y36368D01*
X17435Y36576D01*
X17393Y36784D01*
X17276Y36961D01*
X17099Y37078D01*
X16891Y37120D01*
D02*
G37*
G36*
X14790Y30607D02*
X14238D01*
Y29780D01*
X14790D01*
Y30607D01*
D02*
G37*
G36*
X22098Y26873D02*
X20371D01*
Y25146D01*
X22098D01*
Y26873D01*
D02*
G37*
G36*
X26022Y23876D02*
X25527D01*
Y23381D01*
X25648Y23405D01*
X25858Y23545D01*
X25998Y23755D01*
X26022Y23876D01*
D02*
G37*
G36*
X32969Y26873D02*
X31242D01*
Y25146D01*
X32969D01*
Y26873D01*
D02*
G37*
G36*
X30988D02*
X29261D01*
Y25304D01*
X24079D01*
Y26873D01*
X22352D01*
Y25019D01*
Y23165D01*
X24079D01*
Y24734D01*
X24894D01*
X24971Y24480D01*
X24942Y24461D01*
X24802Y24251D01*
X24778Y24130D01*
X26022D01*
X25998Y24251D01*
X25858Y24461D01*
X25829Y24480D01*
X25906Y24734D01*
X29261D01*
Y23165D01*
X30988D01*
Y25019D01*
Y26873D01*
D02*
G37*
G36*
X16891Y35723D02*
X16683Y35681D01*
X16506Y35564D01*
X16389Y35387D01*
X16347Y35179D01*
X16389Y34971D01*
X16506Y34794D01*
X16683Y34677D01*
X16891Y34635D01*
X17099Y34677D01*
X17276Y34794D01*
X17393Y34971D01*
X17435Y35179D01*
X17393Y35387D01*
X17276Y35564D01*
X17099Y35681D01*
X16891Y35723D01*
D02*
G37*
G36*
X14790Y31688D02*
X14238D01*
Y30861D01*
X14790D01*
Y31688D01*
D02*
G37*
G36*
X17780Y33056D02*
X17572Y33014D01*
X17395Y32897D01*
X17278Y32720D01*
X17236Y32512D01*
X17278Y32304D01*
X17395Y32127D01*
X17572Y32010D01*
X17780Y31968D01*
X17988Y32010D01*
X18165Y32127D01*
X18282Y32304D01*
X18324Y32512D01*
X18282Y32720D01*
X18165Y32897D01*
X17988Y33014D01*
X17780Y33056D01*
D02*
G37*
G36*
X27686Y32245D02*
X27565Y32221D01*
X27355Y32081D01*
X27215Y31871D01*
X27191Y31750D01*
X27686D01*
Y32245D01*
D02*
G37*
G36*
X27940D02*
Y31750D01*
X28435D01*
X28411Y31871D01*
X28271Y32081D01*
X28061Y32221D01*
X27940Y32245D01*
D02*
G37*
%LPD*%
D10*
X2152Y27813D02*
D03*
D11*
X4952Y29313D02*
D03*
Y26313D02*
D03*
D12*
X4902Y27813D02*
D03*
D13*
X29972Y9906D02*
D03*
Y8156D02*
D03*
X30480Y38114D02*
D03*
Y39864D02*
D03*
X8509Y38608D02*
D03*
Y40358D02*
D03*
Y36830D02*
D03*
Y35080D02*
D03*
X7548Y25232D02*
D03*
Y26982D02*
D03*
Y30383D02*
D03*
Y28633D02*
D03*
X10287Y20715D02*
D03*
Y22465D02*
D03*
X7620Y20715D02*
D03*
Y22465D02*
D03*
X16891Y23481D02*
D03*
Y21731D02*
D03*
X25019Y39864D02*
D03*
Y38114D02*
D03*
D14*
X26049Y12065D02*
D03*
X27799D02*
D03*
X12305Y41148D02*
D03*
X10555D02*
D03*
X9398Y15494D02*
D03*
X11148D02*
D03*
X13095D02*
D03*
X14845D02*
D03*
X13095Y17907D02*
D03*
X14845D02*
D03*
X13617Y25400D02*
D03*
X15367D02*
D03*
X14111Y30734D02*
D03*
X15861D02*
D03*
X10682D02*
D03*
X12432D02*
D03*
X10273Y33147D02*
D03*
X8523D02*
D03*
D15*
X27813Y40393D02*
D03*
X28763Y38093D02*
D03*
X26863D02*
D03*
X26990Y7606D02*
D03*
X26040Y9906D02*
D03*
X27940D02*
D03*
D16*
X32766Y39878D02*
D03*
Y37973D02*
D03*
D17*
X27813Y14732D02*
D03*
X25908D02*
D03*
D18*
X14564Y39417D02*
D03*
D19*
X13914D02*
D03*
X13264D02*
D03*
X12614D02*
D03*
Y35767D02*
D03*
X13264D02*
D03*
X13914D02*
D03*
X14564D02*
D03*
D20*
X11764Y38567D02*
D03*
Y37917D02*
D03*
Y37267D02*
D03*
Y36617D02*
D03*
X15414D02*
D03*
Y37267D02*
D03*
Y37917D02*
D03*
Y38567D02*
D03*
D21*
X13589Y37592D02*
D03*
D22*
X4826Y37338D02*
D03*
Y37988D02*
D03*
Y38638D02*
D03*
Y36688D02*
D03*
Y36038D02*
D03*
D23*
X6096Y10063D02*
D03*
X4826D02*
D03*
X3556D02*
D03*
X2286D02*
D03*
X1016D02*
D03*
X6096Y14313D02*
D03*
X4826D02*
D03*
X3556D02*
D03*
X2286D02*
D03*
X1016D02*
D03*
D24*
X31115Y19319D02*
D03*
Y30719D02*
D03*
X22225D02*
D03*
Y19319D02*
D03*
D25*
X31115Y25019D02*
D03*
X22225D02*
D03*
D26*
X12893Y22790D02*
D03*
X13843D02*
D03*
X14793D02*
D03*
Y20390D02*
D03*
X13843D02*
D03*
X12893D02*
D03*
D27*
X12961Y27559D02*
D03*
X10661Y26609D02*
D03*
Y28509D02*
D03*
D28*
X3203Y31496D02*
D03*
X5433D02*
D03*
D29*
X35179Y20701D02*
Y26289D01*
X19812Y29337D02*
Y37846D01*
X32385Y10033D02*
Y10668D01*
Y10033D02*
X32893Y9525D01*
X34417D01*
X16002Y17907D02*
X16383Y17526D01*
X14845Y17907D02*
X16002D01*
X24257Y33909D02*
X29845D01*
X13914Y39417D02*
Y40584D01*
X22225Y30719D02*
X31115D01*
X14793Y20390D02*
X16948D01*
X3429Y34290D02*
Y38481D01*
X3586Y38638D01*
X4572Y33147D02*
X6604D01*
X3429Y34290D02*
X4572Y33147D01*
X6604D02*
X7056Y32695D01*
Y31496D02*
Y32695D01*
X4826Y30383D02*
X7548D01*
X11938Y10541D02*
Y12192D01*
X11460Y10063D02*
X11938Y10541D01*
X6096Y10063D02*
X11460D01*
X4826Y14313D02*
Y15494D01*
Y8255D02*
Y10063D01*
X2286Y14313D02*
Y16383D01*
X12954Y27552D02*
X12961Y27559D01*
X12954Y26063D02*
Y27552D01*
Y26063D02*
X13617Y25400D01*
X10661Y25774D02*
Y26609D01*
X10119Y25232D02*
X10661Y25774D01*
X7548Y25232D02*
X10119D01*
X12961Y27559D02*
X14478D01*
X15861Y28942D01*
Y30734D01*
X3586Y38638D02*
X4826D01*
X7056Y31496D02*
X9017D01*
X9779Y30734D01*
X10682D01*
X16383Y14351D02*
Y17526D01*
X14478Y12446D02*
X16383Y14351D01*
X14478Y12192D02*
Y12446D01*
X14845Y14337D02*
Y15494D01*
X14351Y13843D02*
X14845Y14337D01*
X12319Y13843D02*
X14351D01*
X11938Y13462D02*
X12319Y13843D01*
X11938Y12192D02*
Y13462D01*
X13095Y15494D02*
Y17907D01*
X11148Y15494D02*
X13095D01*
X9398Y12192D02*
Y15494D01*
X4760Y29244D02*
X4826Y29310D01*
X10661Y30713D02*
X10682Y30734D01*
X10661Y28509D02*
Y30713D01*
X16891Y23481D02*
Y24765D01*
X16256Y25400D02*
X16891Y24765D01*
X15367Y25400D02*
X16256D01*
X14605Y19558D02*
X14793Y19746D01*
X6731Y19558D02*
X14605D01*
X14793Y19746D02*
Y20390D01*
X6590Y22465D02*
X7620D01*
X10287D02*
X11416D01*
X7620D02*
X10287D01*
X11741Y22790D02*
X12893D01*
X11416Y22465D02*
X11741Y22790D01*
X10287Y20715D02*
X11670D01*
X7620D02*
X10287D01*
X11670D02*
X11995Y20390D01*
X12893D01*
X15367Y24130D02*
Y25400D01*
X14793Y23556D02*
X15367Y24130D01*
X14793Y22790D02*
Y23556D01*
X13617Y24102D02*
Y25400D01*
Y24102D02*
X13843Y23876D01*
Y22790D02*
Y23876D01*
X7548Y27744D02*
Y28633D01*
Y26982D02*
Y27744D01*
X27799Y14718D02*
X27813Y14732D01*
X27799Y12065D02*
Y14718D01*
X29972Y8156D02*
X31270D01*
X31496Y8382D01*
Y10668D01*
X27940Y9906D02*
X29972D01*
X26040Y12056D02*
X26049Y12065D01*
X26040Y9906D02*
Y12056D01*
X32752Y39864D02*
X32766Y39878D01*
X30480Y39864D02*
X32752D01*
X28763Y38093D02*
X28784Y38114D01*
X30480D01*
X25019D02*
X25040Y38093D01*
X26863D01*
X8509Y35080D02*
X10315D01*
X10555Y38340D02*
Y41148D01*
Y38340D02*
X10978Y37917D01*
X8495Y40372D02*
Y41007D01*
X8636Y41148D01*
X10555D01*
X8509Y33514D02*
Y35080D01*
X8495Y40372D02*
X8509Y40358D01*
X7889Y37988D02*
X8509Y38608D01*
X8001Y37338D02*
X8509Y36830D01*
X4826Y37988D02*
X7889D01*
X4826Y37338D02*
X8001D01*
X27305Y29337D02*
Y29845D01*
X41402Y30353D02*
Y48260D01*
X19812Y29337D02*
X21717Y27432D01*
X34036D01*
X35179Y26289D01*
X34417Y9525D02*
X34950Y10058D01*
Y18440D01*
X35941Y19431D01*
Y21336D01*
X25908Y14732D02*
Y15621D01*
X26543Y16256D01*
X30480D01*
X30861Y15875D01*
Y14986D02*
Y15875D01*
X27305Y29337D02*
X28702Y27940D01*
X34544D01*
X35306Y27178D01*
X38227D01*
X41402Y30353D01*
X32766Y37973D02*
X33528D01*
X34290Y28956D02*
X35052Y28194D01*
X35941D01*
X22225Y19319D02*
X31115D01*
X22225Y25019D02*
X31115D01*
X7507Y25273D02*
X7548Y25232D01*
X4760Y25339D02*
Y26244D01*
Y25339D02*
X4826Y25273D01*
X2413D02*
X4826D01*
X7507D01*
X11764Y33575D02*
X12319Y33020D01*
X13264D01*
Y30028D02*
Y33020D01*
X11938Y28702D02*
X13264Y30028D01*
X10661Y26609D02*
X11496D01*
X11938Y27051D01*
Y28702D01*
X14564Y39417D02*
X15414D01*
X15494Y39497D01*
X16764D01*
X21640Y19319D02*
X22225D01*
X13914Y40584D02*
X15748Y42418D01*
X33782D01*
X15414Y37917D02*
X16835D01*
X20549Y41631D01*
X33045D01*
X5433Y31496D02*
X7056D01*
X3526Y30383D02*
X4826D01*
X3203Y30706D02*
X3526Y30383D01*
X3203Y30706D02*
Y31496D01*
X4826Y29310D02*
Y30383D01*
X10851Y37267D02*
X11764D01*
X10978Y37917D02*
X11764D01*
Y33575D02*
Y36617D01*
X13264Y33020D02*
Y35767D01*
X6223Y20066D02*
X6731Y19558D01*
X6223Y20066D02*
Y22098D01*
X6590Y22465D01*
X10315Y35080D02*
X10668Y35433D01*
Y37084D01*
X10851Y37267D01*
X18313Y19025D02*
X21346D01*
X16948Y20390D02*
X18313Y19025D01*
X21346D02*
X21640Y19319D01*
X21163Y39197D02*
X21723D01*
X19812Y37846D02*
X21163Y39197D01*
X22365Y35801D02*
X24257Y33909D01*
X22365Y35801D02*
Y38367D01*
X22860Y39751D02*
X24906D01*
X24701Y35687D02*
X32385D01*
X23241Y35560D02*
Y37719D01*
X24003Y36703D02*
X32385D01*
X34290Y28956D02*
Y30562D01*
X30480Y32385D02*
Y33274D01*
X29845Y33909D02*
X30480Y33274D01*
X32385Y36703D02*
X33909Y35179D01*
X33528Y37973D02*
X34569Y36932D01*
X32385Y35687D02*
X33147Y34925D01*
X24975Y35027D02*
X25127Y35179D01*
X31750D01*
X23774Y35027D02*
X24975D01*
X23241Y35560D02*
X23774Y35027D01*
X31750Y35179D02*
X32436Y34493D01*
X32360Y34417D02*
X32436Y34493D01*
X33147Y32258D02*
Y34925D01*
X33909Y31115D02*
Y35179D01*
X34290Y30562D02*
X34569Y30841D01*
Y36932D01*
X35052Y29718D02*
Y39624D01*
X33045Y41631D02*
X35052Y39624D01*
X33782Y42418D02*
X35718Y40482D01*
Y33817D02*
Y40482D01*
X4710Y27744D02*
X7548D01*
D30*
X41275Y1270D02*
D03*
X41402Y48260D02*
D03*
D31*
X38227Y24765D02*
D03*
X38100Y31750D02*
D03*
Y36195D02*
D03*
Y40640D02*
D03*
X38227Y45085D02*
D03*
X33782D02*
D03*
X29337D02*
D03*
X24892D02*
D03*
X20447D02*
D03*
X16002D02*
D03*
X11557D02*
D03*
X7112D02*
D03*
X2667D02*
D03*
X38227Y17780D02*
D03*
Y13335D02*
D03*
Y8890D02*
D03*
Y4445D02*
D03*
X29337D02*
D03*
X24892D02*
D03*
X20447D02*
D03*
X33782D02*
D03*
X16002D02*
D03*
X11557D02*
D03*
X7112D02*
D03*
X2667Y4435D02*
D03*
D32*
X19558Y12192D02*
D03*
X17018D02*
D03*
X11938D02*
D03*
X14478D02*
D03*
X22098D02*
D03*
D33*
X9398D02*
D03*
D34*
X4826Y34838D02*
D03*
Y39838D02*
D03*
D35*
X2126Y40838D02*
D03*
Y33838D02*
D03*
D36*
X1651Y12192D02*
D03*
X5461D02*
D03*
D37*
X35179Y20701D02*
D03*
X35941Y21336D02*
D03*
X17780Y32512D02*
D03*
X16891Y35179D02*
D03*
Y36576D02*
D03*
X19685Y17145D02*
D03*
X18415D02*
D03*
X17145Y17780D02*
D03*
X1905Y38481D02*
D03*
Y36322D02*
D03*
X4826Y15494D02*
D03*
Y8255D02*
D03*
X2286Y16383D02*
D03*
X7366D02*
D03*
X40894Y21209D02*
D03*
X30734Y17145D02*
D03*
X33274Y10668D02*
D03*
X32385D02*
D03*
Y13335D02*
D03*
X33274D02*
D03*
X31496Y10668D02*
D03*
X27305Y29845D02*
D03*
X30861Y14986D02*
D03*
X35941Y28194D02*
D03*
X26035Y20828D02*
D03*
X2413Y25273D02*
D03*
X16764Y39497D02*
D03*
X1143Y25019D02*
D03*
X21971Y17526D02*
D03*
X25400Y24003D02*
D03*
X1143Y37465D02*
D03*
X4191Y41148D02*
D03*
X9906Y36322D02*
D03*
X27813Y31623D02*
D03*
X22225Y30719D02*
D03*
X12827Y37592D02*
D03*
X18669Y38354D02*
D03*
X23241Y37719D02*
D03*
X33401Y19939D02*
D03*
X34417Y19558D02*
D03*
X31496Y17780D02*
D03*
X29972D02*
D03*
X31496Y13843D02*
D03*
X21463Y19939D02*
D03*
X20066Y19685D02*
D03*
X21723Y39197D02*
D03*
X22860Y39751D02*
D03*
X22365Y38367D02*
D03*
X24701Y35687D02*
D03*
X24003Y36703D02*
D03*
X30480Y32385D02*
D03*
X35052Y29718D02*
D03*
X31242Y34290D02*
D03*
Y33147D02*
D03*
X32436Y34493D02*
D03*
X33147Y32258D02*
D03*
X33909Y31115D02*
D03*
X35718Y33817D02*
D03*
M02*
