G04 Layer_Physical_Order=4*
G04 Layer_Color=16711680*
%FSLAX43Y43*%
%MOMM*%
G71*
G01*
G75*
%ADD13R,1.400X0.850*%
%ADD14R,0.850X1.400*%
%ADD29C,0.254*%
%ADD30C,1.524*%
%ADD31C,3.810*%
%ADD32C,1.905*%
%ADD33R,1.905X1.905*%
%ADD34R,1.250X1.250*%
%ADD35R,1.500X1.500*%
%ADD36C,0.900*%
%ADD37C,0.762*%
G04:AMPARAMS|DCode=38|XSize=0.25mm|YSize=0.55mm|CornerRadius=0.063mm|HoleSize=0mm|Usage=FLASHONLY|Rotation=270.000|XOffset=0mm|YOffset=0mm|HoleType=Round|Shape=RoundedRectangle|*
%AMROUNDEDRECTD38*
21,1,0.250,0.425,0,0,270.0*
21,1,0.125,0.550,0,0,270.0*
1,1,0.125,-0.212,-0.063*
1,1,0.125,-0.212,0.063*
1,1,0.125,0.212,0.063*
1,1,0.125,0.212,-0.063*
%
%ADD38ROUNDEDRECTD38*%
%ADD39R,0.550X0.250*%
%ADD40R,0.250X0.550*%
G04:AMPARAMS|DCode=41|XSize=3mm|YSize=0.85mm|CornerRadius=0.212mm|HoleSize=0mm|Usage=FLASHONLY|Rotation=270.000|XOffset=0mm|YOffset=0mm|HoleType=Round|Shape=RoundedRectangle|*
%AMROUNDEDRECTD41*
21,1,3.000,0.425,0,0,270.0*
21,1,2.575,0.850,0,0,270.0*
1,1,0.425,-0.212,-1.288*
1,1,0.425,-0.212,1.288*
1,1,0.425,0.212,1.288*
1,1,0.425,0.212,-1.288*
%
%ADD41ROUNDEDRECTD41*%
G04:AMPARAMS|DCode=42|XSize=0.85mm|YSize=3mm|CornerRadius=0.212mm|HoleSize=0mm|Usage=FLASHONLY|Rotation=270.000|XOffset=0mm|YOffset=0mm|HoleType=Round|Shape=RoundedRectangle|*
%AMROUNDEDRECTD42*
21,1,0.850,2.575,0,0,270.0*
21,1,0.425,3.000,0,0,270.0*
1,1,0.425,-1.288,-0.212*
1,1,0.425,-1.288,0.212*
1,1,0.425,1.288,0.212*
1,1,0.425,1.288,-0.212*
%
%ADD42ROUNDEDRECTD42*%
%ADD43O,0.900X0.250*%
%ADD44O,0.250X0.900*%
%ADD45R,2.600X2.600*%
%ADD46R,4.180X4.180*%
%ADD47O,0.300X0.700*%
%ADD48O,0.700X0.300*%
%ADD49R,1.400X1.800*%
G36*
X42260Y19596D02*
X39833D01*
X39799Y19582D01*
X39762Y19580D01*
X39743Y19559D01*
X39716Y19548D01*
X39489Y19434D01*
X39463Y19427D01*
X39376Y19499D01*
X39018Y19690D01*
X38630Y19808D01*
X38227Y19847D01*
X37824Y19808D01*
X37436Y19690D01*
X37078Y19499D01*
X36765Y19242D01*
X36508Y18929D01*
X36317Y18571D01*
X36199Y18183D01*
X36188Y18065D01*
X36068D01*
X35959Y18043D01*
X35867Y17981D01*
X35867Y17981D01*
X34851Y16965D01*
X34789Y16873D01*
X34767Y16764D01*
X34767Y16764D01*
Y16167D01*
X34701Y15940D01*
X34513Y15940D01*
X34149D01*
Y14986D01*
X34022D01*
Y14859D01*
X33343D01*
Y14124D01*
X33307Y13998D01*
X33162Y13857D01*
X33066Y13837D01*
X33018Y13805D01*
X32829Y13740D01*
X32641Y13805D01*
X32593Y13837D01*
X32385Y13879D01*
X32345Y13871D01*
X32338Y13880D01*
X32461Y14133D01*
X32462Y14134D01*
X32849D01*
Y15838D01*
X31695D01*
Y15271D01*
X31312D01*
X31246Y15371D01*
X31069Y15488D01*
X30861Y15530D01*
X30653Y15488D01*
X30476Y15371D01*
X30410Y15271D01*
X29464D01*
X29355Y15249D01*
X29263Y15187D01*
X29263Y15187D01*
X29124Y15048D01*
X29062Y14956D01*
X29055Y14920D01*
X29028Y14848D01*
X28793Y14757D01*
X28610Y14934D01*
Y16506D01*
X28610Y16506D01*
X28588Y16615D01*
X28526Y16707D01*
X28526Y16707D01*
X28014Y17219D01*
X27922Y17281D01*
X27813Y17303D01*
X27628Y17462D01*
Y17870D01*
X26474D01*
Y16166D01*
X27628D01*
Y16438D01*
X27845Y16530D01*
X28040Y16372D01*
Y15521D01*
X27786Y15416D01*
X27506Y15695D01*
X27414Y15757D01*
X27305Y15779D01*
X27305Y15779D01*
X24638D01*
X24529Y15757D01*
X24437Y15695D01*
X24437Y15695D01*
X23384Y14643D01*
X20955D01*
X20838Y14595D01*
X20806Y14516D01*
X18694D01*
X18685Y14527D01*
X18602Y14770D01*
X19886Y16055D01*
X19886Y16055D01*
X19948Y16147D01*
X19970Y16256D01*
Y16694D01*
X20070Y16760D01*
X20187Y16937D01*
X20229Y17145D01*
X20187Y17353D01*
X20070Y17530D01*
X19893Y17647D01*
X19685Y17689D01*
X19477Y17647D01*
X19300Y17530D01*
X19183Y17353D01*
X19179Y17338D01*
X18921D01*
X18917Y17353D01*
X18800Y17530D01*
X18697Y17598D01*
X18625Y17886D01*
X18869Y18130D01*
X21310D01*
X21441Y17876D01*
X21373Y17774D01*
X21349Y17653D01*
X22593D01*
X22569Y17774D01*
X22501Y17876D01*
X22632Y18130D01*
X24434D01*
X24622Y17972D01*
X24622Y17876D01*
Y17145D01*
X25301D01*
X25980D01*
Y17876D01*
X25980Y17972D01*
X26169Y18130D01*
X27822D01*
X29745Y16207D01*
X29745Y16207D01*
X29838Y16145D01*
X29947Y16124D01*
X29947Y16124D01*
X31902D01*
X31902Y16124D01*
X32011Y16145D01*
X32104Y16207D01*
X32885Y16989D01*
X32885Y16989D01*
X32947Y17081D01*
X32969Y17190D01*
X32969Y17190D01*
Y19281D01*
X33159Y19413D01*
X33223Y19431D01*
X33401Y19395D01*
X33609Y19437D01*
X33635Y19454D01*
X33915Y19350D01*
X33921Y19340D01*
X34032Y19173D01*
X34209Y19056D01*
X34417Y19014D01*
X34625Y19056D01*
X34802Y19173D01*
X34919Y19350D01*
X34961Y19558D01*
X34919Y19766D01*
X34853Y19866D01*
X34865Y19980D01*
X34869Y19990D01*
X35110Y20171D01*
X35179Y20157D01*
X35387Y20199D01*
X35564Y20316D01*
X35681Y20493D01*
X35723Y20701D01*
X35963Y20796D01*
X36149Y20834D01*
X36326Y20951D01*
X36419Y21091D01*
X36571Y21084D01*
X36673Y21049D01*
Y20255D01*
X37225D01*
Y21209D01*
Y22163D01*
X36673D01*
Y21623D01*
X36571Y21588D01*
X36419Y21581D01*
X36326Y21721D01*
X36149Y21838D01*
X35941Y21880D01*
X35870Y21938D01*
Y23851D01*
X35870Y23851D01*
X35849Y23960D01*
X35787Y24052D01*
X35787Y24052D01*
X34872Y24966D01*
X34860Y24975D01*
X34830Y25046D01*
X34813Y25214D01*
X34825Y25278D01*
X36142Y26596D01*
X36142Y26596D01*
X36204Y26688D01*
X36226Y26797D01*
X36226Y26797D01*
Y27743D01*
X36326Y27809D01*
X36392Y27909D01*
X36775D01*
Y27342D01*
X37929D01*
Y28918D01*
X37929Y29046D01*
X38131Y29172D01*
X38179D01*
X38423Y29148D01*
X38423Y28918D01*
Y28321D01*
X39781D01*
Y28918D01*
X39781Y29148D01*
X40025Y29172D01*
X42260D01*
Y19596D01*
D02*
G37*
G36*
X27055Y25696D02*
X27136Y25542D01*
X27734D01*
Y25288D01*
X27147D01*
X27153Y25257D01*
X27189Y25204D01*
X27316Y24983D01*
X27249Y24883D01*
X27226Y24765D01*
X27248Y24654D01*
X27249Y24647D01*
X27114Y24400D01*
X27036D01*
X27036Y24400D01*
X26927Y24378D01*
X26835Y24316D01*
X26835Y24316D01*
X26469Y23950D01*
X26407Y23858D01*
X26385Y23749D01*
X26385Y23749D01*
Y21581D01*
X26153Y21348D01*
X26035Y21372D01*
X25827Y21330D01*
X25776Y21296D01*
X25522Y21432D01*
Y22184D01*
X24695D01*
Y21157D01*
X25317D01*
X25340Y21144D01*
X25506Y20903D01*
X25491Y20828D01*
X25533Y20620D01*
X25650Y20443D01*
X25750Y20377D01*
Y19422D01*
X25573Y19244D01*
X24922D01*
Y19812D01*
X23564D01*
Y19244D01*
X23070D01*
Y20791D01*
X22778D01*
Y21259D01*
X23020D01*
Y23363D01*
X22453D01*
Y23828D01*
X22978Y24353D01*
X24588D01*
X24749Y24130D01*
X26022D01*
X25998Y24251D01*
X25858Y24461D01*
X25706Y24563D01*
X25628Y24844D01*
X26564Y25780D01*
X26987D01*
X27055Y25696D01*
D02*
G37*
G36*
X30525Y35930D02*
X31672D01*
X32015Y35587D01*
X32015Y35587D01*
X32108Y35525D01*
X32217Y35504D01*
X32217Y35504D01*
X34965D01*
X35882Y34588D01*
X35756Y34354D01*
X35718Y34361D01*
X35510Y34320D01*
X35333Y34202D01*
X35215Y34025D01*
X35174Y33817D01*
X35215Y33609D01*
X35333Y33433D01*
X35433Y33366D01*
Y31741D01*
X34688Y30996D01*
X34453Y31115D01*
X34411Y31323D01*
X34294Y31500D01*
X34117Y31617D01*
X33909Y31659D01*
X33840Y31645D01*
X33599Y31826D01*
X33595Y31836D01*
X33583Y31950D01*
X33649Y32050D01*
X33691Y32258D01*
X33649Y32466D01*
X33532Y32643D01*
X33355Y32760D01*
X33147Y32802D01*
X32939Y32760D01*
X32924Y32750D01*
X32670Y32886D01*
Y34008D01*
X32820Y34109D01*
X32938Y34285D01*
X32980Y34493D01*
X32938Y34701D01*
X32820Y34878D01*
X32644Y34996D01*
X32436Y35037D01*
X32228Y34996D01*
X32051Y34878D01*
X31933Y34701D01*
X31929Y34679D01*
X31659Y34626D01*
X31627Y34675D01*
X31450Y34792D01*
X31242Y34834D01*
X31034Y34792D01*
X30857Y34675D01*
X30740Y34498D01*
X30698Y34290D01*
X30740Y34082D01*
X30857Y33905D01*
X30917Y33866D01*
Y33571D01*
X30857Y33532D01*
X30740Y33355D01*
X30698Y33147D01*
X30699Y33144D01*
X30483Y32928D01*
X30480Y32929D01*
X30272Y32887D01*
X30095Y32770D01*
X29978Y32593D01*
X29936Y32385D01*
X29978Y32177D01*
X30095Y32000D01*
X30195Y31934D01*
Y31173D01*
X28583Y29560D01*
X28521Y29468D01*
X28499Y29359D01*
X28499Y29359D01*
Y28083D01*
X28476Y27965D01*
Y27565D01*
X28499Y27447D01*
X28555Y27363D01*
X28537Y27278D01*
X28465Y27109D01*
X28390D01*
Y27034D01*
X28221Y26962D01*
X28136Y26944D01*
X28052Y27000D01*
X27934Y27023D01*
X27534D01*
X27416Y27000D01*
X25420D01*
Y27763D01*
X24528D01*
Y28231D01*
X24820D01*
Y29935D01*
X23666D01*
Y28231D01*
X23958D01*
Y27763D01*
X23716D01*
Y25659D01*
X25278D01*
X25383Y25405D01*
X24901Y24923D01*
X22860D01*
X22860Y24923D01*
X22751Y24901D01*
X22659Y24839D01*
X22659Y24839D01*
X21967Y24147D01*
X21905Y24055D01*
X21883Y23946D01*
X21883Y23946D01*
Y23363D01*
X21316D01*
Y23363D01*
X21082Y23413D01*
Y25358D01*
X21214Y25557D01*
X21336Y25557D01*
X22041D01*
Y26711D01*
Y27865D01*
X21336D01*
X21214Y27865D01*
X21082Y28064D01*
Y31982D01*
X22837Y33737D01*
X23151D01*
Y33445D01*
X24855D01*
Y34599D01*
X25093Y34640D01*
X26162D01*
X26162Y34640D01*
X26271Y34662D01*
X26363Y34724D01*
X26796Y35156D01*
X27063Y35084D01*
X27064Y35082D01*
X27125Y34990D01*
X27217Y34929D01*
X27325Y34907D01*
X27433Y34929D01*
X27525Y34990D01*
X27625D01*
X27717Y34929D01*
X27825Y34907D01*
X27933Y34929D01*
X27947Y34938D01*
X28052Y34917D01*
X28177Y34833D01*
X28325Y34804D01*
X28495Y34639D01*
X28497Y34361D01*
X27681Y33545D01*
X27268D01*
Y33837D01*
X25564D01*
Y32683D01*
X27268D01*
Y32975D01*
X27799D01*
X27799Y32975D01*
X27908Y32997D01*
X28000Y33059D01*
X28786Y33844D01*
X29040Y33739D01*
Y31221D01*
X27988Y30169D01*
X27718Y30186D01*
X27690Y30230D01*
X27513Y30347D01*
X27305Y30389D01*
X27097Y30347D01*
X26920Y30230D01*
X26803Y30053D01*
X26761Y29845D01*
X26803Y29637D01*
X26920Y29460D01*
X27097Y29343D01*
X27305Y29301D01*
X27513Y29343D01*
X27690Y29460D01*
X27756Y29560D01*
X28067D01*
X28067Y29560D01*
X28176Y29582D01*
X28268Y29644D01*
X29526Y30902D01*
X29526Y30902D01*
X29588Y30994D01*
X29610Y31103D01*
X29610Y31103D01*
Y34711D01*
X29616Y34723D01*
X29825Y34907D01*
X29933Y34929D01*
X30025Y34990D01*
X30086Y35082D01*
X30108Y35190D01*
Y35692D01*
X30174Y35866D01*
X30348Y35932D01*
X30515D01*
X30525Y35930D01*
D02*
G37*
G36*
X18415Y19077D02*
X19576D01*
X19758Y19113D01*
X19768Y19120D01*
X19818Y19087D01*
X19939Y19063D01*
Y19685D01*
X20193D01*
Y19063D01*
X20314Y19087D01*
X20369Y19124D01*
X20552Y19210D01*
X20740Y19094D01*
X20880Y18954D01*
X20775Y18700D01*
X18751D01*
X18751Y18700D01*
X18642Y18678D01*
X18550Y18616D01*
X18550Y18616D01*
X17909Y17976D01*
X17820Y17980D01*
X17613Y18039D01*
X17530Y18165D01*
X17353Y18282D01*
X17145Y18324D01*
X16937Y18282D01*
X16927Y18276D01*
X16673Y18411D01*
Y18928D01*
X16927Y19092D01*
X17000Y19077D01*
X18161D01*
Y19765D01*
X18415D01*
Y19077D01*
D02*
G37*
G36*
X42260Y2072D02*
X42006Y1986D01*
X42000Y1995D01*
X41787Y2157D01*
X41540Y2260D01*
X41402Y2278D01*
Y1270D01*
X41275D01*
Y1143D01*
X40267D01*
X40285Y1005D01*
X40388Y758D01*
X40550Y545D01*
X40559Y539D01*
X40473Y285D01*
X285D01*
Y14351D01*
X20955D01*
Y14478D01*
X26811D01*
X27042Y14340D01*
Y13838D01*
X26976Y13664D01*
X26802Y13598D01*
X26635D01*
X26625Y13600D01*
X24999D01*
X24890Y13578D01*
X24798Y13516D01*
X24798Y13516D01*
X23548Y12266D01*
X23486Y12174D01*
X23464Y12065D01*
X23464Y12065D01*
Y11040D01*
X22158Y9734D01*
X8493D01*
X8493Y9734D01*
X8384Y9712D01*
X8292Y9650D01*
X8292Y9650D01*
X6165Y7524D01*
X5114D01*
X5082Y7617D01*
X5072Y7778D01*
X5211Y7870D01*
X5328Y8047D01*
X5370Y8255D01*
X5328Y8463D01*
X5211Y8640D01*
X5034Y8757D01*
X4826Y8799D01*
X4618Y8757D01*
X4441Y8640D01*
X4324Y8463D01*
X4282Y8255D01*
X4324Y8047D01*
X4441Y7870D01*
X4580Y7778D01*
X4570Y7617D01*
X4538Y7524D01*
X3302D01*
X3193Y7502D01*
X3101Y7440D01*
X3101Y7440D01*
X2466Y6805D01*
X2404Y6713D01*
X2382Y6604D01*
X2264Y6463D01*
X1876Y6345D01*
X1518Y6154D01*
X1205Y5897D01*
X948Y5584D01*
X757Y5226D01*
X639Y4838D01*
X600Y4435D01*
X639Y4032D01*
X757Y3644D01*
X948Y3286D01*
X1205Y2973D01*
X1518Y2716D01*
X1876Y2525D01*
X2264Y2407D01*
X2667Y2368D01*
X3070Y2407D01*
X3458Y2525D01*
X3816Y2716D01*
X4129Y2973D01*
X4386Y3286D01*
X4577Y3644D01*
X4695Y4032D01*
X4734Y4435D01*
X4695Y4838D01*
X4577Y5226D01*
X4386Y5584D01*
X4129Y5897D01*
X3816Y6154D01*
X3458Y6345D01*
X3237Y6412D01*
X3165Y6699D01*
X3420Y6954D01*
X6283D01*
X6283Y6954D01*
X6392Y6976D01*
X6485Y7038D01*
X6592Y7145D01*
X6827Y7048D01*
Y6484D01*
X6709Y6473D01*
X6321Y6355D01*
X5963Y6164D01*
X5650Y5907D01*
X5393Y5594D01*
X5202Y5236D01*
X5084Y4848D01*
X5045Y4445D01*
X5084Y4042D01*
X5202Y3654D01*
X5393Y3296D01*
X5650Y2983D01*
X5963Y2726D01*
X6321Y2535D01*
X6709Y2417D01*
X7112Y2378D01*
X7515Y2417D01*
X7903Y2535D01*
X8261Y2726D01*
X8574Y2983D01*
X8831Y3296D01*
X9022Y3654D01*
X9140Y4042D01*
X9179Y4445D01*
X9140Y4848D01*
X9022Y5236D01*
X8831Y5594D01*
X8574Y5907D01*
X8261Y6164D01*
X7903Y6355D01*
X7515Y6473D01*
X7397Y6484D01*
Y7375D01*
X8779Y8758D01*
X12341D01*
X12438Y8523D01*
X11356Y7440D01*
X11294Y7348D01*
X11272Y7239D01*
X11272Y7239D01*
Y6484D01*
X11154Y6473D01*
X10766Y6355D01*
X10408Y6164D01*
X10095Y5907D01*
X9838Y5594D01*
X9647Y5236D01*
X9529Y4848D01*
X9490Y4445D01*
X9529Y4042D01*
X9647Y3654D01*
X9838Y3296D01*
X10095Y2983D01*
X10408Y2726D01*
X10766Y2535D01*
X11154Y2417D01*
X11557Y2378D01*
X11960Y2417D01*
X12348Y2535D01*
X12706Y2726D01*
X13019Y2983D01*
X13276Y3296D01*
X13467Y3654D01*
X13585Y4042D01*
X13624Y4445D01*
X13585Y4848D01*
X13467Y5236D01*
X13276Y5594D01*
X13019Y5907D01*
X12706Y6164D01*
X12348Y6355D01*
X11960Y6473D01*
X11842Y6484D01*
Y7121D01*
X13072Y8351D01*
X16733D01*
X16838Y8097D01*
X15801Y7059D01*
X15739Y6967D01*
X15717Y6858D01*
X15717Y6858D01*
Y6484D01*
X15599Y6473D01*
X15211Y6355D01*
X14853Y6164D01*
X14540Y5907D01*
X14283Y5594D01*
X14092Y5236D01*
X13974Y4848D01*
X13935Y4445D01*
X13974Y4042D01*
X14092Y3654D01*
X14283Y3296D01*
X14540Y2983D01*
X14853Y2726D01*
X15211Y2535D01*
X15599Y2417D01*
X16002Y2378D01*
X16405Y2417D01*
X16793Y2535D01*
X17151Y2726D01*
X17464Y2983D01*
X17721Y3296D01*
X17912Y3654D01*
X18030Y4042D01*
X18069Y4445D01*
X18030Y4848D01*
X17912Y5236D01*
X17721Y5594D01*
X17464Y5907D01*
X17151Y6164D01*
X16793Y6355D01*
X16405Y6473D01*
X16287Y6484D01*
Y6740D01*
X17390Y7843D01*
X20289D01*
X20394Y7589D01*
X20246Y7440D01*
X20184Y7348D01*
X20162Y7239D01*
X20162Y7239D01*
Y6484D01*
X20044Y6473D01*
X19656Y6355D01*
X19298Y6164D01*
X18985Y5907D01*
X18728Y5594D01*
X18537Y5236D01*
X18419Y4848D01*
X18380Y4445D01*
X18419Y4042D01*
X18537Y3654D01*
X18728Y3296D01*
X18985Y2983D01*
X19298Y2726D01*
X19656Y2535D01*
X20044Y2417D01*
X20447Y2378D01*
X20850Y2417D01*
X21238Y2535D01*
X21596Y2726D01*
X21909Y2983D01*
X22166Y3296D01*
X22357Y3654D01*
X22475Y4042D01*
X22514Y4445D01*
X22475Y4848D01*
X22357Y5236D01*
X22166Y5594D01*
X21909Y5907D01*
X21596Y6164D01*
X21238Y6355D01*
X20850Y6473D01*
X20732Y6484D01*
Y7121D01*
X20946Y7335D01*
X22746D01*
X22746Y7335D01*
X22855Y7357D01*
X22947Y7419D01*
X25576Y10047D01*
X25576Y10047D01*
X25638Y10140D01*
X25659Y10249D01*
Y10682D01*
X25784Y10782D01*
X25999Y10718D01*
X26053Y10686D01*
X26100Y10615D01*
X26192Y10554D01*
X26300Y10532D01*
X26340D01*
Y9471D01*
X24691Y7821D01*
X24629Y7729D01*
X24607Y7620D01*
X24607Y7620D01*
Y6484D01*
X24489Y6473D01*
X24101Y6355D01*
X23743Y6164D01*
X23430Y5907D01*
X23173Y5594D01*
X22982Y5236D01*
X22864Y4848D01*
X22825Y4445D01*
X22864Y4042D01*
X22982Y3654D01*
X23173Y3296D01*
X23430Y2983D01*
X23743Y2726D01*
X24101Y2535D01*
X24489Y2417D01*
X24892Y2378D01*
X25295Y2417D01*
X25683Y2535D01*
X26041Y2726D01*
X26354Y2983D01*
X26611Y3296D01*
X26802Y3654D01*
X26920Y4042D01*
X26959Y4445D01*
X26920Y4848D01*
X26802Y5236D01*
X26611Y5594D01*
X26354Y5907D01*
X26041Y6164D01*
X25683Y6355D01*
X25295Y6473D01*
X25177Y6484D01*
Y7502D01*
X26786Y9111D01*
X26944Y9076D01*
X27040Y9014D01*
Y8362D01*
X27040Y8362D01*
X27062Y8253D01*
X27124Y8161D01*
X28120Y7165D01*
X28120Y7165D01*
X28212Y7103D01*
X28321Y7081D01*
X28838D01*
X29052Y6867D01*
Y6484D01*
X28934Y6473D01*
X28546Y6355D01*
X28188Y6164D01*
X27875Y5907D01*
X27618Y5594D01*
X27427Y5236D01*
X27309Y4848D01*
X27270Y4445D01*
X27309Y4042D01*
X27427Y3654D01*
X27618Y3296D01*
X27875Y2983D01*
X28188Y2726D01*
X28546Y2535D01*
X28934Y2417D01*
X29337Y2378D01*
X29740Y2417D01*
X30128Y2535D01*
X30486Y2726D01*
X30799Y2983D01*
X31056Y3296D01*
X31247Y3654D01*
X31365Y4042D01*
X31404Y4445D01*
X31365Y4848D01*
X31247Y5236D01*
X31056Y5594D01*
X30799Y5907D01*
X30486Y6164D01*
X30128Y6355D01*
X29740Y6473D01*
X29622Y6484D01*
Y6985D01*
X29622Y6985D01*
X29600Y7094D01*
X29538Y7186D01*
X29390Y7335D01*
X29495Y7589D01*
X32902D01*
X33497Y6994D01*
Y6484D01*
X33379Y6473D01*
X32991Y6355D01*
X32633Y6164D01*
X32320Y5907D01*
X32063Y5594D01*
X31872Y5236D01*
X31754Y4848D01*
X31715Y4445D01*
X31754Y4042D01*
X31872Y3654D01*
X32063Y3296D01*
X32320Y2983D01*
X32633Y2726D01*
X32991Y2535D01*
X33379Y2417D01*
X33782Y2378D01*
X34185Y2417D01*
X34573Y2535D01*
X34931Y2726D01*
X35244Y2983D01*
X35501Y3296D01*
X35692Y3654D01*
X35810Y4042D01*
X35849Y4445D01*
X35810Y4848D01*
X35692Y5236D01*
X35501Y5594D01*
X35244Y5907D01*
X34931Y6164D01*
X34573Y6355D01*
X34185Y6473D01*
X34067Y6484D01*
Y7112D01*
X34067Y7112D01*
X34045Y7221D01*
X33983Y7313D01*
X33454Y7843D01*
X33559Y8097D01*
X34680D01*
X36770Y6007D01*
X36765Y5907D01*
X36508Y5594D01*
X36317Y5236D01*
X36199Y4848D01*
X36160Y4445D01*
X36199Y4042D01*
X36317Y3654D01*
X36508Y3296D01*
X36765Y2983D01*
X37078Y2726D01*
X37436Y2535D01*
X37824Y2417D01*
X38227Y2378D01*
X38630Y2417D01*
X39018Y2535D01*
X39376Y2726D01*
X39689Y2983D01*
X39946Y3296D01*
X40137Y3654D01*
X40255Y4042D01*
X40294Y4445D01*
X40255Y4848D01*
X40137Y5236D01*
X39946Y5594D01*
X39689Y5907D01*
X39376Y6164D01*
X39018Y6355D01*
X38630Y6473D01*
X38227Y6512D01*
X37824Y6473D01*
X37436Y6355D01*
X37300Y6283D01*
X35238Y8345D01*
X35335Y8580D01*
X36190D01*
X36199Y8487D01*
X36317Y8099D01*
X36508Y7741D01*
X36765Y7428D01*
X37078Y7171D01*
X37436Y6980D01*
X37824Y6862D01*
X38227Y6823D01*
X38630Y6862D01*
X39018Y6980D01*
X39376Y7171D01*
X39689Y7428D01*
X39946Y7741D01*
X40137Y8099D01*
X40255Y8487D01*
X40294Y8890D01*
X40255Y9293D01*
X40137Y9681D01*
X39946Y10039D01*
X39689Y10352D01*
X39376Y10609D01*
X39018Y10800D01*
X38630Y10918D01*
X38227Y10957D01*
X37824Y10918D01*
X37436Y10800D01*
X37078Y10609D01*
X36765Y10352D01*
X36508Y10039D01*
X36317Y9681D01*
X36199Y9293D01*
X36185Y9149D01*
X34268D01*
X34171Y9384D01*
X34999Y10213D01*
X34999Y10213D01*
X35061Y10305D01*
X35083Y10414D01*
X35083Y10414D01*
Y12582D01*
X35551Y13050D01*
X36188D01*
X36199Y12932D01*
X36317Y12544D01*
X36508Y12186D01*
X36765Y11873D01*
X37078Y11616D01*
X37436Y11425D01*
X37824Y11307D01*
X38227Y11268D01*
X38630Y11307D01*
X39018Y11425D01*
X39376Y11616D01*
X39689Y11873D01*
X39946Y12186D01*
X40137Y12544D01*
X40255Y12932D01*
X40294Y13335D01*
X40255Y13738D01*
X40137Y14126D01*
X39946Y14484D01*
X39689Y14797D01*
X39376Y15054D01*
X39018Y15245D01*
X38630Y15363D01*
X38227Y15402D01*
X37824Y15363D01*
X37436Y15245D01*
X37078Y15054D01*
X36765Y14797D01*
X36508Y14484D01*
X36317Y14126D01*
X36199Y13738D01*
X36188Y13620D01*
X35433D01*
X35337Y13699D01*
Y14478D01*
X35687D01*
Y16996D01*
X35965Y17274D01*
X36252Y17202D01*
X36317Y16989D01*
X36508Y16631D01*
X36765Y16318D01*
X37078Y16061D01*
X37436Y15870D01*
X37824Y15752D01*
X38227Y15713D01*
X38630Y15752D01*
X39018Y15870D01*
X39376Y16061D01*
X39689Y16318D01*
X39946Y16631D01*
X40137Y16989D01*
X40255Y17377D01*
X40294Y17780D01*
X40255Y18183D01*
X40137Y18571D01*
X39946Y18929D01*
X39742Y19177D01*
X39833Y19431D01*
X42260D01*
Y2072D01*
D02*
G37*
G36*
X7444Y40413D02*
X7444Y40413D01*
X7536Y40351D01*
X7645Y40330D01*
X7645Y40330D01*
X12548D01*
X12548Y40330D01*
X12657Y40351D01*
X12749Y40413D01*
X12970Y40635D01*
X23907D01*
X24103Y40439D01*
X24103Y40439D01*
X24195Y40377D01*
X24304Y40355D01*
X26552D01*
X27040Y39867D01*
Y39415D01*
X27042Y39405D01*
Y39238D01*
X26976Y39064D01*
X26802Y38998D01*
X26635D01*
X26625Y39000D01*
X25538D01*
X24585Y39952D01*
X24493Y40014D01*
X24384Y40036D01*
X24384Y40036D01*
X23311D01*
X23245Y40136D01*
X23068Y40253D01*
X22860Y40295D01*
X22652Y40253D01*
X22475Y40136D01*
X22358Y39959D01*
X22316Y39751D01*
X22323Y39715D01*
X22162Y39616D01*
X22088Y39594D01*
X21931Y39700D01*
X21723Y39741D01*
X21514Y39700D01*
X21338Y39582D01*
X21220Y39405D01*
X21179Y39197D01*
X21220Y38989D01*
X21338Y38813D01*
X21514Y38695D01*
X21642Y38669D01*
X21733Y38630D01*
X21831Y38416D01*
X21821Y38367D01*
X21862Y38159D01*
X21980Y37982D01*
X22157Y37864D01*
X22365Y37823D01*
X22463Y37842D01*
X22652Y37743D01*
X22710Y37652D01*
X22739Y37511D01*
X22856Y37334D01*
X22900Y37306D01*
X22917Y37036D01*
X20456Y34575D01*
X17404D01*
X17338Y34688D01*
X17299Y34829D01*
X17393Y34971D01*
X17435Y35179D01*
X17393Y35387D01*
X17276Y35564D01*
X17099Y35681D01*
X16891Y35723D01*
X16683Y35681D01*
X16506Y35564D01*
X16440Y35464D01*
X14961D01*
X14961Y35464D01*
X14852Y35442D01*
X14759Y35380D01*
X14759Y35380D01*
X14360Y34981D01*
X13492D01*
X13452Y35041D01*
X13588Y35295D01*
X13921D01*
Y36287D01*
X16442D01*
X16506Y36191D01*
X16683Y36074D01*
X16891Y36032D01*
X17099Y36074D01*
X17276Y36191D01*
X17393Y36368D01*
X17435Y36576D01*
X17393Y36784D01*
X17276Y36961D01*
X17099Y37078D01*
X16891Y37120D01*
X16683Y37078D01*
X16506Y36961D01*
X16437Y36857D01*
X13921D01*
Y37349D01*
X13779D01*
Y38010D01*
X14039D01*
Y39714D01*
X12885D01*
Y39147D01*
X12396D01*
Y39706D01*
X11242D01*
Y38002D01*
X11534D01*
Y37349D01*
X11182D01*
X11144Y37357D01*
X9513D01*
X9513Y37357D01*
X9404Y37335D01*
X9312Y37273D01*
X8816Y36777D01*
X8754Y36685D01*
X8732Y36576D01*
X8732Y36576D01*
Y35687D01*
X8732Y35687D01*
X8754Y35578D01*
X8816Y35486D01*
X11737Y32565D01*
X11737Y32565D01*
X11829Y32503D01*
X11938Y32481D01*
X11938Y32481D01*
X17242D01*
X17278Y32304D01*
X17395Y32127D01*
X17572Y32010D01*
X17780Y31968D01*
X17988Y32010D01*
X18165Y32127D01*
X18282Y32304D01*
X18324Y32512D01*
X18282Y32720D01*
X18272Y32735D01*
X18408Y32989D01*
X20924D01*
X20981Y32916D01*
X21041Y32747D01*
X20596Y32302D01*
X20534Y32209D01*
X20512Y32100D01*
X20512Y32100D01*
Y21300D01*
X19933D01*
X19919Y21370D01*
X19839Y21491D01*
X19835Y21493D01*
Y21787D01*
X19839Y21789D01*
X19919Y21910D01*
X19948Y22052D01*
Y22478D01*
X19919Y22620D01*
X19839Y22741D01*
X19835Y22743D01*
Y23037D01*
X19839Y23039D01*
X19919Y23160D01*
X19948Y23302D01*
Y23728D01*
X19919Y23870D01*
X19839Y23991D01*
X19835Y23993D01*
Y24287D01*
X19839Y24289D01*
X19919Y24410D01*
X19948Y24552D01*
Y24978D01*
X19919Y25120D01*
X19839Y25241D01*
X19835Y25243D01*
Y25537D01*
X19839Y25539D01*
X19919Y25660D01*
X19948Y25802D01*
Y26228D01*
X19919Y26370D01*
X19839Y26491D01*
X19835Y26493D01*
Y26787D01*
X19839Y26789D01*
X19919Y26910D01*
X19948Y27052D01*
Y27478D01*
X19919Y27620D01*
X19839Y27741D01*
X19835Y27743D01*
Y28037D01*
X19839Y28039D01*
X19919Y28160D01*
X19948Y28302D01*
Y28728D01*
X19919Y28870D01*
X19839Y28991D01*
X19718Y29071D01*
X19576Y29100D01*
X17000D01*
X16927Y29085D01*
X16729Y29197D01*
X16673Y29253D01*
Y31653D01*
X16644Y31795D01*
X16564Y31916D01*
X16443Y31996D01*
X16301Y32025D01*
X15875D01*
X15733Y31996D01*
X15612Y31916D01*
X15610Y31912D01*
X15316D01*
X15314Y31916D01*
X15193Y31996D01*
X15050Y32025D01*
X14625D01*
X14483Y31996D01*
X14362Y31916D01*
X14360Y31912D01*
X14066D01*
X14064Y31916D01*
X13943Y31996D01*
X13800Y32025D01*
X13375D01*
X13233Y31996D01*
X13185Y31964D01*
X13112Y31916D01*
X13052Y31935D01*
X12865Y32003D01*
X12733Y32092D01*
X12550Y32128D01*
X12465D01*
Y30365D01*
Y28602D01*
X12550D01*
X12733Y28638D01*
X12865Y28727D01*
X13052Y28795D01*
X13112Y28814D01*
X13185Y28766D01*
X13233Y28734D01*
X13375Y28705D01*
X13800D01*
X13943Y28734D01*
X14064Y28814D01*
X14066Y28818D01*
X14360D01*
X14362Y28814D01*
X14483Y28734D01*
X14625Y28705D01*
X15050D01*
X15193Y28734D01*
X15314Y28814D01*
X15316Y28818D01*
X15610D01*
X15612Y28814D01*
X15733Y28734D01*
X15875Y28705D01*
X16301D01*
X16374Y28720D01*
X16572Y28608D01*
X16628Y28552D01*
Y28302D01*
X16657Y28160D01*
X16737Y28039D01*
X16741Y28037D01*
Y27743D01*
X16737Y27741D01*
X16657Y27620D01*
X16628Y27478D01*
Y27052D01*
X16657Y26910D01*
X16737Y26789D01*
X16741Y26787D01*
Y26493D01*
X16737Y26491D01*
X16657Y26370D01*
X16628Y26228D01*
Y25802D01*
X16657Y25660D01*
X16737Y25539D01*
X16741Y25537D01*
Y25243D01*
X16737Y25241D01*
X16657Y25120D01*
X16628Y24978D01*
Y24552D01*
X16657Y24410D01*
X16737Y24289D01*
X16741Y24287D01*
Y23993D01*
X16737Y23991D01*
X16657Y23870D01*
X16628Y23728D01*
Y23302D01*
X16657Y23160D01*
X16737Y23039D01*
X16741Y23037D01*
Y22743D01*
X16737Y22741D01*
X16657Y22620D01*
X16628Y22478D01*
Y22052D01*
X16657Y21910D01*
X16737Y21789D01*
X16741Y21787D01*
Y21493D01*
X16737Y21491D01*
X16737Y21490D01*
X16440Y21439D01*
X16424Y21444D01*
X12393Y25474D01*
X12301Y25536D01*
X12192Y25558D01*
X12192Y25558D01*
X2864D01*
X2798Y25658D01*
X2698Y25724D01*
Y28737D01*
X2814Y28814D01*
X2816Y28818D01*
X3110D01*
X3112Y28814D01*
X3233Y28734D01*
X3375Y28705D01*
X3800D01*
X3943Y28734D01*
X4064Y28814D01*
X4066Y28818D01*
X4360D01*
X4362Y28814D01*
X4483Y28734D01*
X4626Y28705D01*
X5050D01*
X5193Y28734D01*
X5314Y28814D01*
X5316Y28818D01*
X5610D01*
X5612Y28814D01*
X5733Y28734D01*
X5876Y28705D01*
X6300D01*
X6443Y28734D01*
X6564Y28814D01*
X6566Y28818D01*
X6860D01*
X6862Y28814D01*
X6983Y28734D01*
X7126Y28705D01*
X7550D01*
X7693Y28734D01*
X7814Y28814D01*
X7816Y28818D01*
X8110D01*
X8112Y28814D01*
X8233Y28734D01*
X8375Y28705D01*
X8800D01*
X8943Y28734D01*
X9064Y28814D01*
X9066Y28818D01*
X9360D01*
X9362Y28814D01*
X9483Y28734D01*
X9625Y28705D01*
X10050D01*
X10193Y28734D01*
X10314Y28814D01*
X10316Y28818D01*
X10610D01*
X10612Y28814D01*
X10733Y28734D01*
X10875Y28705D01*
X11300D01*
X11443Y28734D01*
X11491Y28766D01*
X11564Y28814D01*
X11624Y28795D01*
X11811Y28727D01*
X11943Y28638D01*
X12125Y28602D01*
X12211D01*
Y30365D01*
Y32128D01*
X12125D01*
X11943Y32092D01*
X11811Y32003D01*
X11624Y31935D01*
X11564Y31916D01*
X11491Y31964D01*
X11443Y31996D01*
X11300Y32025D01*
X10875D01*
X10733Y31996D01*
X10612Y31916D01*
X10610Y31912D01*
X10316D01*
X10314Y31916D01*
X10193Y31996D01*
X10050Y32025D01*
X9625D01*
X9483Y31996D01*
X9362Y31916D01*
X9360Y31912D01*
X9066D01*
X9064Y31916D01*
X8943Y31996D01*
X8800Y32025D01*
X8375D01*
X8233Y31996D01*
X8112Y31916D01*
X8110Y31912D01*
X7816D01*
X7814Y31916D01*
X7693Y31996D01*
X7550Y32025D01*
X7126D01*
X6983Y31996D01*
X6862Y31916D01*
X6860Y31912D01*
X6586D01*
X6373Y32060D01*
Y36838D01*
X6373Y36838D01*
X6351Y36947D01*
X6289Y37039D01*
X4646Y38682D01*
X4554Y38744D01*
X4445Y38766D01*
X4445Y38766D01*
X2356D01*
X2290Y38866D01*
X2113Y38983D01*
X1905Y39025D01*
X1697Y38983D01*
X1520Y38866D01*
X1403Y38689D01*
X1361Y38481D01*
X1393Y38322D01*
X1293Y38171D01*
X1270Y38150D01*
Y37592D01*
X1765D01*
X1741Y37713D01*
X1895Y37939D01*
X1905Y37937D01*
X2113Y37979D01*
X2290Y38096D01*
X2356Y38196D01*
X4327D01*
X5803Y36720D01*
Y35746D01*
X5603Y35615D01*
X5549Y35615D01*
X4089D01*
X4066Y35615D01*
X3896Y35652D01*
X3818Y35671D01*
X3757Y35761D01*
X2995Y36523D01*
X2903Y36585D01*
X2794Y36607D01*
X2794Y36607D01*
X2356D01*
X2290Y36707D01*
X2113Y36824D01*
X1905Y36866D01*
X1772Y36839D01*
X1643Y37071D01*
X1741Y37217D01*
X1765Y37338D01*
X1270D01*
Y36843D01*
X1316Y36852D01*
X1478Y36643D01*
X1403Y36530D01*
X1361Y36322D01*
X1403Y36114D01*
X1520Y35937D01*
X1697Y35820D01*
X1905Y35778D01*
X2113Y35820D01*
X2290Y35937D01*
X2356Y36037D01*
X2676D01*
X3271Y35442D01*
Y34768D01*
X3028Y34740D01*
X3017Y34740D01*
X1224D01*
Y32936D01*
X3028D01*
Y33700D01*
X3282Y33725D01*
X3293Y33673D01*
X3355Y33581D01*
X4553Y32382D01*
Y32010D01*
X4483Y31996D01*
X4362Y31916D01*
X4360Y31912D01*
X4066D01*
X4064Y31916D01*
X3943Y31996D01*
X3800Y32025D01*
X3375D01*
X3233Y31996D01*
X3112Y31916D01*
X3110Y31912D01*
X2816D01*
X2814Y31916D01*
X2693Y31996D01*
X2550Y32025D01*
X2125D01*
X1983Y31996D01*
X1935Y31964D01*
X1862Y31916D01*
X1802Y31935D01*
X1615Y32003D01*
X1483Y32092D01*
X1301Y32128D01*
X1215D01*
Y30365D01*
Y28602D01*
X1301D01*
X1483Y28638D01*
X1615Y28727D01*
X1802Y28795D01*
X1862Y28814D01*
X1935Y28766D01*
X1983Y28734D01*
X2125Y28705D01*
X2128D01*
Y25724D01*
X2028Y25658D01*
X1911Y25481D01*
X1909Y25473D01*
X1639Y25419D01*
X1601Y25477D01*
X1391Y25617D01*
X1270Y25641D01*
Y25019D01*
Y24397D01*
X1391Y24421D01*
X1601Y24561D01*
X1741Y24771D01*
X1755Y24841D01*
X2025Y24894D01*
X2028Y24888D01*
X2205Y24771D01*
X2413Y24729D01*
X2621Y24771D01*
X2798Y24888D01*
X2864Y24988D01*
X12074D01*
X16249Y20814D01*
X16249Y20814D01*
X16341Y20752D01*
X16450Y20730D01*
X16587Y20684D01*
X16699Y20428D01*
X16650Y20292D01*
X16561Y20160D01*
X16554Y20147D01*
X16301Y19975D01*
X15875D01*
X15733Y19946D01*
X15612Y19866D01*
X15610Y19862D01*
X15316D01*
X15314Y19866D01*
X15193Y19946D01*
X15050Y19975D01*
X14625D01*
X14483Y19946D01*
X14362Y19866D01*
X14360Y19862D01*
X14066D01*
X14064Y19866D01*
X13943Y19946D01*
X13800Y19975D01*
X13375D01*
X13233Y19946D01*
X13112Y19866D01*
X13110Y19862D01*
X12816D01*
X12814Y19866D01*
X12693Y19946D01*
X12550Y19975D01*
X12125D01*
X11983Y19946D01*
X11862Y19866D01*
X11860Y19862D01*
X11566D01*
X11564Y19866D01*
X11443Y19946D01*
X11300Y19975D01*
X10875D01*
X10733Y19946D01*
X10612Y19866D01*
X10610Y19862D01*
X10316D01*
X10314Y19866D01*
X10193Y19946D01*
X10050Y19975D01*
X9625D01*
X9483Y19946D01*
X9362Y19866D01*
X9360Y19862D01*
X9066D01*
X9064Y19866D01*
X8943Y19946D01*
X8800Y19975D01*
X8375D01*
X8233Y19946D01*
X8112Y19866D01*
X8110Y19862D01*
X7816D01*
X7814Y19866D01*
X7693Y19946D01*
X7550Y19975D01*
X7126D01*
X6983Y19946D01*
X6935Y19914D01*
X6862Y19866D01*
X6802Y19885D01*
X6615Y19953D01*
X6483Y20042D01*
X6300Y20078D01*
X6215D01*
Y18315D01*
X5961D01*
Y20078D01*
X5876D01*
X5693Y20042D01*
X5686Y20037D01*
X5524Y20234D01*
X5916Y20627D01*
X5916Y20627D01*
X5978Y20719D01*
X6000Y20828D01*
Y23749D01*
X5978Y23858D01*
X5916Y23950D01*
X5824Y24012D01*
X5715Y24034D01*
X635D01*
X539Y24015D01*
X523Y24014D01*
X285Y24150D01*
Y24776D01*
X539Y24801D01*
X545Y24771D01*
X685Y24561D01*
X895Y24421D01*
X1016Y24397D01*
Y25019D01*
Y25641D01*
X895Y25617D01*
X685Y25477D01*
X545Y25267D01*
X539Y25237D01*
X285Y25262D01*
Y28665D01*
X539Y28742D01*
X539Y28741D01*
X693Y28638D01*
X876Y28602D01*
X961D01*
Y30365D01*
Y32128D01*
X876D01*
X693Y32092D01*
X539Y31989D01*
X539Y31988D01*
X285Y32065D01*
Y37222D01*
X539Y37247D01*
X545Y37217D01*
X685Y37007D01*
X895Y36867D01*
X1016Y36843D01*
Y37465D01*
Y38087D01*
X895Y38063D01*
X685Y37923D01*
X545Y37713D01*
X539Y37683D01*
X285Y37708D01*
Y41491D01*
X1224D01*
Y39936D01*
X3028D01*
Y41491D01*
X3374D01*
X3533Y41275D01*
X4849D01*
X5008Y41491D01*
X5869D01*
X5900Y41504D01*
X5932D01*
X5956Y41527D01*
X5986Y41539D01*
X6233Y41624D01*
X7444Y40413D01*
D02*
G37*
G36*
X40686Y48991D02*
X40677Y48985D01*
X40515Y48772D01*
X40412Y48525D01*
X40394Y48387D01*
X41402D01*
Y48260D01*
X41529D01*
Y47252D01*
X41667Y47270D01*
X41914Y47373D01*
X42006Y47443D01*
X42260Y47318D01*
Y29337D01*
X36576D01*
X35814Y30099D01*
Y31077D01*
X35875Y31122D01*
X36171Y31022D01*
X36190Y30959D01*
X36381Y30601D01*
X36638Y30288D01*
X36951Y30031D01*
X37309Y29840D01*
X37697Y29722D01*
X38100Y29683D01*
X38503Y29722D01*
X38891Y29840D01*
X39249Y30031D01*
X39562Y30288D01*
X39819Y30601D01*
X40010Y30959D01*
X40128Y31347D01*
X40167Y31750D01*
X40128Y32153D01*
X40010Y32541D01*
X39819Y32899D01*
X39562Y33212D01*
X39249Y33469D01*
X38891Y33660D01*
X38503Y33778D01*
X38100Y33817D01*
X37697Y33778D01*
X37309Y33660D01*
X37119Y33558D01*
X36865Y33711D01*
Y34234D01*
X36994Y34348D01*
X37103Y34395D01*
X37309Y34285D01*
X37697Y34167D01*
X38100Y34128D01*
X38503Y34167D01*
X38891Y34285D01*
X39249Y34476D01*
X39562Y34733D01*
X39819Y35046D01*
X40010Y35404D01*
X40128Y35792D01*
X40167Y36195D01*
X40128Y36598D01*
X40010Y36986D01*
X39819Y37344D01*
X39562Y37657D01*
X39249Y37914D01*
X38891Y38105D01*
X38503Y38223D01*
X38100Y38262D01*
X37697Y38223D01*
X37309Y38105D01*
X36951Y37914D01*
X36638Y37657D01*
X36381Y37344D01*
X36190Y36986D01*
X36072Y36598D01*
X36061Y36480D01*
X32503D01*
X32307Y36676D01*
X32412Y36930D01*
X33278D01*
X33278Y36930D01*
X33387Y36952D01*
X33479Y37014D01*
X34618Y38153D01*
X34618Y38153D01*
X34680Y38245D01*
X34702Y38354D01*
X34702Y38354D01*
Y39633D01*
X35424Y40355D01*
X36061D01*
X36072Y40237D01*
X36190Y39849D01*
X36381Y39491D01*
X36638Y39178D01*
X36951Y38921D01*
X37309Y38730D01*
X37697Y38612D01*
X38100Y38573D01*
X38503Y38612D01*
X38891Y38730D01*
X39249Y38921D01*
X39562Y39178D01*
X39819Y39491D01*
X40010Y39849D01*
X40128Y40237D01*
X40167Y40640D01*
X40128Y41043D01*
X40010Y41431D01*
X39819Y41789D01*
X39562Y42102D01*
X39249Y42359D01*
X38891Y42550D01*
X38503Y42668D01*
X38100Y42707D01*
X37697Y42668D01*
X37309Y42550D01*
X36951Y42359D01*
X36638Y42102D01*
X36381Y41789D01*
X36190Y41431D01*
X36072Y41043D01*
X36061Y40925D01*
X35306D01*
X35306Y40925D01*
X35197Y40903D01*
X35105Y40841D01*
X35105Y40841D01*
X34321Y40058D01*
X34067Y40163D01*
Y40522D01*
X36986Y43442D01*
X37078Y43366D01*
X37436Y43175D01*
X37824Y43057D01*
X38227Y43018D01*
X38630Y43057D01*
X39018Y43175D01*
X39376Y43366D01*
X39689Y43623D01*
X39946Y43936D01*
X40137Y44294D01*
X40255Y44682D01*
X40294Y45085D01*
X40255Y45488D01*
X40137Y45876D01*
X39946Y46234D01*
X39689Y46547D01*
X39376Y46804D01*
X39018Y46995D01*
X38630Y47113D01*
X38227Y47152D01*
X37824Y47113D01*
X37436Y46995D01*
X37078Y46804D01*
X36765Y46547D01*
X36508Y46234D01*
X36317Y45876D01*
X36199Y45488D01*
X36160Y45085D01*
X36199Y44682D01*
X36317Y44294D01*
X36508Y43936D01*
X36584Y43844D01*
X33688Y40949D01*
X33410Y41030D01*
X33391Y41116D01*
X33983Y41709D01*
X34045Y41801D01*
X34067Y41910D01*
X34067Y41910D01*
Y43046D01*
X34185Y43057D01*
X34573Y43175D01*
X34931Y43366D01*
X35244Y43623D01*
X35501Y43936D01*
X35692Y44294D01*
X35810Y44682D01*
X35849Y45085D01*
X35810Y45488D01*
X35692Y45876D01*
X35501Y46234D01*
X35244Y46547D01*
X34931Y46804D01*
X34573Y46995D01*
X34185Y47113D01*
X33782Y47152D01*
X33379Y47113D01*
X32991Y46995D01*
X32633Y46804D01*
X32320Y46547D01*
X32063Y46234D01*
X31872Y45876D01*
X31754Y45488D01*
X31715Y45085D01*
X31754Y44682D01*
X31872Y44294D01*
X32063Y43936D01*
X32320Y43623D01*
X32633Y43366D01*
X32991Y43175D01*
X33379Y43057D01*
X33497Y43046D01*
Y42028D01*
X33051Y41582D01*
X32867Y41636D01*
X32792Y41682D01*
X32775Y41765D01*
X32713Y41857D01*
X32713Y41857D01*
X32205Y42365D01*
X32113Y42427D01*
X32004Y42449D01*
X32004Y42449D01*
X29963D01*
X29622Y42790D01*
Y43046D01*
X29740Y43057D01*
X30128Y43175D01*
X30486Y43366D01*
X30799Y43623D01*
X31056Y43936D01*
X31247Y44294D01*
X31365Y44682D01*
X31404Y45085D01*
X31365Y45488D01*
X31247Y45876D01*
X31056Y46234D01*
X30799Y46547D01*
X30486Y46804D01*
X30128Y46995D01*
X29740Y47113D01*
X29337Y47152D01*
X28934Y47113D01*
X28546Y46995D01*
X28188Y46804D01*
X27875Y46547D01*
X27618Y46234D01*
X27427Y45876D01*
X27309Y45488D01*
X27270Y45085D01*
X27309Y44682D01*
X27427Y44294D01*
X27618Y43936D01*
X27875Y43623D01*
X28188Y43366D01*
X28546Y43175D01*
X28934Y43057D01*
X29052Y43046D01*
Y42672D01*
X29052Y42672D01*
X29074Y42563D01*
X29091Y42537D01*
X28894Y42375D01*
X28395Y42873D01*
X28303Y42935D01*
X28194Y42957D01*
X28194Y42957D01*
X25814D01*
X25750Y43211D01*
X26041Y43366D01*
X26354Y43623D01*
X26611Y43936D01*
X26802Y44294D01*
X26920Y44682D01*
X26959Y45085D01*
X26920Y45488D01*
X26802Y45876D01*
X26611Y46234D01*
X26354Y46547D01*
X26041Y46804D01*
X25683Y46995D01*
X25295Y47113D01*
X24892Y47152D01*
X24489Y47113D01*
X24101Y46995D01*
X23743Y46804D01*
X23430Y46547D01*
X23173Y46234D01*
X22982Y45876D01*
X22864Y45488D01*
X22825Y45085D01*
X22864Y44682D01*
X22982Y44294D01*
X23173Y43936D01*
X23430Y43623D01*
X23743Y43366D01*
X24101Y43175D01*
X24401Y43084D01*
X24364Y42830D01*
X21306D01*
X21243Y42911D01*
X21242Y42991D01*
X21324Y43221D01*
X21596Y43366D01*
X21909Y43623D01*
X22166Y43936D01*
X22357Y44294D01*
X22475Y44682D01*
X22514Y45085D01*
X22475Y45488D01*
X22357Y45876D01*
X22166Y46234D01*
X21909Y46547D01*
X21596Y46804D01*
X21238Y46995D01*
X20850Y47113D01*
X20447Y47152D01*
X20044Y47113D01*
X19656Y46995D01*
X19298Y46804D01*
X18985Y46547D01*
X18728Y46234D01*
X18537Y45876D01*
X18419Y45488D01*
X18380Y45085D01*
X18419Y44682D01*
X18537Y44294D01*
X18728Y43936D01*
X18985Y43623D01*
X19298Y43366D01*
X19656Y43175D01*
X20044Y43057D01*
X20164Y43046D01*
X20184Y42944D01*
X20246Y42852D01*
X20414Y42684D01*
X20316Y42449D01*
X16755D01*
X16402Y42802D01*
X16403Y42882D01*
X16482Y43081D01*
X16793Y43175D01*
X17151Y43366D01*
X17464Y43623D01*
X17721Y43936D01*
X17912Y44294D01*
X18030Y44682D01*
X18069Y45085D01*
X18030Y45488D01*
X17912Y45876D01*
X17721Y46234D01*
X17464Y46547D01*
X17151Y46804D01*
X16793Y46995D01*
X16405Y47113D01*
X16002Y47152D01*
X15599Y47113D01*
X15211Y46995D01*
X14853Y46804D01*
X14540Y46547D01*
X14283Y46234D01*
X14092Y45876D01*
X13974Y45488D01*
X13935Y45085D01*
X13974Y44682D01*
X14092Y44294D01*
X14283Y43936D01*
X14540Y43623D01*
X14853Y43366D01*
X15211Y43175D01*
X15599Y43057D01*
X15717Y43046D01*
Y42799D01*
X15717Y42799D01*
X15739Y42690D01*
X15801Y42598D01*
X16146Y42252D01*
X16049Y42017D01*
X12361D01*
X11842Y42536D01*
Y43046D01*
X11960Y43057D01*
X12348Y43175D01*
X12706Y43366D01*
X13019Y43623D01*
X13276Y43936D01*
X13467Y44294D01*
X13585Y44682D01*
X13624Y45085D01*
X13585Y45488D01*
X13467Y45876D01*
X13276Y46234D01*
X13019Y46547D01*
X12706Y46804D01*
X12348Y46995D01*
X11960Y47113D01*
X11557Y47152D01*
X11154Y47113D01*
X10766Y46995D01*
X10408Y46804D01*
X10095Y46547D01*
X9838Y46234D01*
X9647Y45876D01*
X9529Y45488D01*
X9490Y45085D01*
X9529Y44682D01*
X9647Y44294D01*
X9838Y43936D01*
X10095Y43623D01*
X10408Y43366D01*
X10766Y43175D01*
X11154Y43057D01*
X11272Y43046D01*
Y42418D01*
X11272Y42418D01*
X11294Y42309D01*
X11356Y42217D01*
X11681Y41891D01*
X11584Y41656D01*
X7769D01*
X7397Y42028D01*
Y43046D01*
X7515Y43057D01*
X7903Y43175D01*
X8261Y43366D01*
X8574Y43623D01*
X8831Y43936D01*
X9022Y44294D01*
X9140Y44682D01*
X9179Y45085D01*
X9140Y45488D01*
X9022Y45876D01*
X8831Y46234D01*
X8574Y46547D01*
X8261Y46804D01*
X7903Y46995D01*
X7515Y47113D01*
X7112Y47152D01*
X6709Y47113D01*
X6321Y46995D01*
X5963Y46804D01*
X5650Y46547D01*
X5393Y46234D01*
X5202Y45876D01*
X5084Y45488D01*
X5045Y45085D01*
X5084Y44682D01*
X5202Y44294D01*
X5393Y43936D01*
X5650Y43623D01*
X5963Y43366D01*
X6321Y43175D01*
X6709Y43057D01*
X6827Y43046D01*
Y42195D01*
X6573Y42090D01*
X4505Y44158D01*
X4577Y44294D01*
X4695Y44682D01*
X4734Y45085D01*
X4695Y45488D01*
X4577Y45876D01*
X4386Y46234D01*
X4129Y46547D01*
X3816Y46804D01*
X3458Y46995D01*
X3070Y47113D01*
X2667Y47152D01*
X2264Y47113D01*
X1876Y46995D01*
X1518Y46804D01*
X1205Y46547D01*
X948Y46234D01*
X757Y45876D01*
X639Y45488D01*
X600Y45085D01*
X639Y44682D01*
X757Y44294D01*
X948Y43936D01*
X1205Y43623D01*
X1518Y43366D01*
X1876Y43175D01*
X2264Y43057D01*
X2667Y43018D01*
X3070Y43057D01*
X3458Y43175D01*
X3816Y43366D01*
X4129Y43623D01*
X4229Y43628D01*
X5966Y41891D01*
X5869Y41656D01*
X4371D01*
X4191Y41692D01*
X4011Y41656D01*
X3028D01*
Y41740D01*
X1224D01*
Y41656D01*
X285D01*
Y49245D01*
X40600D01*
X40686Y48991D01*
D02*
G37*
%LPC*%
G36*
X38031Y22163D02*
X37479D01*
Y21336D01*
X38031D01*
Y22163D01*
D02*
G37*
G36*
X39679Y22061D02*
X38525D01*
Y20357D01*
X39679D01*
Y20924D01*
X40443D01*
X40509Y20824D01*
X40686Y20707D01*
X40894Y20665D01*
X41102Y20707D01*
X41279Y20824D01*
X41396Y21001D01*
X41438Y21209D01*
X41396Y21417D01*
X41279Y21594D01*
X41102Y21711D01*
X40894Y21753D01*
X40686Y21711D01*
X40509Y21594D01*
X40443Y21494D01*
X39679D01*
Y22061D01*
D02*
G37*
G36*
X38031Y21082D02*
X37479D01*
Y20255D01*
X38031D01*
Y21082D01*
D02*
G37*
G36*
X38354Y26922D02*
Y24892D01*
X40384D01*
X40355Y25188D01*
X40231Y25595D01*
X40031Y25970D01*
X39761Y26299D01*
X39432Y26569D01*
X39057Y26769D01*
X38650Y26893D01*
X38354Y26922D01*
D02*
G37*
G36*
X40384Y24638D02*
X38354D01*
Y22608D01*
X38650Y22637D01*
X39057Y22761D01*
X39432Y22961D01*
X39761Y23231D01*
X40031Y23560D01*
X40231Y23935D01*
X40355Y24342D01*
X40384Y24638D01*
D02*
G37*
G36*
X38100Y26922D02*
X37804Y26893D01*
X37397Y26769D01*
X37022Y26569D01*
X36693Y26299D01*
X36423Y25970D01*
X36223Y25595D01*
X36099Y25188D01*
X36070Y24892D01*
X38100D01*
Y26922D01*
D02*
G37*
G36*
Y24638D02*
X36070D01*
X36099Y24342D01*
X36223Y23935D01*
X36423Y23560D01*
X36693Y23231D01*
X37022Y22961D01*
X37397Y22761D01*
X37804Y22637D01*
X38100Y22608D01*
Y24638D01*
D02*
G37*
G36*
X21844Y17399D02*
X21349D01*
X21373Y17278D01*
X21513Y17068D01*
X21723Y16928D01*
X21844Y16904D01*
Y17399D01*
D02*
G37*
G36*
X22593D02*
X22098D01*
Y16904D01*
X22219Y16928D01*
X22429Y17068D01*
X22569Y17278D01*
X22593Y17399D01*
D02*
G37*
G36*
X25980Y16891D02*
X25428D01*
Y16064D01*
X25980D01*
Y16891D01*
D02*
G37*
G36*
X33895Y15940D02*
X33343D01*
Y15113D01*
X33895D01*
Y15940D01*
D02*
G37*
G36*
X25174Y16891D02*
X24622D01*
Y16064D01*
X25174D01*
Y16891D01*
D02*
G37*
G36*
X38975Y28067D02*
X38423D01*
Y27240D01*
X38975D01*
Y28067D01*
D02*
G37*
G36*
X39781D02*
X39229D01*
Y27240D01*
X39781D01*
Y28067D01*
D02*
G37*
G36*
X24441Y22184D02*
X23614D01*
Y21157D01*
X24441D01*
Y22184D01*
D02*
G37*
G36*
X24922Y20893D02*
X24370D01*
Y20066D01*
X24922D01*
Y20893D01*
D02*
G37*
G36*
X24441Y23465D02*
X23614D01*
Y22438D01*
X24441D01*
Y23465D01*
D02*
G37*
G36*
X26022Y23876D02*
X24778D01*
X24802Y23755D01*
X24826Y23719D01*
X24695Y23474D01*
Y22438D01*
X25522D01*
Y23380D01*
X25648Y23405D01*
X25858Y23545D01*
X25998Y23755D01*
X26022Y23876D01*
D02*
G37*
G36*
X24116Y20893D02*
X23564D01*
Y20066D01*
X24116D01*
Y20893D01*
D02*
G37*
G36*
X23122Y26584D02*
X22295D01*
Y25557D01*
X23122D01*
Y26584D01*
D02*
G37*
G36*
X23172Y28956D02*
X22620D01*
Y28129D01*
X23172D01*
Y28956D01*
D02*
G37*
G36*
X22225Y31263D02*
X22017Y31221D01*
X21840Y31104D01*
X21723Y30927D01*
X21681Y30719D01*
X21723Y30511D01*
X21840Y30334D01*
X21905Y30291D01*
X21828Y30037D01*
X21814D01*
Y29210D01*
X22493D01*
X23172D01*
Y30037D01*
X22622D01*
X22545Y30291D01*
X22610Y30334D01*
X22727Y30511D01*
X22769Y30719D01*
X22727Y30927D01*
X22610Y31104D01*
X22433Y31221D01*
X22225Y31263D01*
D02*
G37*
G36*
X26289Y31383D02*
X25462D01*
Y30831D01*
X26289D01*
Y31383D01*
D02*
G37*
G36*
X22366Y28956D02*
X21814D01*
Y28129D01*
X22366D01*
Y28956D01*
D02*
G37*
G36*
X22295Y27865D02*
Y26838D01*
X23122D01*
Y27865D01*
X22295D01*
D02*
G37*
G36*
X28435Y31496D02*
X27940D01*
Y31001D01*
X28061Y31025D01*
X28271Y31165D01*
X28411Y31375D01*
X28435Y31496D01*
D02*
G37*
G36*
X27686Y32245D02*
X27607Y32230D01*
X27370Y32189D01*
X27370Y32189D01*
X27370Y32189D01*
X26543D01*
Y31510D01*
Y30831D01*
X27370D01*
Y30873D01*
X27624Y31013D01*
X27686Y31001D01*
Y31623D01*
Y32245D01*
D02*
G37*
G36*
X23876Y32951D02*
X23049D01*
Y32399D01*
X23876D01*
Y32951D01*
D02*
G37*
G36*
X24957D02*
X24130D01*
Y32399D01*
X24957D01*
Y32951D01*
D02*
G37*
G36*
X27940Y32245D02*
Y31750D01*
X28435D01*
X28411Y31871D01*
X28271Y32081D01*
X28061Y32221D01*
X27940Y32245D01*
D02*
G37*
G36*
X23876Y32145D02*
X23049D01*
Y31593D01*
X23876D01*
Y32145D01*
D02*
G37*
G36*
X24957D02*
X24130D01*
Y31593D01*
X24957D01*
Y32145D01*
D02*
G37*
G36*
X26289Y32189D02*
X25462D01*
Y31637D01*
X26289D01*
Y32189D01*
D02*
G37*
G36*
X19558Y13306D02*
X19270Y13268D01*
X19001Y13157D01*
X18770Y12980D01*
X18593Y12749D01*
X18482Y12480D01*
X18444Y12192D01*
X18482Y11904D01*
X18593Y11635D01*
X18770Y11404D01*
X19001Y11227D01*
X19270Y11116D01*
X19558Y11078D01*
X19846Y11116D01*
X20115Y11227D01*
X20346Y11404D01*
X20523Y11635D01*
X20634Y11904D01*
X20672Y12192D01*
X20634Y12480D01*
X20523Y12749D01*
X20346Y12980D01*
X20115Y13157D01*
X19846Y13268D01*
X19558Y13306D01*
D02*
G37*
G36*
X22098D02*
X21810Y13268D01*
X21541Y13157D01*
X21310Y12980D01*
X21133Y12749D01*
X21022Y12480D01*
X20984Y12192D01*
X21022Y11904D01*
X21133Y11635D01*
X21310Y11404D01*
X21541Y11227D01*
X21810Y11116D01*
X22098Y11078D01*
X22386Y11116D01*
X22655Y11227D01*
X22886Y11404D01*
X23063Y11635D01*
X23174Y11904D01*
X23212Y12192D01*
X23174Y12480D01*
X23063Y12749D01*
X22886Y12980D01*
X22655Y13157D01*
X22386Y13268D01*
X22098Y13306D01*
D02*
G37*
G36*
X10503Y13297D02*
X8293D01*
Y11087D01*
X10503D01*
Y13297D01*
D02*
G37*
G36*
X17018Y13306D02*
X16730Y13268D01*
X16461Y13157D01*
X16230Y12980D01*
X16053Y12749D01*
X15942Y12480D01*
X15904Y12192D01*
X15942Y11904D01*
X16053Y11635D01*
X16230Y11404D01*
X16461Y11227D01*
X16730Y11116D01*
X17018Y11078D01*
X17306Y11116D01*
X17575Y11227D01*
X17806Y11404D01*
X17983Y11635D01*
X18094Y11904D01*
X18132Y12192D01*
X18094Y12480D01*
X17983Y12749D01*
X17806Y12980D01*
X17575Y13157D01*
X17306Y13268D01*
X17018Y13306D01*
D02*
G37*
G36*
X41148Y2278D02*
X41010Y2260D01*
X40763Y2157D01*
X40550Y1995D01*
X40388Y1782D01*
X40285Y1535D01*
X40267Y1397D01*
X41148D01*
Y2278D01*
D02*
G37*
G36*
X11938Y13306D02*
X11650Y13268D01*
X11381Y13157D01*
X11150Y12980D01*
X10973Y12749D01*
X10862Y12480D01*
X10824Y12192D01*
X10862Y11904D01*
X10973Y11635D01*
X11150Y11404D01*
X11381Y11227D01*
X11650Y11116D01*
X11938Y11078D01*
X12226Y11116D01*
X12495Y11227D01*
X12726Y11404D01*
X12903Y11635D01*
X13014Y11904D01*
X13052Y12192D01*
X13014Y12480D01*
X12903Y12749D01*
X12726Y12980D01*
X12495Y13157D01*
X12226Y13268D01*
X11938Y13306D01*
D02*
G37*
G36*
X14478D02*
X14190Y13268D01*
X13921Y13157D01*
X13690Y12980D01*
X13513Y12749D01*
X13402Y12480D01*
X13364Y12192D01*
X13402Y11904D01*
X13513Y11635D01*
X13690Y11404D01*
X13921Y11227D01*
X14190Y11116D01*
X14478Y11078D01*
X14766Y11116D01*
X15035Y11227D01*
X15266Y11404D01*
X15443Y11635D01*
X15554Y11904D01*
X15592Y12192D01*
X15554Y12480D01*
X15443Y12749D01*
X15266Y12980D01*
X15035Y13157D01*
X14766Y13268D01*
X14478Y13306D01*
D02*
G37*
G36*
X1651Y12806D02*
X1416Y12759D01*
X1217Y12626D01*
X1084Y12427D01*
X1037Y12192D01*
X1084Y11957D01*
X1217Y11758D01*
X1416Y11625D01*
X1651Y11578D01*
X1886Y11625D01*
X2085Y11758D01*
X2218Y11957D01*
X2265Y12192D01*
X2218Y12427D01*
X2085Y12626D01*
X1886Y12759D01*
X1651Y12806D01*
D02*
G37*
G36*
X5461D02*
X5226Y12759D01*
X5027Y12626D01*
X4894Y12427D01*
X4847Y12192D01*
X4894Y11957D01*
X5027Y11758D01*
X5226Y11625D01*
X5461Y11578D01*
X5696Y11625D01*
X5895Y11758D01*
X6028Y11957D01*
X6075Y12192D01*
X6028Y12427D01*
X5895Y12626D01*
X5696Y12759D01*
X5461Y12806D01*
D02*
G37*
G36*
X15085Y38735D02*
X14533D01*
Y37908D01*
X15085D01*
Y38735D01*
D02*
G37*
G36*
X15891D02*
X15339D01*
Y37908D01*
X15891D01*
Y38735D01*
D02*
G37*
G36*
X18542Y38976D02*
X18421Y38952D01*
X18211Y38812D01*
X18071Y38602D01*
X18047Y38481D01*
X18542D01*
Y38976D01*
D02*
G37*
G36*
X10748Y38727D02*
X10196D01*
Y37900D01*
X10748D01*
Y38727D01*
D02*
G37*
G36*
X18542Y38227D02*
X18047D01*
X18071Y38106D01*
X18211Y37896D01*
X18421Y37756D01*
X18542Y37732D01*
Y38227D01*
D02*
G37*
G36*
X19291D02*
X18796D01*
Y37732D01*
X18917Y37756D01*
X19127Y37896D01*
X19267Y38106D01*
X19291Y38227D01*
D02*
G37*
G36*
X9942Y38727D02*
X9390D01*
Y37900D01*
X9942D01*
Y38727D01*
D02*
G37*
G36*
X18796Y38976D02*
Y38481D01*
X19291D01*
X19267Y38602D01*
X19127Y38812D01*
X18917Y38952D01*
X18796Y38976D01*
D02*
G37*
G36*
X15891Y39816D02*
X15339D01*
Y38989D01*
X15891D01*
Y39816D01*
D02*
G37*
G36*
X4813Y41021D02*
X3569D01*
X3593Y40900D01*
X3733Y40690D01*
X3943Y40550D01*
X4049Y40529D01*
Y39061D01*
X5603D01*
Y40615D01*
X4904D01*
X4769Y40869D01*
X4789Y40900D01*
X4813Y41021D01*
D02*
G37*
G36*
X15085Y39816D02*
X14533D01*
Y38989D01*
X15085D01*
Y39816D01*
D02*
G37*
G36*
X16764Y40041D02*
X16556Y39999D01*
X16379Y39882D01*
X16262Y39705D01*
X16220Y39497D01*
X16262Y39289D01*
X16379Y39112D01*
X16556Y38995D01*
X16764Y38953D01*
X16972Y38995D01*
X17149Y39112D01*
X17266Y39289D01*
X17308Y39497D01*
X17266Y39705D01*
X17149Y39882D01*
X16972Y39999D01*
X16764Y40041D01*
D02*
G37*
G36*
X9942Y39808D02*
X9390D01*
Y38981D01*
X9942D01*
Y39808D01*
D02*
G37*
G36*
X10748D02*
X10196D01*
Y38981D01*
X10748D01*
Y39808D01*
D02*
G37*
G36*
X41275Y48133D02*
X40394D01*
X40412Y47995D01*
X40515Y47748D01*
X40677Y47535D01*
X40890Y47373D01*
X41137Y47270D01*
X41275Y47252D01*
Y48133D01*
D02*
G37*
%LPD*%
D13*
X24003Y34022D02*
D03*
Y32272D02*
D03*
X26416Y33260D02*
D03*
Y31510D02*
D03*
D14*
X10069Y38854D02*
D03*
X11819D02*
D03*
X15212Y38862D02*
D03*
X13462D02*
D03*
X27051Y17018D02*
D03*
X25301D02*
D03*
X32272Y14986D02*
D03*
X34022D02*
D03*
X22493Y19939D02*
D03*
X24243D02*
D03*
Y29083D02*
D03*
X22493D02*
D03*
X39102Y21209D02*
D03*
X37352D02*
D03*
Y28194D02*
D03*
X39102D02*
D03*
D29*
X35179Y20701D02*
Y23495D01*
X14961Y35179D02*
X16891D01*
X13494Y36572D02*
X16887D01*
X16891Y36576D01*
X14478Y34696D02*
X14961Y35179D01*
X13183Y34696D02*
X14478D01*
X12819Y35060D02*
X13183Y34696D01*
X12819Y35060D02*
Y35397D01*
X12827Y33782D02*
X20701D01*
X11819Y34790D02*
X12827Y33782D01*
X11819Y34790D02*
Y35397D01*
X12573Y33274D02*
X20955D01*
X11144Y34703D02*
X12573Y33274D01*
X11144Y34703D02*
Y35572D01*
X25674Y36215D02*
X26625D01*
X12319Y34925D02*
Y35397D01*
Y34925D02*
X12954Y34290D01*
X20574D01*
X30525Y10815D02*
X30672Y10668D01*
X31496D01*
X19685Y16256D02*
Y17145D01*
X12268Y14910D02*
X18339D01*
X11088Y16090D02*
X12268Y14910D01*
X11088Y16090D02*
Y18315D01*
X18415Y16002D02*
Y17145D01*
X13005Y15316D02*
X17729D01*
X12338Y15983D02*
X13005Y15316D01*
X12338Y15983D02*
Y18315D01*
X13588Y16511D02*
Y18315D01*
X17145Y16637D02*
Y17780D01*
X16637Y16129D02*
X17145Y16637D01*
X15240Y16129D02*
X16637D01*
X14838Y16531D02*
X15240Y16129D01*
X14838Y16531D02*
Y18315D01*
X7366Y16383D02*
Y18287D01*
X2338Y30365D02*
X3588D01*
X33734Y26715D02*
X34462D01*
X2338Y30365D02*
X2413Y30290D01*
X4838Y30365D02*
Y32500D01*
X3556Y33782D02*
X4838Y32500D01*
X3556Y33782D02*
Y35560D01*
X2794Y36322D02*
X3556Y35560D01*
X1905Y36322D02*
X2794D01*
X1905Y38481D02*
X4445D01*
X6088Y36838D01*
Y30365D02*
Y36838D01*
X6283Y7239D02*
X8493Y9449D01*
X3302Y7239D02*
X6283D01*
X2667Y6604D02*
X3302Y7239D01*
X2667Y4435D02*
Y6604D01*
X22276Y9449D02*
X23749Y10922D01*
X8493Y9449D02*
X22276D01*
X7338Y18315D02*
X7366Y18287D01*
X2286Y16383D02*
X7366D01*
X11827Y38862D02*
X13462D01*
X11819Y38854D02*
X11827Y38862D01*
X11819Y37247D02*
Y38854D01*
X10414Y36068D02*
X11140D01*
X10287Y36195D02*
X10414Y36068D01*
X10410Y36572D02*
X11144D01*
X10287Y36449D02*
X10410Y36572D01*
X11140Y36068D02*
X11144Y36072D01*
X11819Y36584D02*
Y37247D01*
X11807Y36572D02*
X11819Y36584D01*
X11144Y36572D02*
X11807D01*
X26752Y35515D02*
X27325D01*
X28784Y27765D02*
Y29359D01*
X30480Y31055D01*
X29434Y27765D02*
Y29434D01*
X30084Y27765D02*
Y29322D01*
X30734Y27765D02*
Y29210D01*
X31384Y27765D02*
Y29098D01*
X32034Y27765D02*
Y28732D01*
X39102Y21209D02*
X40894D01*
X34559Y24115D02*
X35179Y23495D01*
X34320Y23465D02*
X34671Y23114D01*
Y21590D02*
Y23114D01*
X34417Y21336D02*
X34671Y21590D01*
X33734Y24115D02*
X34559D01*
X33734Y23465D02*
X34320D01*
X28825Y35515D02*
X28829Y35511D01*
X25164Y38215D02*
X26625D01*
X31790Y36215D02*
X32217Y35789D01*
X30525Y36215D02*
X31790D01*
X32684Y17190D02*
Y21765D01*
X25019Y24638D02*
X26446Y26065D01*
X22860Y24638D02*
X25019D01*
X22168Y23946D02*
X22860Y24638D01*
X22168Y22311D02*
Y23946D01*
X26446Y26065D02*
X27734D01*
X24568Y26711D02*
X24572Y26715D01*
X27734D01*
X30734Y17145D02*
Y21765D01*
X30084D02*
X30099Y21750D01*
X34417Y39751D02*
X35306Y40640D01*
X34417Y38354D02*
Y39751D01*
X33278Y37215D02*
X34417Y38354D01*
X33782Y40640D02*
X38227Y45085D01*
X33782Y38608D02*
Y40640D01*
X32889Y37715D02*
X33782Y38608D01*
X33020Y41148D02*
X33782Y41910D01*
X33020Y38481D02*
Y41148D01*
X32754Y38215D02*
X33020Y38481D01*
X32004Y42164D02*
X32512Y41656D01*
Y39497D02*
Y41656D01*
X31730Y38715D02*
X32512Y39497D01*
X30525Y38715D02*
X31730D01*
X25420D02*
X26625D01*
X27325Y39415D02*
Y39985D01*
X27825Y39415D02*
Y40247D01*
X7112Y41910D02*
Y45085D01*
X28325Y39415D02*
Y40382D01*
X11557Y42418D02*
Y45085D01*
X28825Y39415D02*
Y40644D01*
X16002Y42799D02*
Y45085D01*
X20447Y43053D02*
Y45085D01*
X29325Y39415D02*
Y40906D01*
X29825Y39415D02*
Y41041D01*
X24892Y42926D02*
Y45085D01*
X29845Y42164D02*
X32004D01*
X29337Y42672D02*
X29845Y42164D01*
X29337Y42672D02*
Y45085D01*
X30525Y38215D02*
X32754D01*
X33782Y41910D02*
Y45085D01*
X30525Y37715D02*
X32889D01*
X35306Y40640D02*
X38100D01*
X30525Y37215D02*
X33278D01*
X32385Y36195D02*
X38100D01*
X31865Y36715D02*
X32385Y36195D01*
X30525Y36715D02*
X31865D01*
X29464Y14986D02*
X29825D01*
Y14015D02*
Y14986D01*
X29325Y14847D02*
X29464Y14986D01*
X29325Y14015D02*
Y14847D01*
X7112Y4445D02*
Y7493D01*
X8661Y9042D01*
X22444D01*
X22612Y8636D02*
X24562Y10585D01*
X12954Y8636D02*
X22612D01*
X11557Y7239D02*
X12954Y8636D01*
X24999Y13315D02*
X26625D01*
X23749Y12065D02*
X24999Y13315D01*
X23749Y10922D02*
Y12065D01*
X25134Y12815D02*
X26625D01*
X24155Y11836D02*
X25134Y12815D01*
X24155Y10754D02*
Y11836D01*
X25396Y12315D02*
X26625D01*
X24562Y11481D02*
X25396Y12315D01*
X24562Y10585D02*
Y11481D01*
X25658Y11815D02*
X26625D01*
X24968Y11125D02*
X25658Y11815D01*
X24968Y10417D02*
Y11125D01*
X25793Y11315D02*
X26625D01*
X25375Y10897D02*
X25793Y11315D01*
X25375Y10249D02*
Y10897D01*
X22444Y9042D02*
X24155Y10754D01*
X22679Y8128D02*
X24968Y10417D01*
X17272Y8128D02*
X22679D01*
X16002Y4445D02*
Y6858D01*
X17272Y8128D01*
X20447Y4445D02*
Y7239D01*
X20828Y7620D01*
X22746D01*
X25375Y10249D01*
X24892Y4445D02*
Y7620D01*
X26625Y9353D01*
Y10815D01*
X27325Y8362D02*
Y10115D01*
Y8362D02*
X28321Y7366D01*
X28956D01*
X29337Y6985D01*
Y4445D02*
Y6985D01*
X33020Y7874D02*
X33782Y7112D01*
X28702Y7874D02*
X33020D01*
X27825Y8751D02*
X28702Y7874D01*
X33782Y4445D02*
Y7112D01*
X38202Y8865D02*
X38227Y8890D01*
X29362Y8865D02*
X38202D01*
X27825Y8751D02*
Y10115D01*
X38227Y4445D02*
Y4953D01*
X34798Y8382D02*
X38227Y4953D01*
X29083Y8382D02*
X34798D01*
X28325Y9140D02*
X29083Y8382D01*
X28325Y9140D02*
Y10115D01*
X28825Y9402D02*
X29362Y8865D01*
X28825Y9402D02*
Y10115D01*
X29591Y9271D02*
X33655D01*
X29325Y9537D02*
X29591Y9271D01*
X29325Y9537D02*
Y10115D01*
X35433Y13335D02*
X38227D01*
X34798Y12700D02*
X35433Y13335D01*
X34798Y10414D02*
Y12700D01*
X33655Y9271D02*
X34798Y10414D01*
X34036Y12573D02*
X35052Y13589D01*
Y16764D01*
X30525Y11815D02*
X32762D01*
X30525Y12315D02*
X33016D01*
X33274Y10668D02*
Y11303D01*
X32762Y11815D02*
X33274Y11303D01*
X32385Y12954D02*
Y13335D01*
X33016Y12315D02*
X33274Y12573D01*
X32385Y10668D02*
Y11049D01*
X32119Y11315D02*
X32385Y11049D01*
X30525Y11315D02*
X32119D01*
X33274Y12573D02*
Y13335D01*
X35052Y16764D02*
X36068Y17780D01*
X38227D01*
X22493Y19939D02*
Y21986D01*
X22168Y22311D02*
X22493Y21986D01*
X24243D02*
X24568Y22311D01*
X24243Y19939D02*
Y21986D01*
Y27036D02*
X24568Y26711D01*
X24243Y27036D02*
Y29083D01*
X11557Y4445D02*
Y7239D01*
X28325Y14015D02*
Y16506D01*
X27813Y17018D02*
X28325Y16506D01*
X27051Y17018D02*
X27813D01*
X25691Y18960D02*
X26035Y19304D01*
X28575Y12065D02*
Y12827D01*
X28825Y13077D01*
Y14015D01*
Y15617D01*
X34022Y14986D02*
Y15762D01*
X30861Y14986D02*
X32004D01*
X1651Y1270D02*
X41275D01*
X23241Y14097D02*
X24638Y15494D01*
X27825Y14015D02*
X27825Y14015D01*
X24638Y15494D02*
X27305D01*
X27825Y14974D01*
Y14015D02*
Y14974D01*
X3556Y12827D02*
X4826Y14097D01*
X23241D01*
X483Y6706D02*
X3556Y9779D01*
Y12827D01*
X483Y2438D02*
Y6706D01*
Y2438D02*
X1651Y1270D01*
X33734Y25415D02*
X34559D01*
X35941Y26797D01*
Y28194D02*
X37352D01*
X35941Y26797D02*
Y28194D01*
X26035Y19304D02*
Y20828D01*
X24003Y34022D02*
Y34671D01*
X22719Y34022D02*
X24003D01*
X27305Y29845D02*
X28067D01*
X29325Y31103D01*
X26416Y33260D02*
X27799D01*
X28825Y34286D01*
Y35515D01*
X28325Y37215D02*
X28575Y37465D01*
X2413Y25273D02*
Y30290D01*
X27734Y25415D02*
X30084D01*
X30734Y24765D01*
X2667Y45085D02*
X3175D01*
X32034Y26065D02*
X33734D01*
X30734Y24765D02*
X32034Y26065D01*
X17729Y15316D02*
X18415Y16002D01*
X18339Y14910D02*
X19685Y16256D01*
X13588Y16511D02*
X14376Y15723D01*
X16805D01*
X17551Y16469D01*
X2413Y25273D02*
X12192D01*
X16450Y21015D01*
X18288D01*
X17526Y32766D02*
X17780Y32512D01*
X9906Y36322D02*
X10160D01*
X10287Y36195D01*
X12319Y37247D02*
X12573D01*
X12819D01*
X27940Y34290D02*
X28325Y34675D01*
X25400Y34290D02*
X27940D01*
X24003Y32272D02*
X25273D01*
Y34163D01*
X25400Y34290D01*
X35585Y21692D02*
X35941Y21336D01*
X33734Y24765D02*
X34671D01*
X35585Y23851D01*
Y21692D02*
Y23851D01*
X22168Y26711D02*
X22493Y27036D01*
Y29083D01*
X27036Y24115D02*
X27734D01*
X25400Y24003D02*
X26812Y25415D01*
X27734D01*
X21278Y18960D02*
X25691D01*
X20797Y32100D02*
X22719Y34022D01*
X20797Y21015D02*
Y32100D01*
X18288Y21015D02*
X20797D01*
X18288Y19765D02*
X18378Y19675D01*
X28325Y34675D02*
Y35515D01*
Y37215D01*
X27325Y35515D02*
X27825D01*
X29825Y14986D02*
X30861D01*
X9017Y35687D02*
X11938Y32766D01*
X17526D01*
X9017Y35687D02*
Y36576D01*
X9513Y37072D01*
X11144D01*
X13462Y38862D02*
X13494Y38830D01*
Y37072D02*
Y38830D01*
X12827Y37592D02*
X12918D01*
X7112Y41910D02*
X8001Y41021D01*
X12379D01*
X24892Y42926D02*
X25146Y42672D01*
X28194D01*
X29825Y41041D01*
X20447Y43053D02*
X20955Y42545D01*
X24698D01*
X24978Y42266D01*
X27965D01*
X29325Y40906D01*
X16002Y42799D02*
X16637Y42164D01*
X20761D01*
X20787Y42139D01*
X24530D01*
X24809Y41859D01*
X27610D01*
X28825Y40644D01*
X24362Y41732D02*
X24641Y41453D01*
X27254D01*
X28325Y40382D01*
X11557Y42418D02*
X12243Y41732D01*
X24362D01*
X12379Y41021D02*
X12684Y41326D01*
X24193D01*
X24473Y41046D01*
X27026D01*
X27825Y40247D01*
X12548Y40615D02*
X12852Y40919D01*
X24025D01*
X24304Y40640D01*
X26670D01*
X27325Y39985D01*
X3175Y45085D02*
X7645Y40615D01*
X12548D01*
X20955Y33274D02*
X23368Y35687D01*
X20701Y33782D02*
X23622Y36703D01*
X23241Y37719D02*
X24511D01*
X24003Y34671D02*
X24257Y34925D01*
X24638Y36703D02*
X24663Y36728D01*
Y36703D02*
Y36728D01*
X25404Y37715D02*
X26625D01*
X26162Y34925D02*
X26752Y35515D01*
X25146Y35687D02*
X25674Y36215D01*
X25400Y37719D02*
X25404Y37715D01*
X25086Y37719D02*
X25400D01*
X24511D02*
X25015Y37215D01*
X26625D01*
X26613Y36703D02*
X26625Y36715D01*
X24638Y36703D02*
X24663D01*
X26613D01*
X34417Y19558D02*
Y21336D01*
X28825Y15617D02*
X29210Y16002D01*
X33782D01*
X34022Y15762D01*
X29972Y17780D02*
X30084Y17668D01*
Y21765D01*
X29947Y16408D02*
X31902D01*
X27940Y18415D02*
X29947Y16408D01*
X32233Y12802D02*
X32385Y12954D01*
X30525Y12815D02*
X30538Y12802D01*
X32233D01*
X30525Y13315D02*
X31222D01*
X31496Y13589D01*
Y13843D01*
X29825Y10115D02*
X30263Y9677D01*
X33426D01*
X34036Y10287D01*
Y12573D01*
X17551Y17215D02*
X18751Y18415D01*
X17551Y16469D02*
Y17215D01*
X18751Y18415D02*
X27940D01*
X20797Y21015D02*
X20955Y20857D01*
X20803Y20213D02*
X20955Y20365D01*
Y20857D01*
X18388Y19685D02*
X20066D01*
X20803Y19435D02*
Y20213D01*
Y19435D02*
X21278Y18960D01*
X21723Y39197D02*
X21829Y39091D01*
X24384Y39751D02*
X25420Y38715D01*
X24289Y39091D02*
X25164Y38215D01*
X22860Y39751D02*
X24384D01*
X21829Y39091D02*
X24289D01*
X22365Y38367D02*
X22377Y38379D01*
X24425D01*
X25086Y37719D01*
X24257Y34925D02*
X26162D01*
X23368Y35687D02*
X24701D01*
X25146D01*
X20574Y34290D02*
X23241Y36957D01*
Y37719D01*
X23622Y36703D02*
X24003D01*
X24638D01*
X29325Y31103D02*
Y35515D01*
X30480Y31055D02*
Y32385D01*
X30734Y29210D02*
X32385Y30861D01*
X35052Y27305D02*
Y29718D01*
X29434Y29434D02*
X31242Y31242D01*
X30084Y29322D02*
X31902Y31140D01*
X32034Y28732D02*
X33909Y30607D01*
X34462Y26715D02*
X35052Y27305D01*
X31902Y31140D02*
Y33421D01*
X31242Y34081D02*
Y34290D01*
Y34081D02*
X31902Y33421D01*
X31242Y31242D02*
Y33147D01*
X32385Y34442D02*
X32436Y34493D01*
X32385Y30861D02*
Y34442D01*
X31384Y29098D02*
X33147Y30861D01*
Y32258D01*
X33909Y30607D02*
Y31115D01*
X35718Y31623D02*
Y33817D01*
X32684Y27765D02*
Y28589D01*
X35718Y31623D01*
X32217Y35789D02*
X35083D01*
X36580Y34292D01*
Y33270D02*
Y34292D01*
Y33270D02*
X38100Y31750D01*
X33401Y19939D02*
Y21590D01*
X33734Y21923D01*
Y22815D01*
X31902Y16408D02*
X32684Y17190D01*
X31384Y20686D02*
Y21765D01*
X26035Y20828D02*
X26670Y21463D01*
Y23749D01*
X27036Y24115D01*
X10287Y36195D02*
Y36449D01*
X32004Y14986D02*
X32258Y14732D01*
X31496Y17780D02*
X32004Y18288D01*
Y20066D01*
X31384Y20686D02*
X32004Y20066D01*
X18378Y19675D02*
X18388Y19685D01*
X12573Y37247D02*
X12918Y37592D01*
D30*
X41275Y1270D02*
D03*
X41402Y48260D02*
D03*
D31*
X38227Y24765D02*
D03*
X38100Y31750D02*
D03*
Y36195D02*
D03*
Y40640D02*
D03*
X38227Y45085D02*
D03*
X33782D02*
D03*
X29337D02*
D03*
X24892D02*
D03*
X20447D02*
D03*
X16002D02*
D03*
X11557D02*
D03*
X7112D02*
D03*
X2667D02*
D03*
X38227Y17780D02*
D03*
Y13335D02*
D03*
Y8890D02*
D03*
Y4445D02*
D03*
X29337D02*
D03*
X24892D02*
D03*
X20447D02*
D03*
X33782D02*
D03*
X16002D02*
D03*
X11557D02*
D03*
X7112D02*
D03*
X2667Y4435D02*
D03*
D32*
X19558Y12192D02*
D03*
X17018D02*
D03*
X11938D02*
D03*
X14478D02*
D03*
X22098D02*
D03*
D33*
X9398D02*
D03*
D34*
X4826Y34838D02*
D03*
Y39838D02*
D03*
D35*
X2126Y40838D02*
D03*
Y33838D02*
D03*
D36*
X1651Y12192D02*
D03*
X5461D02*
D03*
D37*
X35179Y20701D02*
D03*
X35941Y21336D02*
D03*
X17780Y32512D02*
D03*
X16891Y35179D02*
D03*
Y36576D02*
D03*
X19685Y17145D02*
D03*
X18415D02*
D03*
X17145Y17780D02*
D03*
X1905Y38481D02*
D03*
Y36322D02*
D03*
X4826Y15494D02*
D03*
Y8255D02*
D03*
X2286Y16383D02*
D03*
X7366D02*
D03*
X40894Y21209D02*
D03*
X30734Y17145D02*
D03*
X33274Y10668D02*
D03*
X32385D02*
D03*
Y13335D02*
D03*
X33274D02*
D03*
X31496Y10668D02*
D03*
X27305Y29845D02*
D03*
X30861Y14986D02*
D03*
X35941Y28194D02*
D03*
X26035Y20828D02*
D03*
X2413Y25273D02*
D03*
X16764Y39497D02*
D03*
X1143Y25019D02*
D03*
X21971Y17526D02*
D03*
X25400Y24003D02*
D03*
X1143Y37465D02*
D03*
X4191Y41148D02*
D03*
X9906Y36322D02*
D03*
X27813Y31623D02*
D03*
X22225Y30719D02*
D03*
X12827Y37592D02*
D03*
X18669Y38354D02*
D03*
X23241Y37719D02*
D03*
X33401Y19939D02*
D03*
X34417Y19558D02*
D03*
X31496Y17780D02*
D03*
X29972D02*
D03*
X31496Y13843D02*
D03*
X21463Y19939D02*
D03*
X20066Y19685D02*
D03*
X21723Y39197D02*
D03*
X22860Y39751D02*
D03*
X22365Y38367D02*
D03*
X24701Y35687D02*
D03*
X24003Y36703D02*
D03*
X30480Y32385D02*
D03*
X35052Y29718D02*
D03*
X31242Y34290D02*
D03*
Y33147D02*
D03*
X32436Y34493D02*
D03*
X33147Y32258D02*
D03*
X33909Y31115D02*
D03*
X35718Y33817D02*
D03*
D38*
X11144Y35572D02*
D03*
D39*
Y36072D02*
D03*
Y36572D02*
D03*
Y37072D02*
D03*
X13494D02*
D03*
Y36572D02*
D03*
Y36072D02*
D03*
Y35572D02*
D03*
D40*
X11819Y37247D02*
D03*
X12319D02*
D03*
X12819D02*
D03*
Y35397D02*
D03*
X12319D02*
D03*
X11819D02*
D03*
D41*
X16088Y30365D02*
D03*
X14838D02*
D03*
X13588D02*
D03*
X12338D02*
D03*
X11088D02*
D03*
X9838D02*
D03*
X8588D02*
D03*
X7338D02*
D03*
X6088D02*
D03*
X4838D02*
D03*
X3588D02*
D03*
X2338D02*
D03*
X1088D02*
D03*
X16088Y18315D02*
D03*
X14838D02*
D03*
X13588D02*
D03*
X12338D02*
D03*
X11088D02*
D03*
X9838D02*
D03*
X8588D02*
D03*
X7338D02*
D03*
X6088D02*
D03*
D42*
X18288Y28515D02*
D03*
Y27265D02*
D03*
Y26015D02*
D03*
Y24765D02*
D03*
Y23515D02*
D03*
Y22265D02*
D03*
Y21015D02*
D03*
Y19765D02*
D03*
D43*
X26625Y10815D02*
D03*
Y11315D02*
D03*
Y11815D02*
D03*
Y12315D02*
D03*
Y12815D02*
D03*
Y13315D02*
D03*
X30525D02*
D03*
Y12815D02*
D03*
Y12315D02*
D03*
Y11815D02*
D03*
Y11315D02*
D03*
Y10815D02*
D03*
X30525Y38715D02*
D03*
Y38215D02*
D03*
Y37715D02*
D03*
Y37215D02*
D03*
Y36715D02*
D03*
Y36215D02*
D03*
X26625D02*
D03*
Y36715D02*
D03*
Y37215D02*
D03*
Y37715D02*
D03*
Y38215D02*
D03*
Y38715D02*
D03*
D44*
X27325Y14015D02*
D03*
X27825D02*
D03*
X28325D02*
D03*
X28825D02*
D03*
X29325D02*
D03*
X29825D02*
D03*
Y10115D02*
D03*
X29325D02*
D03*
X28825D02*
D03*
X28325D02*
D03*
X27825D02*
D03*
X27325D02*
D03*
X29825Y35515D02*
D03*
X29325D02*
D03*
X28825D02*
D03*
X28325D02*
D03*
X27825D02*
D03*
X27325D02*
D03*
Y39415D02*
D03*
X27825D02*
D03*
X28325D02*
D03*
X28825D02*
D03*
X29325D02*
D03*
X29825D02*
D03*
D45*
X28575Y12065D02*
D03*
X28575Y37465D02*
D03*
D46*
X30734Y24765D02*
D03*
D47*
X28784Y21765D02*
D03*
X29434D02*
D03*
X30084D02*
D03*
X30734D02*
D03*
X31384D02*
D03*
X32034D02*
D03*
X32684D02*
D03*
Y27765D02*
D03*
X32034D02*
D03*
X31384D02*
D03*
X30734D02*
D03*
X30084D02*
D03*
X29434D02*
D03*
X28784D02*
D03*
D48*
X33734Y22815D02*
D03*
Y23465D02*
D03*
Y24115D02*
D03*
Y24765D02*
D03*
Y25415D02*
D03*
Y26065D02*
D03*
Y26715D02*
D03*
X27734D02*
D03*
Y26065D02*
D03*
Y25415D02*
D03*
Y24765D02*
D03*
Y24115D02*
D03*
Y23465D02*
D03*
Y22815D02*
D03*
D49*
X24568Y26711D02*
D03*
X22168Y22311D02*
D03*
Y26711D02*
D03*
X24568Y22311D02*
D03*
M02*
