M48
;Layer_Color=9474304
;FILE_FORMAT=2:5
INCH,LZ
;TYPE=PLATED
T1F00S00C0.03543
T2F00S00C0.04300
T3F00S00C0.04528
T4F00S00C0.10000
;TYPE=NON_PLATED
T5F00S00C0.03543
%
T01
X0019Y0137157
Y0156843
T02
X0058Y0046
X0068
X0078
X0088
X0048
X0038
T03
X000837Y0133221
Y016078
T04
X0063Y00175
X00805
X0098
X01155
X0133
X01505
Y0035
Y00525
Y007
Y00975
X015Y0125
Y01425
X00455Y00175
X0028
X00105Y0017461
Y01775
X0028
X00455
X0063
X00805
X0098
X01155
X0133
X01505
X015Y016
T05
X00075Y00465
X00225
M30
