M48
;Layer_Color=9474304
;FILE_FORMAT=2:5
INCH,LZ
;TYPE=PLATED
T1F00S00C0.01500
T2F00S00C0.03000
T3F00S00C0.03543
T4F00S00C0.04300
T5F00S00C0.04528
T6F00S00C0.10000
;TYPE=NON_PLATED
T7F00S00C0.03543
%
T01
X00675Y007
X00725Y00675
X00775
X00865Y0069
X00845Y00785
X0079Y00775
X01025Y0082
X01Y00945
X01075Y01175
X01095Y01245
X012Y01275
X0123Y01305
Y0135
X01277Y01358
X01305Y0127
X01335Y01225
X0138Y0117
X01415Y0111
X0140622Y0133139
X01415Y0084
X01385Y00815
X01355Y0077
X01315Y00785
X0124Y007
X0121Y00675
X0118Y007
X01215Y0059
X0124Y00545
X01275Y00525
X0131
Y0042
X01275
X0124
X0161Y00835
X00875Y0120941
X007Y0128
X00665Y01385
Y0144
X0066Y01555
X00735Y0151
X008805Y015105
X0085522Y0154319
X009Y01565
X00915Y01485
X00945Y01445
X009725Y01405
X00505Y0148
X0039Y0143
X00075
X00045Y01475
X00075Y01515
X00095Y00995
X00045Y00985
X0009Y00645
X0019Y0061
X0029Y00645
X0019Y00325
X00165Y0162
T02
X01625Y0005
X0163Y019
T03
X0019Y0137157
Y0156843
T04
X0057Y0048
X0067
X0077
X0087
X0047
X0037
T05
X000837Y0133221
Y016078
T06
X0063Y00175
X00805
X0098
X01155
X0133
X01505
Y0035
Y00525
Y007
Y00975
X015Y0125
Y01425
X00455Y00175
X0028
X00105Y0017461
Y01775
X0028
X00455
X0063
X00805
X0098
X01155
X0133
X01505
X015Y016
T07
X00065Y0048
X00215
M30
